<svg xmlns="http://www.w3.org/2000/svg" xmlns:xlink="http://www.w3.org/1999/xlink" width="604" height="195" viewBox="0 0 604 195">
  <defs>
    <clipPath id="clip-path">
      <rect id="Rectangle_135" data-name="Rectangle 135" width="604" height="195" rx="10" transform="translate(-6628 -998)" fill="#1f2f6a"/>
    </clipPath>
  </defs>
  <g id="Group_1202" data-name="Group 1202" transform="translate(6266 382)">
    <g id="Group_1200" data-name="Group 1200" transform="translate(-66 1062)">
      <rect id="Rectangle_136" data-name="Rectangle 136" width="604" height="195" rx="10" transform="translate(-6200 -1444)" fill="#1f2f6a"/>
      <g id="Mask_Group_29" data-name="Mask Group 29" transform="translate(428 -446)" clip-path="url(#clip-path)">
        <g id="Group_1193" data-name="Group 1193" transform="matrix(0.819, 0.574, -0.574, 0.819, -6107.842, -953.118)" opacity="0.3">
          <g id="Group_354" data-name="Group 354" transform="translate(126.113 1.314)">
            <path id="Path_16468" data-name="Path 16468" d="M31.958,23.745H18.077v-.855H31.613L43.019,11.179H68.433l4.861-4.861H95.352l12.975,12.988-.6.6L95,7.186H73.651L68.79,12.046H43.376Z" transform="translate(-18.077 -6.318)" fill="#b5c1eb"/>
          </g>
          <g id="Group_355" data-name="Group 355" transform="translate(59.554 19.175)">
            <path id="Path_16469" data-name="Path 16469" d="M168.8,24.916H145.556L129.2,8.573H112.564L97.012,24.138H43.237L30.683,11.571H12.86V10.7H31.027L43.62,23.283H96.667L112.207,7.718h17.351l16.369,16.343H168.8Z" transform="translate(-12.86 -7.718)" fill="#b5c1eb"/>
          </g>
          <g id="Group_356" data-name="Group 356" transform="translate(22.722 9.709)">
            <path id="Path_16470" data-name="Path 16470" d="M79.249,44.995H42.774l-6.43-6.43H9.973v-.842H36.714l6.4,6.417H78.9l21.931-21.918h33.49l15.22-15.246h40.519l6.8,6.8h6.723v.855h-7.068l-6.8-6.8H149.916L134.67,23.077H101.18Z" transform="translate(-9.973 -6.976)" fill="#b5c1eb"/>
          </g>
          <g id="Group_357" data-name="Group 357" transform="translate(59.861 39.882)">
            <path id="Path_16471" data-name="Path 16471" d="M121.4,68.589H106.528L91.218,53.318h-19.4L28.678,10.2H12.884V9.341H29.048L72.158,52.463H91.6l15.271,15.271H121.4Z" transform="translate(-12.884 -9.341)" fill="#b5c1eb"/>
          </g>
          <g id="Group_358" data-name="Group 358" transform="translate(108.673 38.516)">
            <path id="Path_16472" data-name="Path 16472" d="M94.751,22.018h-21.7l-8.7-8.7H16.71V11.594H65.05l8.727,8.714H94.049L105.123,9.234h19.252v1.71H105.812Z" transform="translate(-16.71 -9.234)" fill="#b5c1eb"/>
          </g>
          <g id="Group_359" data-name="Group 359" transform="translate(114.401 48.799)">
            <path id="Path_16473" data-name="Path 16473" d="M51.593,28.526H17.159v-.842H51.248L61.965,16.968H99.218l6.928-6.928h14.4v.855H106.516l-6.928,6.928H62.31Z" transform="translate(-17.159 -10.04)" fill="#b5c1eb"/>
          </g>
          <g id="Group_360" data-name="Group 360" transform="translate(16.42 48.799)">
            <path id="Path_16474" data-name="Path 16474" d="M166.339,44.346h-15.22l-32.6-32.584H97.446L81.817,27.391H30.555L21.842,36.1H9.479V34.382H21.14l8.7-8.7H81.1L96.744,10.04h22.48l32.6,32.6h13.83l6.979-6.979h37.917V37.38h-37.2Z" transform="translate(-9.479 -10.04)" fill="#b5c1eb"/>
          </g>
          <g id="Group_361" data-name="Group 361" transform="translate(41.566 51.44)" opacity="0.39">
            <path id="Path_16475" data-name="Path 16475" d="M123.478,37.8H67.215L41.38,11.969H11.45V10.247H42.082L67.917,36.095h54.847L134.82,24.026h51.4v1.722H135.547Z" transform="translate(-11.45 -10.247)" fill="#b5c1eb"/>
          </g>
          <g id="Group_362" data-name="Group 362" transform="translate(16.42 71.432)">
            <path id="Path_16476" data-name="Path 16476" d="M28.527,25.388H9.479v-.855H28.17l12.707-12.72h36.59v.868H41.234Z" transform="translate(-9.479 -11.814)" fill="#b5c1eb"/>
          </g>
          <g id="Group_363" data-name="Group 363" transform="translate(60.129 87.571)">
            <path id="Path_16477" data-name="Path 16477" d="M156.739,45.637H91.277L72.715,27.075H39.3L26.161,13.934H12.9v-.855H26.518L39.646,26.207H73.059L91.622,44.783h64.76l11.712-11.712h4.172v.855h-3.815Z" transform="translate(-12.905 -13.079)" fill="#b5c1eb"/>
          </g>
          <g id="Group_364" data-name="Group 364" transform="translate(1.85 97.28)">
            <path id="Path_16478" data-name="Path 16478" d="M199.605,59.539H144.414l-5.7-5.7H108.7L69.588,14.695H16.808L8.937,22.566l-.6-.6,8.127-8.127H69.933l39.116,39.129h30.007l5.7,5.7h54.477l4.287-4.274h21.6v.855H203.892Z" transform="translate(-8.337 -13.84)" fill="#b5c1eb"/>
          </g>
          <g id="Group_365" data-name="Group 365" transform="translate(48.991 70.437)">
            <path id="Path_16479" data-name="Path 16479" d="M57.336,48.007h-45.3v-.855H56.991L73.538,30.58h59.4L151.8,11.736h29.037v.855h-28.68L133.31,31.434h-59.4Z" transform="translate(-12.032 -11.736)" fill="#b5c1eb"/>
          </g>
          <g id="Group_366" data-name="Group 366" transform="translate(124.391 16.598)">
            <path id="Path_16480" data-name="Path 16480" d="M21.361,9.226a1.71,1.71,0,0,1-1.7,1.722,1.732,1.732,0,0,1-1.722-1.722,1.71,1.71,0,1,1,3.419,0Z" transform="translate(-17.942 -7.516)" fill="#b5c1eb"/>
          </g>
          <g id="Group_367" data-name="Group 367" transform="translate(57.832 21.025)">
            <path id="Path_16481" data-name="Path 16481" d="M16.17,9.573a1.722,1.722,0,1,1-1.722-1.71A1.732,1.732,0,0,1,16.17,9.573Z" transform="translate(-12.725 -7.863)" fill="#b5c1eb"/>
          </g>
          <g id="Group_368" data-name="Group 368" transform="translate(58.406 39.014)">
            <path id="Path_16482" data-name="Path 16482" d="M16.215,11a1.722,1.722,0,1,1-1.722-1.722A1.721,1.721,0,0,1,16.215,11Z" transform="translate(-12.77 -9.273)" fill="#b5c1eb"/>
          </g>
          <g id="Group_369" data-name="Group 369" transform="translate(15.003 82.863)">
            <path id="Path_16483" data-name="Path 16483" d="M12.8,14.42a1.716,1.716,0,1,1-1.71-1.71A1.7,1.7,0,0,1,12.8,14.42Z" transform="translate(-9.368 -12.71)" fill="#b5c1eb"/>
          </g>
          <g id="Group_370" data-name="Group 370" transform="translate(82.672 70.144)">
            <path id="Path_16484" data-name="Path 16484" d="M18.117,13.435a1.722,1.722,0,1,1-1.722-1.722A1.732,1.732,0,0,1,18.117,13.435Z" transform="translate(-14.672 -11.713)" fill="#b5c1eb"/>
          </g>
          <g id="Group_371" data-name="Group 371" transform="translate(58.7 86.142)">
            <path id="Path_16485" data-name="Path 16485" d="M16.212,14.689a1.71,1.71,0,1,1-1.722-1.722A1.712,1.712,0,0,1,16.212,14.689Z" transform="translate(-12.793 -12.967)" fill="#b5c1eb"/>
          </g>
          <g id="Group_372" data-name="Group 372" transform="translate(61.851 96.412)">
            <path id="Path_16486" data-name="Path 16486" d="M16.459,15.494a1.71,1.71,0,1,1-1.7-1.722A1.735,1.735,0,0,1,16.459,15.494Z" transform="translate(-13.04 -13.772)" fill="#b5c1eb"/>
          </g>
          <g id="Group_373" data-name="Group 373" transform="translate(136.179 81.422)">
            <path id="Path_16487" data-name="Path 16487" d="M22.285,14.319a1.721,1.721,0,0,1-1.722,1.71,1.716,1.716,0,0,1,0-3.432A1.732,1.732,0,0,1,22.285,14.319Z" transform="translate(-18.866 -12.597)" fill="#b5c1eb"/>
          </g>
          <g id="Group_374" data-name="Group 374" transform="translate(157.574 54.017)">
            <path id="Path_16488" data-name="Path 16488" d="M23.988,12.159a1.722,1.722,0,1,1-1.722-1.71A1.732,1.732,0,0,1,23.988,12.159Z" transform="translate(-20.543 -10.449)" fill="#b5c1eb"/>
          </g>
          <g id="Group_375" data-name="Group 375" transform="translate(88.413 33.452)">
            <path id="Path_16489" data-name="Path 16489" d="M18.541,10.547a1.723,1.723,0,0,1-1.722,1.722,1.716,1.716,0,0,1,0-3.432A1.721,1.721,0,0,1,18.541,10.547Z" transform="translate(-15.122 -8.837)" fill="#b5c1eb"/>
          </g>
          <g id="Group_376" data-name="Group 376" transform="translate(112.832 64.862)">
            <path id="Path_16490" data-name="Path 16490" d="M20.455,13.021A1.71,1.71,0,1,1,18.733,11.3,1.723,1.723,0,0,1,20.455,13.021Z" transform="translate(-17.036 -11.299)" fill="#b5c1eb"/>
          </g>
          <g id="Group_377" data-name="Group 377" transform="translate(118.611 99.347)">
            <path id="Path_16491" data-name="Path 16491" d="M20.908,15.724A1.71,1.71,0,1,1,19.186,14,1.723,1.723,0,0,1,20.908,15.724Z" transform="translate(-17.489 -14.002)" fill="#b5c1eb"/>
          </g>
          <g id="Group_378" data-name="Group 378" transform="translate(136.945 117.565)">
            <path id="Path_16492" data-name="Path 16492" d="M22.371,17.14a1.722,1.722,0,1,1-1.722-1.71A1.723,1.723,0,0,1,22.371,17.14Z" transform="translate(-18.926 -15.43)" fill="#b5c1eb"/>
          </g>
          <g id="Group_379" data-name="Group 379" transform="translate(0 104.131)">
            <path id="Path_16493" data-name="Path 16493" d="M11.637,16.1a1.722,1.722,0,1,1-1.722-1.722A1.721,1.721,0,0,1,11.637,16.1Z" transform="translate(-8.192 -14.377)" fill="#b5c1eb"/>
          </g>
          <g id="Group_380" data-name="Group 380" transform="translate(47.575 104.412)">
            <path id="Path_16494" data-name="Path 16494" d="M15.34,16.121a1.721,1.721,0,0,1-1.722,1.71,1.716,1.716,0,0,1,0-3.432A1.732,1.732,0,0,1,15.34,16.121Z" transform="translate(-11.921 -14.399)" fill="#b5c1eb"/>
          </g>
          <g id="Group_381" data-name="Group 381" transform="translate(165.51 96.565)">
            <path id="Path_16495" data-name="Path 16495" d="M24.61,15.494a1.722,1.722,0,1,1-1.722-1.71A1.723,1.723,0,0,1,24.61,15.494Z" transform="translate(-21.165 -13.784)" fill="#b5c1eb"/>
          </g>
          <g id="Group_382" data-name="Group 382" transform="translate(201.985 47.434)">
            <path id="Path_16496" data-name="Path 16496" d="M27.469,11.655a1.722,1.722,0,0,1-3.445,0,1.722,1.722,0,1,1,3.445,0Z" transform="translate(-24.024 -9.933)" fill="#b5c1eb"/>
          </g>
          <g id="Group_383" data-name="Group 383" transform="translate(108.966 88.018)">
            <path id="Path_16497" data-name="Path 16497" d="M20.152,14.824a1.71,1.71,0,0,1-1.7,1.722,1.732,1.732,0,0,1-1.722-1.722,1.71,1.71,0,1,1,3.419,0Z" transform="translate(-16.733 -13.114)" fill="#b5c1eb"/>
          </g>
          <g id="Group_384" data-name="Group 384" transform="translate(112.028 23.666)">
            <path id="Path_16498" data-name="Path 16498" d="M20.418,9.78A1.722,1.722,0,1,1,18.7,8.07,1.732,1.732,0,0,1,20.418,9.78Z" transform="translate(-16.973 -8.07)" fill="#b5c1eb"/>
          </g>
          <g id="Group_385" data-name="Group 385" transform="translate(149.728 5.027)">
            <path id="Path_16499" data-name="Path 16499" d="M23.373,8.331A1.722,1.722,0,1,1,21.65,6.609,1.721,1.721,0,0,1,23.373,8.331Z" transform="translate(-19.928 -6.609)" fill="#b5c1eb"/>
          </g>
          <g id="Group_386" data-name="Group 386" transform="translate(179.837)">
            <path id="Path_16500" data-name="Path 16500" d="M25.707,7.937a1.71,1.71,0,1,1-1.722-1.722A1.721,1.721,0,0,1,25.707,7.937Z" transform="translate(-22.288 -6.215)" fill="#b5c1eb"/>
          </g>
          <g id="Group_387" data-name="Group 387" transform="translate(201.487)">
            <path id="Path_16501" data-name="Path 16501" d="M27.43,7.937a1.722,1.722,0,1,1-1.722-1.722A1.721,1.721,0,0,1,27.43,7.937Z" transform="translate(-23.985 -6.215)" fill="#b5c1eb"/>
          </g>
          <g id="Group_388" data-name="Group 388" transform="translate(201.066 8.14)">
            <path id="Path_16502" data-name="Path 16502" d="M27.4,8.563a1.722,1.722,0,1,1-1.722-1.71A1.732,1.732,0,0,1,27.4,8.563Z" transform="translate(-23.952 -6.853)" fill="#b5c1eb"/>
          </g>
          <g id="Group_389" data-name="Group 389" transform="translate(174.173 17.989)">
            <path id="Path_16503" data-name="Path 16503" d="M25.289,9.347a1.722,1.722,0,1,1-1.722-1.722A1.721,1.721,0,0,1,25.289,9.347Z" transform="translate(-21.844 -7.625)" fill="#b5c1eb"/>
          </g>
          <g id="Group_390" data-name="Group 390" transform="translate(141.805 33.452)">
            <path id="Path_16504" data-name="Path 16504" d="M22.726,10.547a1.7,1.7,0,0,1-1.7,1.722,1.716,1.716,0,1,1,0-3.432A1.7,1.7,0,0,1,22.726,10.547Z" transform="translate(-19.307 -8.837)" fill="#b5c1eb"/>
          </g>
          <g id="Group_391" data-name="Group 391" transform="translate(21.433 39.167)">
            <path id="Path_16505" data-name="Path 16505" d="M13.3,10.995a1.716,1.716,0,1,1-3.432,0,1.716,1.716,0,0,1,3.432,0Z" transform="translate(-9.872 -9.285)" fill="#b5c1eb"/>
          </g>
          <g id="Group_392" data-name="Group 392" transform="translate(39.282 49.858)">
            <path id="Path_16506" data-name="Path 16506" d="M16.119,12.56A2.424,2.424,0,1,1,13.7,10.123,2.423,2.423,0,0,1,16.119,12.56Z" transform="translate(-11.271 -10.123)" fill="#b5c1eb"/>
          </g>
          <g id="Group_393" data-name="Group 393" transform="translate(106.44 39.384)">
            <path id="Path_16507" data-name="Path 16507" d="M21.383,11.713A2.424,2.424,0,1,1,18.972,9.3,2.429,2.429,0,0,1,21.383,11.713Z" transform="translate(-16.535 -9.302)" fill="#b5c1eb"/>
          </g>
          <g id="Group_394" data-name="Group 394" transform="translate(154.436 39.486)">
            <path id="Path_16508" data-name="Path 16508" d="M25.12,11.734A2.411,2.411,0,1,1,22.708,9.31,2.412,2.412,0,0,1,25.12,11.734Z" transform="translate(-20.297 -9.31)" fill="#b5c1eb"/>
          </g>
          <g id="Group_395" data-name="Group 395" transform="translate(13.728 71.726)">
            <path id="Path_16509" data-name="Path 16509" d="M14.1,14.261a2.418,2.418,0,1,1-2.411-2.424A2.418,2.418,0,0,1,14.1,14.261Z" transform="translate(-9.268 -11.837)" fill="#b5c1eb"/>
          </g>
        </g>
        <g id="Group_1194" data-name="Group 1194" transform="matrix(-0.719, -0.695, 0.695, -0.719, -6555.322, -842.458)" opacity="0.3">
          <g id="Group_354-2" data-name="Group 354" transform="translate(126.113 1.314)">
            <path id="Path_16468-2" data-name="Path 16468" d="M31.958,23.745H18.077v-.855H31.613L43.019,11.179H68.433l4.861-4.861H95.352l12.975,12.988-.6.6L95,7.186H73.651L68.79,12.046H43.376Z" transform="translate(-18.077 -6.318)" fill="#b5c1eb"/>
          </g>
          <g id="Group_355-2" data-name="Group 355" transform="translate(59.554 19.175)">
            <path id="Path_16469-2" data-name="Path 16469" d="M168.8,24.916H145.556L129.2,8.573H112.564L97.012,24.138H43.237L30.683,11.571H12.86V10.7H31.027L43.62,23.283H96.667L112.207,7.718h17.351l16.369,16.343H168.8Z" transform="translate(-12.86 -7.718)" fill="#b5c1eb"/>
          </g>
          <g id="Group_356-2" data-name="Group 356" transform="translate(22.722 9.709)">
            <path id="Path_16470-2" data-name="Path 16470" d="M79.249,44.995H42.774l-6.43-6.43H9.973v-.842H36.714l6.4,6.417H78.9l21.931-21.918h33.49l15.22-15.246h40.519l6.8,6.8h6.723v.855h-7.068l-6.8-6.8H149.916L134.67,23.077H101.18Z" transform="translate(-9.973 -6.976)" fill="#b5c1eb"/>
          </g>
          <g id="Group_357-2" data-name="Group 357" transform="translate(59.861 39.882)">
            <path id="Path_16471-2" data-name="Path 16471" d="M121.4,68.589H106.528L91.218,53.318h-19.4L28.678,10.2H12.884V9.341H29.048L72.158,52.463H91.6l15.271,15.271H121.4Z" transform="translate(-12.884 -9.341)" fill="#b5c1eb"/>
          </g>
          <g id="Group_358-2" data-name="Group 358" transform="translate(108.673 38.516)">
            <path id="Path_16472-2" data-name="Path 16472" d="M94.751,22.018h-21.7l-8.7-8.7H16.71V11.594H65.05l8.727,8.714H94.049L105.123,9.234h19.252v1.71H105.812Z" transform="translate(-16.71 -9.234)" fill="#b5c1eb"/>
          </g>
          <g id="Group_359-2" data-name="Group 359" transform="translate(114.401 48.799)">
            <path id="Path_16473-2" data-name="Path 16473" d="M51.593,28.526H17.159v-.842H51.248L61.965,16.968H99.218l6.928-6.928h14.4v.855H106.516l-6.928,6.928H62.31Z" transform="translate(-17.159 -10.04)" fill="#b5c1eb"/>
          </g>
          <g id="Group_360-2" data-name="Group 360" transform="translate(16.42 48.799)">
            <path id="Path_16474-2" data-name="Path 16474" d="M166.339,44.346h-15.22l-32.6-32.584H97.446L81.817,27.391H30.555L21.842,36.1H9.479V34.382H21.14l8.7-8.7H81.1L96.744,10.04h22.48l32.6,32.6h13.83l6.979-6.979h37.917V37.38h-37.2Z" transform="translate(-9.479 -10.04)" fill="#b5c1eb"/>
          </g>
          <g id="Group_361-2" data-name="Group 361" transform="translate(41.566 51.44)">
            <path id="Path_16475-2" data-name="Path 16475" d="M123.478,37.8H67.215L41.38,11.969H11.45V10.247H42.082L67.917,36.095h54.847L134.82,24.026h51.4v1.722H135.547Z" transform="translate(-11.45 -10.247)" fill="#b5c1eb"/>
          </g>
          <g id="Group_362-2" data-name="Group 362" transform="translate(16.42 71.432)">
            <path id="Path_16476-2" data-name="Path 16476" d="M28.527,25.388H9.479v-.855H28.17l12.707-12.72h36.59v.868H41.234Z" transform="translate(-9.479 -11.814)" fill="#b5c1eb"/>
          </g>
          <g id="Group_363-2" data-name="Group 363" transform="translate(60.129 87.571)">
            <path id="Path_16477-2" data-name="Path 16477" d="M156.739,45.637H91.277L72.715,27.075H39.3L26.161,13.934H12.9v-.855H26.518L39.646,26.207H73.059L91.622,44.783h64.76l11.712-11.712h4.172v.855h-3.815Z" transform="translate(-12.905 -13.079)" fill="#b5c1eb"/>
          </g>
          <g id="Group_364-2" data-name="Group 364" transform="translate(1.85 97.28)">
            <path id="Path_16478-2" data-name="Path 16478" d="M199.605,59.539H144.414l-5.7-5.7H108.7L69.588,14.695H16.808L8.937,22.566l-.6-.6,8.127-8.127H69.933l39.116,39.129h30.007l5.7,5.7h54.477l4.287-4.274h21.6v.855H203.892Z" transform="translate(-8.337 -13.84)" fill="#b5c1eb"/>
          </g>
          <g id="Group_365-2" data-name="Group 365" transform="translate(48.991 70.437)">
            <path id="Path_16479-2" data-name="Path 16479" d="M57.336,48.007h-45.3v-.855H56.991L73.538,30.58h59.4L151.8,11.736h29.037v.855h-28.68L133.31,31.434h-59.4Z" transform="translate(-12.032 -11.736)" fill="#b5c1eb"/>
          </g>
          <g id="Group_366-2" data-name="Group 366" transform="translate(124.391 16.598)">
            <path id="Path_16480-2" data-name="Path 16480" d="M21.361,9.226a1.71,1.71,0,0,1-1.7,1.722,1.732,1.732,0,0,1-1.722-1.722,1.71,1.71,0,1,1,3.419,0Z" transform="translate(-17.942 -7.516)" fill="#b5c1eb"/>
          </g>
          <g id="Group_367-2" data-name="Group 367" transform="translate(57.832 21.025)">
            <path id="Path_16481-2" data-name="Path 16481" d="M16.17,9.573a1.722,1.722,0,1,1-1.722-1.71A1.732,1.732,0,0,1,16.17,9.573Z" transform="translate(-12.725 -7.863)" fill="#b5c1eb"/>
          </g>
          <g id="Group_368-2" data-name="Group 368" transform="translate(58.406 39.014)">
            <path id="Path_16482-2" data-name="Path 16482" d="M16.215,11a1.722,1.722,0,1,1-1.722-1.722A1.721,1.721,0,0,1,16.215,11Z" transform="translate(-12.77 -9.273)" fill="#b5c1eb"/>
          </g>
          <g id="Group_369-2" data-name="Group 369" transform="translate(15.003 82.863)">
            <path id="Path_16483-2" data-name="Path 16483" d="M12.8,14.42a1.716,1.716,0,1,1-1.71-1.71A1.7,1.7,0,0,1,12.8,14.42Z" transform="translate(-9.368 -12.71)" fill="#b5c1eb"/>
          </g>
          <g id="Group_370-2" data-name="Group 370" transform="translate(82.672 70.144)">
            <path id="Path_16484-2" data-name="Path 16484" d="M18.117,13.435a1.722,1.722,0,1,1-1.722-1.722A1.732,1.732,0,0,1,18.117,13.435Z" transform="translate(-14.672 -11.713)" fill="#b5c1eb"/>
          </g>
          <g id="Group_371-2" data-name="Group 371" transform="translate(58.7 86.142)">
            <path id="Path_16485-2" data-name="Path 16485" d="M16.212,14.689a1.71,1.71,0,1,1-1.722-1.722A1.712,1.712,0,0,1,16.212,14.689Z" transform="translate(-12.793 -12.967)" fill="#b5c1eb"/>
          </g>
          <g id="Group_372-2" data-name="Group 372" transform="translate(61.851 96.412)">
            <path id="Path_16486-2" data-name="Path 16486" d="M16.459,15.494a1.71,1.71,0,1,1-1.7-1.722A1.735,1.735,0,0,1,16.459,15.494Z" transform="translate(-13.04 -13.772)" fill="#b5c1eb"/>
          </g>
          <g id="Group_373-2" data-name="Group 373" transform="translate(136.179 81.422)">
            <path id="Path_16487-2" data-name="Path 16487" d="M22.285,14.319a1.721,1.721,0,0,1-1.722,1.71,1.716,1.716,0,0,1,0-3.432A1.732,1.732,0,0,1,22.285,14.319Z" transform="translate(-18.866 -12.597)" fill="#b5c1eb"/>
          </g>
          <g id="Group_374-2" data-name="Group 374" transform="translate(157.574 54.017)">
            <path id="Path_16488-2" data-name="Path 16488" d="M23.988,12.159a1.722,1.722,0,1,1-1.722-1.71A1.732,1.732,0,0,1,23.988,12.159Z" transform="translate(-20.543 -10.449)" fill="#b5c1eb"/>
          </g>
          <g id="Group_375-2" data-name="Group 375" transform="translate(88.413 33.452)">
            <path id="Path_16489-2" data-name="Path 16489" d="M18.541,10.547a1.723,1.723,0,0,1-1.722,1.722,1.716,1.716,0,0,1,0-3.432A1.721,1.721,0,0,1,18.541,10.547Z" transform="translate(-15.122 -8.837)" fill="#b5c1eb"/>
          </g>
          <g id="Group_376-2" data-name="Group 376" transform="translate(112.832 64.862)">
            <path id="Path_16490-2" data-name="Path 16490" d="M20.455,13.021A1.71,1.71,0,1,1,18.733,11.3,1.723,1.723,0,0,1,20.455,13.021Z" transform="translate(-17.036 -11.299)" fill="#b5c1eb"/>
          </g>
          <g id="Group_377-2" data-name="Group 377" transform="translate(118.611 99.347)">
            <path id="Path_16491-2" data-name="Path 16491" d="M20.908,15.724A1.71,1.71,0,1,1,19.186,14,1.723,1.723,0,0,1,20.908,15.724Z" transform="translate(-17.489 -14.002)" fill="#b5c1eb"/>
          </g>
          <g id="Group_378-2" data-name="Group 378" transform="translate(136.945 117.565)">
            <path id="Path_16492-2" data-name="Path 16492" d="M22.371,17.14a1.722,1.722,0,1,1-1.722-1.71A1.723,1.723,0,0,1,22.371,17.14Z" transform="translate(-18.926 -15.43)" fill="#b5c1eb"/>
          </g>
          <g id="Group_379-2" data-name="Group 379" transform="translate(0 104.131)">
            <path id="Path_16493-2" data-name="Path 16493" d="M11.637,16.1a1.722,1.722,0,1,1-1.722-1.722A1.721,1.721,0,0,1,11.637,16.1Z" transform="translate(-8.192 -14.377)" fill="#b5c1eb"/>
          </g>
          <g id="Group_380-2" data-name="Group 380" transform="translate(47.575 104.412)">
            <path id="Path_16494-2" data-name="Path 16494" d="M15.34,16.121a1.721,1.721,0,0,1-1.722,1.71,1.716,1.716,0,0,1,0-3.432A1.732,1.732,0,0,1,15.34,16.121Z" transform="translate(-11.921 -14.399)" fill="#b5c1eb"/>
          </g>
          <g id="Group_381-2" data-name="Group 381" transform="translate(165.51 96.565)">
            <path id="Path_16495-2" data-name="Path 16495" d="M24.61,15.494a1.722,1.722,0,1,1-1.722-1.71A1.723,1.723,0,0,1,24.61,15.494Z" transform="translate(-21.165 -13.784)" fill="#b5c1eb"/>
          </g>
          <g id="Group_382-2" data-name="Group 382" transform="translate(201.985 47.434)">
            <path id="Path_16496-2" data-name="Path 16496" d="M27.469,11.655a1.722,1.722,0,0,1-3.445,0,1.722,1.722,0,1,1,3.445,0Z" transform="translate(-24.024 -9.933)" fill="#b5c1eb"/>
          </g>
          <g id="Group_383-2" data-name="Group 383" transform="translate(108.966 88.018)">
            <path id="Path_16497-2" data-name="Path 16497" d="M20.152,14.824a1.71,1.71,0,0,1-1.7,1.722,1.732,1.732,0,0,1-1.722-1.722,1.71,1.71,0,1,1,3.419,0Z" transform="translate(-16.733 -13.114)" fill="#b5c1eb"/>
          </g>
          <g id="Group_384-2" data-name="Group 384" transform="translate(112.028 23.666)">
            <path id="Path_16498-2" data-name="Path 16498" d="M20.418,9.78A1.722,1.722,0,1,1,18.7,8.07,1.732,1.732,0,0,1,20.418,9.78Z" transform="translate(-16.973 -8.07)" fill="#b5c1eb"/>
          </g>
          <g id="Group_385-2" data-name="Group 385" transform="translate(149.728 5.027)">
            <path id="Path_16499-2" data-name="Path 16499" d="M23.373,8.331A1.722,1.722,0,1,1,21.65,6.609,1.721,1.721,0,0,1,23.373,8.331Z" transform="translate(-19.928 -6.609)" fill="#b5c1eb"/>
          </g>
          <g id="Group_386-2" data-name="Group 386" transform="translate(179.837)">
            <path id="Path_16500-2" data-name="Path 16500" d="M25.707,7.937a1.71,1.71,0,1,1-1.722-1.722A1.721,1.721,0,0,1,25.707,7.937Z" transform="translate(-22.288 -6.215)" fill="#b5c1eb"/>
          </g>
          <g id="Group_387-2" data-name="Group 387" transform="translate(201.487)">
            <path id="Path_16501-2" data-name="Path 16501" d="M27.43,7.937a1.722,1.722,0,1,1-1.722-1.722A1.721,1.721,0,0,1,27.43,7.937Z" transform="translate(-23.985 -6.215)" fill="#b5c1eb"/>
          </g>
          <g id="Group_388-2" data-name="Group 388" transform="translate(201.066 8.14)">
            <path id="Path_16502-2" data-name="Path 16502" d="M27.4,8.563a1.722,1.722,0,1,1-1.722-1.71A1.732,1.732,0,0,1,27.4,8.563Z" transform="translate(-23.952 -6.853)" fill="#b5c1eb"/>
          </g>
          <g id="Group_389-2" data-name="Group 389" transform="translate(174.173 17.989)">
            <path id="Path_16503-2" data-name="Path 16503" d="M25.289,9.347a1.722,1.722,0,1,1-1.722-1.722A1.721,1.721,0,0,1,25.289,9.347Z" transform="translate(-21.844 -7.625)" fill="#b5c1eb"/>
          </g>
          <g id="Group_390-2" data-name="Group 390" transform="translate(141.805 33.452)">
            <path id="Path_16504-2" data-name="Path 16504" d="M22.726,10.547a1.7,1.7,0,0,1-1.7,1.722,1.716,1.716,0,1,1,0-3.432A1.7,1.7,0,0,1,22.726,10.547Z" transform="translate(-19.307 -8.837)" fill="#b5c1eb"/>
          </g>
          <g id="Group_391-2" data-name="Group 391" transform="translate(21.433 39.167)">
            <path id="Path_16505-2" data-name="Path 16505" d="M13.3,10.995a1.716,1.716,0,1,1-3.432,0,1.716,1.716,0,0,1,3.432,0Z" transform="translate(-9.872 -9.285)" fill="#b5c1eb"/>
          </g>
          <g id="Group_392-2" data-name="Group 392" transform="translate(39.282 49.858)">
            <path id="Path_16506-2" data-name="Path 16506" d="M16.119,12.56A2.424,2.424,0,1,1,13.7,10.123,2.423,2.423,0,0,1,16.119,12.56Z" transform="translate(-11.271 -10.123)" fill="#b5c1eb"/>
          </g>
          <g id="Group_393-2" data-name="Group 393" transform="translate(106.44 39.384)">
            <path id="Path_16507-2" data-name="Path 16507" d="M21.383,11.713A2.424,2.424,0,1,1,18.972,9.3,2.429,2.429,0,0,1,21.383,11.713Z" transform="translate(-16.535 -9.302)" fill="#b5c1eb"/>
          </g>
          <g id="Group_394-2" data-name="Group 394" transform="translate(154.436 39.486)">
            <path id="Path_16508-2" data-name="Path 16508" d="M25.12,11.734A2.411,2.411,0,1,1,22.708,9.31,2.412,2.412,0,0,1,25.12,11.734Z" transform="translate(-20.297 -9.31)" fill="#b5c1eb"/>
          </g>
          <g id="Group_395-2" data-name="Group 395" transform="translate(13.728 71.726)">
            <path id="Path_16509-2" data-name="Path 16509" d="M14.1,14.261a2.418,2.418,0,1,1-2.411-2.424A2.418,2.418,0,0,1,14.1,14.261Z" transform="translate(-9.268 -11.837)" fill="#b5c1eb"/>
          </g>
        </g>
      </g>
    </g>
    <g id="Group_1201" data-name="Group 1201" transform="translate(-6035 -320.523)">
      <g id="logoWhite" transform="translate(0 0)">
        <path id="Path_987" data-name="Path 987" d="M34.415,12.425A17.509,17.509,0,0,0,.353,18.139a18.316,18.316,0,0,0,.109,1.97,17.384,17.384,0,0,0,1.78,5.951,17.594,17.594,0,0,0,4.873,5.9A6.645,6.645,0,0,1,9,30.211a6.664,6.664,0,0,1,3.473-.982,6.607,6.607,0,0,1,5.476,2.9,6.619,6.619,0,0,1,8.185-2.318,6.464,6.464,0,0,1,.845.455,6.681,6.681,0,0,1,1.738,1.61,17.622,17.622,0,0,0,4.759-5.814,17.553,17.553,0,0,0,.937-13.634ZM16.832,4.6a.025.025,0,0,1,.025-.025h1.663a.025.025,0,0,1,.025.025V6.061a.025.025,0,0,1-.025.025H16.857a.025.025,0,0,1-.025-.025ZM5.177,16.47,3.7,16.289A13.708,13.708,0,0,1,9.138,7.057a13.284,13.284,0,0,1,6.271-2.463l.173,1.473a11.814,11.814,0,0,0-5.568,2.187A12.2,12.2,0,0,0,5.177,16.47ZM17.833,26.793c-5.013,0-8.637-3.937-8.637-9.129s3.624-9.129,8.637-9.129,8.681,3.937,8.681,9.129S22.846,26.793,17.833,26.793ZM13.7,60.855a.263.263,0,0,1-.259.259H11.838a2.171,2.171,0,0,0-4.246.483,1.215,1.215,0,0,0-.006.142,2.173,2.173,0,0,0,4.249.645h1.612a1.532,1.532,0,0,0,1.532-1.532V41.672H13.707ZM9.757,62.646a.905.905,0,0,1-.9-.9v-.014l0-.042a.9.9,0,0,1,1.8,0l0,.056A.909.909,0,0,1,9.757,62.646ZM35.2,52.139a2.171,2.171,0,0,0-4.235-.519H29.351a.263.263,0,0,1-.259-.262V38.915H27.82V51.358a1.532,1.532,0,0,0,1.532,1.532h1.593a2.173,2.173,0,0,0,4.26-.608A1.237,1.237,0,0,0,35.2,52.139Zm-2.168,1.046a.905.905,0,0,1-.9-.9v-.008l0-.047a.9.9,0,0,1,1.8,0l0,.056A.907.907,0,0,1,33.031,53.186Zm-3.565,1.632a2.172,2.172,0,0,0-2.078,1.546H25.8a.263.263,0,0,1-.259-.259V41.677H24.269V56.1A1.532,1.532,0,0,0,25.8,57.635h1.59a2.173,2.173,0,0,0,4.249-.642,1.286,1.286,0,0,0-.006-.145A2.172,2.172,0,0,0,29.466,54.818Zm0,3.075a.905.905,0,0,1-.9-.9v-.014l0-.042a.9.9,0,0,1,1.8,0l0,.056A.907.907,0,0,1,29.466,57.892Zm-3.518,1.6a2.17,2.17,0,0,0-2.1,1.621H22.277a.263.263,0,0,1-.259-.259V41.568H20.745V60.858a1.532,1.532,0,0,0,1.532,1.532H23.9a2.172,2.172,0,0,0,4.223-.717,1.284,1.284,0,0,0-.006-.145A2.171,2.171,0,0,0,25.948,59.5Zm0,3.077a.905.905,0,0,1-.9-.9v-.014l0-.042a.9.9,0,0,1,1.8,0l0,.056A.907.907,0,0,1,25.948,62.574ZM18.5,63.929V37.478H17.225V63.927a2.172,2.172,0,0,0-1.54,1.936,1.235,1.235,0,0,0-.006.145,2.173,2.173,0,1,0,4.346,0,1.284,1.284,0,0,0-.006-.145A2.168,2.168,0,0,0,18.5,63.929Zm-.644,2.98a.905.905,0,0,1-.9-.9v-.014l0-.042a.9.9,0,0,1,1.8,0l0,.056A.9.9,0,0,1,17.853,66.909ZM4.814,52.879H6.4a1.532,1.532,0,0,0,1.532-1.532V38.159H6.663V51.347a.263.263,0,0,1-.259.259H4.786a2.172,2.172,0,0,0-4.232.533,1.238,1.238,0,0,0-.006.145,2.174,2.174,0,0,0,4.265.594Zm-2.092.307a.905.905,0,0,1-.9-.9v-.014l0-.042a.9.9,0,0,1,1.8,0l0,.056A.9.9,0,0,1,2.722,53.186Zm5.6,4.447h1.6A1.532,1.532,0,0,0,11.456,56.1V41.621H10.184V56.1a.263.263,0,0,1-.259.259h-1.6a2.171,2.171,0,0,0-4.246.485,1.238,1.238,0,0,0-.006.145,2.173,2.173,0,0,0,4.249.642Zm-2.078.26a.905.905,0,0,1-.9-.9v-.014l0-.042a.9.9,0,0,1,1.8,0l0,.056A.9.9,0,0,1,6.245,57.892Zm23.12-24.122a6.456,6.456,0,0,0-.647-1.052,6.633,6.633,0,0,0-1.738-1.61,6.844,6.844,0,0,0-.845-.455,6.619,6.619,0,0,0-8.185,2.318,6.613,6.613,0,0,0-5.473-2.9,6.515,6.515,0,0,0-1.936.29,6.573,6.573,0,0,0-3.423,2.444,6.439,6.439,0,0,0-.561.921,6.62,6.62,0,0,0,5.922,9.581,6.526,6.526,0,0,0,.879-.059,6.424,6.424,0,0,0,1.356-.332,6.628,6.628,0,0,0,3.239-2.511,6.627,6.627,0,0,0,5.476,2.9h.064a6.62,6.62,0,0,0,5.713-3.39v0a6.605,6.605,0,0,0,.159-6.143Zm-12.52,3.624a4.428,4.428,0,0,1-3.208,3.565c-.07.02-.142.039-.215.053A4.434,4.434,0,0,1,8.05,36.689a.24.24,0,0,1,0-.045,4.376,4.376,0,0,1,.321-1.615,3.7,3.7,0,0,1,.192-.413,4.207,4.207,0,0,1,.363-.572,4.419,4.419,0,0,1,2.605-1.677,4.344,4.344,0,0,1,.937-.1,4.423,4.423,0,0,1,4.416,4.2c.006.075.006.151.006.226A3.9,3.9,0,0,1,16.846,37.395Zm6.57,3.722H23.41a4.428,4.428,0,0,1-4.424-4.425c0-.081,0-.159.006-.237a3.861,3.861,0,0,1,.059-.51,4.426,4.426,0,0,1,4.36-3.677,4.427,4.427,0,0,1,3.493,1.71,4.232,4.232,0,0,1,.586,1s0,0,0,.006a.768.768,0,0,1,.042.1,4.306,4.306,0,0,1,.279,1.183v0a4.116,4.116,0,0,1,.022.418A4.422,4.422,0,0,1,23.415,41.116ZM58.935.3A16.938,16.938,0,0,1,70.482,4.686l-3.85,5.594a11.086,11.086,0,0,0-7.7-3.044,8.879,8.879,0,0,0-9.306,9.218,8.879,8.879,0,0,0,9.306,9.218,11.087,11.087,0,0,0,7.7-3.044l3.847,5.594a16.938,16.938,0,0,1-11.546,4.386c-10.606,0-17.273-7.43-17.273-16.156S48.329.3,58.935.3Zm43.033.494V7.328H93.287V32.122h-7.92V7.328H76.82V.794Zm6.469,15.663C108.437,7.64,115.372.3,125.039.3s16.6,7.34,16.6,16.156-6.935,16.156-16.6,16.156S108.437,25.272,108.437,16.456Zm25.283,0c0-5.192-3.668-9.129-8.681-9.129s-8.637,3.939-8.637,9.129,3.623,9.129,8.637,9.129S133.72,21.648,133.72,16.456Z" transform="translate(-0.353 -0.3)" fill="#eee"/>
        <path id="Path_988" data-name="Path 988" d="M87.914,55.564v1.163H84.606V65.5h-1.42V56.727H79.878V55.564Z" transform="translate(-19.887 -13.874)" fill="#eee"/>
        <path id="Path_989" data-name="Path 989" d="M112.592,65.505h-6.319V55.568h6.319v1.163h-4.9v3.323h4.273v1.163h-4.273v3.125h4.9Z" transform="translate(-26.37 -13.875)" fill="#eee"/>
        <path id="Path_990" data-name="Path 990" d="M132.667,55.357a5.1,5.1,0,0,1,3.281,1.066l-.555,1.066a4.787,4.787,0,0,0-2.726-.851,3.848,3.848,0,1,0,0,7.694,4.787,4.787,0,0,0,2.726-.851l.555,1.066a5.093,5.093,0,0,1-3.281,1.066,5.133,5.133,0,1,1,0-10.256Z" transform="translate(-31.535 -13.824)" fill="#eee"/>
        <path id="Path_991" data-name="Path 991" d="M154.384,61.345V65.5h-1.42V55.567h1.42v4.626h4.642V55.564h1.42V65.5h-1.42v-4.16h-4.642Z" transform="translate(-37.839 -13.874)" fill="#eee"/>
      </g>
    </g>
  </g>
</svg>
