<svg xmlns="http://www.w3.org/2000/svg" width="321.26" height="319.553" viewBox="0 0 321.26 319.553">
  <g id="Group_1187" data-name="Group 1187" transform="translate(0)">
    <g id="_11436091_4707067" data-name="11436091_4707067" transform="translate(0)">
      <g id="Shadows" transform="translate(20.98 221.23)">
        <path id="Path_20705" data-name="Path 20705" d="M247.262,324.759,134.544,389.848c-3.171,1.831-8.71,1.6-12.372-.513l-40.018-23.1c-3.662-2.115-4.059-5.313-.888-7.143L193.984,294c3.171-1.831,8.71-1.6,12.372.513l40.018,23.1C250.036,319.729,250.434,322.928,247.262,324.759Z" transform="translate(-79.124 -292.761)" fill="#e0e0e0"/>
      </g>
      <g id="Plants" transform="translate(0 221.23)">
        <g id="Group_1145" data-name="Group 1145" transform="translate(264.799)">
          <g id="Group_1143" data-name="Group 1143">
            <path id="Path_20706" data-name="Path 20706" d="M389.118,347.918,398,353.076s-4.48-14.3-1.993-28.689a27.582,27.582,0,0,1,3.611-9.577c.7-1.449,6.051-10.423,1.338-14.559s-15.77,4.092-15.274,26.25A86.118,86.118,0,0,0,389.118,347.918Z" transform="translate(-385.663 -299.219)" fill="#ba68c8"/>
            <path id="Path_20707" data-name="Path 20707" d="M389.118,347.918,398,353.076s-4.48-14.3-1.993-28.689a27.582,27.582,0,0,1,3.611-9.577c.7-1.449,6.051-10.423,1.338-14.559s-15.77,4.092-15.274,26.25A86.118,86.118,0,0,0,389.118,347.918Z" transform="translate(-385.663 -299.219)" fill="#1f2f6a"/>
            <path id="Path_20708" data-name="Path 20708" d="M393.53,350.977a.4.4,0,0,1-.378-.264c-.034-.092-3.391-9.416-3.214-24.368.177-15.043,8.082-23.064,8.163-23.144a.4.4,0,0,1,.567.571c-.077.077-7.752,7.886-7.925,22.581-.175,14.793,3.131,23.99,3.165,24.082a.4.4,0,0,1-.24.517A.381.381,0,0,1,393.53,350.977Z" transform="translate(-385.948 -299.478)" fill="#fff"/>
          </g>
          <g id="Group_1144" data-name="Group 1144" transform="translate(6.761 17.884)">
            <path id="Path_20709" data-name="Path 20709" d="M396.488,353.228l14.668,8.626s6.716-.989,6.208-7.311-3.237-7.812.161-10.59,4.275-2.962,4.113-5.685-1.994-3.91-2.856-4.989-3.264-3.343-1.573-6.627,3.981-6.456.579-7.961c-2.03-.9-5.444.227-7.707,2.63s-4.13,4.129-6.274,4.687-6.614.6-6.464,4.3,1.11,4.97.214,6.61C395.866,340,388.656,341.67,396.488,353.228Z" transform="translate(-392.908 -318.384)" fill="#ba68c8"/>
            <path id="Path_20710" data-name="Path 20710" d="M396.488,353.228l14.668,8.626s6.716-.989,6.208-7.311-3.237-7.812.161-10.59,4.275-2.962,4.113-5.685-1.994-3.91-2.856-4.989-3.264-3.343-1.573-6.627,3.981-6.456.579-7.961c-2.03-.9-5.444.227-7.707,2.63s-4.13,4.129-6.274,4.687-6.614.6-6.464,4.3,1.11,4.97.214,6.61C395.866,340,388.656,341.67,396.488,353.228Z" transform="translate(-392.908 -318.384)" fill="#4c5dd3"/>
            <path id="Path_20711" data-name="Path 20711" d="M403.112,357.274a.4.4,0,0,1-.4-.37c-.018-.219-1.613-22.09,13.581-36.453a.4.4,0,1,1,.553.585c-14.909,14.092-13.35,35.586-13.331,35.8a.4.4,0,0,1-.37.434Z" transform="translate(-393.559 -318.515)" fill="#fff"/>
            <path id="Path_20712" data-name="Path 20712" d="M405.6,339.131a.4.4,0,0,1-.4-.373,12.448,12.448,0,0,0-4.459-8.719.4.4,0,0,1,.471-.654,13.04,13.04,0,0,1,4.792,9.313.4.4,0,0,1-.371.431Z" transform="translate(-393.42 -319.114)" fill="#fff"/>
            <path id="Path_20713" data-name="Path 20713" d="M404.774,343.547a.4.4,0,0,1-.3-.671c.159-.177,3.983-4.311,12.827-3.1a.4.4,0,1,1-.109.8c-8.391-1.152-12.083,2.8-12.119,2.837A.4.4,0,0,1,404.774,343.547Z" transform="translate(-393.674 -319.799)" fill="#fff"/>
          </g>
        </g>
        <g id="Group_1148" data-name="Group 1148" transform="translate(0 0.124)">
          <g id="Group_1146" data-name="Group 1146" transform="translate(4.1)">
            <path id="Path_20714" data-name="Path 20714" d="M98.478,335.364l-4.385,9.284s-4.425-14.319-14.636-24.754a27.55,27.55,0,0,0-8.408-5.837c-1.4-.8-10.9-5.15-9.363-11.23s15.308-5.579,27.471,12.95A86.059,86.059,0,0,1,98.478,335.364Z" transform="translate(-61.519 -299.352)" fill="#ba68c8"/>
            <path id="Path_20715" data-name="Path 20715" d="M98.478,335.364l-4.385,9.284s-4.425-14.319-14.636-24.754a27.55,27.55,0,0,0-8.408-5.837c-1.4-.8-10.9-5.15-9.363-11.23s15.308-5.579,27.471,12.95A86.059,86.059,0,0,1,98.478,335.364Z" transform="translate(-61.519 -299.352)" fill="#1f2f6a" opacity="0.72"/>
            <path id="Path_20716" data-name="Path 20716" d="M96.711,340.363a.4.4,0,0,1-.39-.3c-.024-.094-2.52-9.545-11.057-21.626-8.481-12-19.23-14.079-19.338-14.1a.4.4,0,0,1,.144-.793c.11.02,11.171,2.14,19.852,14.426C94.55,330.182,97.075,339.764,97.1,339.86a.4.4,0,0,1-.29.49A.34.34,0,0,1,96.711,340.363Z" transform="translate(-61.791 -299.632)" fill="#fff"/>
          </g>
          <g id="Group_1147" data-name="Group 1147" transform="translate(0 23.312)">
            <path id="Path_20717" data-name="Path 20717" d="M94.8,344.258l-7.184,15.426s-6.092,3-9.261-2.5-1.767-8.269-6.14-8.629-5.2-.014-6.612-2.348-.577-4.351-.479-5.729.791-4.6-2.464-6.349-6.941-3.057-4.994-6.226c1.162-1.892,4.612-2.9,7.839-2.208s5.744,1.057,7.826.3,5.789-3.257,7.76-.13,1.906,4.722,3.575,5.565C87.81,333.018,94.691,330.3,94.8,344.258Z" transform="translate(-57.126 -324.333)" fill="#ba68c8"/>
            <path id="Path_20718" data-name="Path 20718" d="M94.8,344.258l-7.184,15.426s-6.092,3-9.261-2.5-1.767-8.269-6.14-8.629-5.2-.014-6.612-2.348-.577-4.351-.479-5.729.791-4.6-2.464-6.349-6.941-3.057-4.994-6.226c1.162-1.892,4.612-2.9,7.839-2.208s5.744,1.057,7.826.3,5.789-3.257,7.76-.13,1.906,4.722,3.575,5.565C87.81,333.018,94.691,330.3,94.8,344.258Z" transform="translate(-57.126 -324.333)" fill="#4c5dd3" opacity="0.92"/>
            <path id="Path_20719" data-name="Path 20719" d="M92.073,351.208a.4.4,0,0,1-.349-.2c-.107-.188-11.02-18.772-31.292-21.917a.4.4,0,0,1-.336-.459.4.4,0,0,1,.46-.336c20.662,3.2,31.757,22.12,31.866,22.31a.4.4,0,0,1-.148.55A.406.406,0,0,1,92.073,351.208Z" transform="translate(-57.324 -324.598)" fill="#fff"/>
            <path id="Path_20720" data-name="Path 20720" d="M80.488,337.132a.4.4,0,0,1-.347-.2,13.032,13.032,0,0,1-1.34-10.387.4.4,0,0,1,.759.271,12.452,12.452,0,0,0,1.276,9.71.4.4,0,0,1-.144.551A.391.391,0,0,1,80.488,337.132Z" transform="translate(-58.539 -324.463)" fill="#fff"/>
            <path id="Path_20721" data-name="Path 20721" d="M71.032,345.11a.4.4,0,0,1-.3-.132.4.4,0,0,1,.025-.569c6.591-6.017,12.09-4.782,12.32-4.727a.4.4,0,0,1-.188.783c-.054-.012-5.335-1.171-11.59,4.539A.4.4,0,0,1,71.032,345.11Z" transform="translate(-58.028 -325.35)" fill="#fff"/>
          </g>
        </g>
      </g>
      <g id="Device" transform="translate(30.494)">
        <g id="Group_1154" data-name="Group 1154">
          <g id="Group_1149" data-name="Group 1149">
            <path id="Path_20722" data-name="Path 20722" d="M219.574,66.394Z" transform="translate(-98.024 -56.405)" fill="#37474f"/>
            <path id="Path_20723" data-name="Path 20723" d="M97.054,131.1a15.486,15.486,0,0,1,7.743-13.411l98.468-56.85a5.071,5.071,0,0,1,7.366,2.856,8.779,8.779,0,0,0-4.051-5.571l-.351-.209a15.83,15.83,0,0,0-8.1-2.229v0a5.02,5.02,0,0,0-2.6.686L97.063,113.227a15.485,15.485,0,0,0-7.743,13.411V339.584a5.071,5.071,0,0,0,7.606,4.392l.128-.074Z" transform="translate(-89.32 -55.69)" fill="#37474f"/>
          </g>
          <path id="Path_20724" data-name="Path 20724" d="M203.682,291.911l-98.468,56.85a5.071,5.071,0,0,1-7.606-4.392V131.425a15.486,15.486,0,0,1,7.743-13.411l98.468-56.85a5.071,5.071,0,0,1,7.605,4.392V278.5A15.482,15.482,0,0,1,203.682,291.911Z" transform="translate(-89.874 -56.01)" fill="#455a64"/>
          <path id="Path_20725" data-name="Path 20725" d="M97.054,348.634V135.687a15.473,15.473,0,0,1,1.53-6.7l-7.614-4.715a15.465,15.465,0,0,0-1.651,6.95V345.945a4.878,4.878,0,0,0,2.382,4.191l3.926,2.338a8.786,8.786,0,0,0,4.5,1.237h1.938v0A5.074,5.074,0,0,1,97.054,348.634Z" transform="translate(-89.32 -60.273)" fill="#263238"/>
          <g id="Group_1152" data-name="Group 1152" transform="translate(14.11 25.621)">
            <path id="Path_20726" data-name="Path 20726" d="M200.775,83.146V262.129a13.673,13.673,0,0,1-6.837,11.842l-86.953,50.2a4.435,4.435,0,0,1-2.157.6,4.485,4.485,0,0,0,6.353,2.094l86.953-50.2a13.674,13.674,0,0,0,6.837-11.842V87.612A4.474,4.474,0,0,0,200.775,83.146Z" transform="translate(-104.466 -83.146)" fill="#4c5dd3"/>
            <g id="Group_1150" data-name="Group 1150">
              <path id="Path_20727" data-name="Path 20727" d="M104.8,324.772a4.435,4.435,0,0,0,2.157-.6l86.953-50.2a13.674,13.674,0,0,0,6.837-11.842V83.146a5.888,5.888,0,0,0-2.52.589l-86.953,50.2a13.674,13.674,0,0,0-6.837,11.842v177.21a4.47,4.47,0,0,0,.375,1.807C104.811,324.788,104.807,324.781,104.8,324.772Z" transform="translate(-104.44 -83.146)" fill="#4c5dd3"/>
            </g>
            <g id="Group_1151" data-name="Group 1151" opacity="0.5">
              <path id="Path_20728" data-name="Path 20728" d="M104.8,324.772a4.435,4.435,0,0,0,2.157-.6l86.953-50.2a13.674,13.674,0,0,0,6.837-11.842V83.146a5.888,5.888,0,0,0-2.52.589l-86.953,50.2a13.674,13.674,0,0,0-6.837,11.842v177.21a4.47,4.47,0,0,0,.375,1.807C104.811,324.788,104.807,324.781,104.8,324.772Z" transform="translate(-104.44 -83.146)" fill="#4c5dd3"/>
            </g>
          </g>
          <g id="Group_1153" data-name="Group 1153" transform="translate(47.73 31.272)">
            <path id="Path_20729" data-name="Path 20729" d="M143.6,109.383a3.46,3.46,0,0,1-1.566,2.712c-.865.5-1.566.094-1.566-.9a3.46,3.46,0,0,1,1.566-2.712C142.9,107.979,143.6,108.384,143.6,109.383Z" transform="translate(-140.468 -90.475)" fill="#263238"/>
            <path id="Path_20730" data-name="Path 20730" d="M149.842,105.779a3.46,3.46,0,0,1-1.566,2.712c-.865.5-1.566.094-1.566-.9a3.46,3.46,0,0,1,1.566-2.712C149.14,104.375,149.842,104.78,149.842,105.779Z" transform="translate(-140.885 -90.235)" fill="#263238"/>
            <path id="Path_20731" data-name="Path 20731" d="M173.808,92.979l-18.939,10.935c-.749.432-1.356-.027-1.356-1.026h0a3.248,3.248,0,0,1,1.356-2.591l18.939-10.934c.749-.432,1.356.026,1.356,1.025h0A3.248,3.248,0,0,1,173.808,92.979Z" transform="translate(-141.34 -89.202)" fill="#263238"/>
          </g>
          <path id="Path_20732" data-name="Path 20732" d="M170.741,315.627h0c1.131,0,1.863,1.2,1.863,3.056,0,2.918-1.825,6.436-3.986,7.684l-9.058,5.23a2.748,2.748,0,0,1-1.349.421c-1.131,0-1.863-1.2-1.863-3.056,0-2.918,1.825-6.436,3.986-7.684l9.058-5.23a2.743,2.743,0,0,1,1.349-.422m0-.774a3.51,3.51,0,0,0-1.736.524l-9.058,5.23c-2.415,1.394-4.372,5.134-4.372,8.354,0,2.4,1.085,3.83,2.636,3.83a3.51,3.51,0,0,0,1.736-.524l9.058-5.23c2.415-1.394,4.372-5.134,4.372-8.354,0-2.4-1.085-3.83-2.636-3.83Z" transform="translate(-93.747 -73.007)" fill="#263238"/>
        </g>
      </g>
      <g id="Screen" transform="translate(56.964 30.204)">
        <g id="Group_1170" data-name="Group 1170">
          <g id="Group_1159" data-name="Group 1159">
            <g id="Group_1157" data-name="Group 1157">
              <g id="Group_1155" data-name="Group 1155" transform="translate(0 61.804)">
                <path id="Path_20733" data-name="Path 20733" d="M118.185,163.123V363.745c0,3.634,1.335,6.075,3.376,6.877l.057.019.009.009,8.67,4.75-.048-7.716-.963-208.033-9.156-4.683A19.778,19.778,0,0,0,118.185,163.123Z" transform="translate(-117.718 -154.333)" fill="#e6e6e6"/>
                <path id="Path_20734" data-name="Path 20734" d="M130.736,376.145,121.351,371c-2.325-.96-3.666-3.673-3.666-7.3V163.078a20.3,20.3,0,0,1,1.99-8.352l.205-.439,9.839,5.033v.284l.963,208.033Zm-8.917-5.949,7.974,4.369-.043-6.923-.962-207.749-8.467-4.331a19.151,19.151,0,0,0-1.7,7.517V363.7c0,3.276,1.152,5.685,3.08,6.443l.119.056Z" transform="translate(-117.685 -154.287)" fill="#e6e6e6"/>
              </g>
              <g id="Group_1156" data-name="Group 1156" transform="translate(1.946)">
                <path id="Path_20735" data-name="Path 20735" d="M120.27,150.53l9.156,4.683,97.99-57.007,6.543-3.806-9.042-5.093-.258-.152v-.009c-1.44-.868-3.329-.811-5.408.391L126.5,143.091A16.721,16.721,0,0,0,120.27,150.53Z" transform="translate(-119.804 -88.091)" fill="#e0e0e0"/>
                <path id="Path_20736" data-name="Path 20736" d="M129.393,155.647a.458.458,0,0,1-.212-.051l-9.156-4.683a.467.467,0,0,1-.211-.612,17.182,17.182,0,0,1,6.417-7.647L218.987,89.1c2.146-1.24,4.236-1.379,5.882-.386a.459.459,0,0,1,.068.05l.186.111,9.033,5.088a.466.466,0,0,1,.006.81L129.627,155.585A.473.473,0,0,1,129.393,155.647Zm-8.539-5.358,8.525,4.361L232.987,94.375l-8.6-4.852a.477.477,0,0,1-.07-.05c-1.333-.764-3.056-.61-4.867.435L126.7,143.462A15.965,15.965,0,0,0,120.854,150.289Z" transform="translate(-119.771 -88.057)" fill="#e0e0e0"/>
              </g>
              <path id="Path_20737" data-name="Path 20737" d="M127.813,164.093V363.808c0,3.148,1,5.408,2.6,6.467l.524.286a5.353,5.353,0,0,0,5.036-.581l44.837-25.885,47.918-28.842a17.4,17.4,0,0,0,8.174-14.432V101.115c0-3.042-.935-5.245-2.442-6.352a3.588,3.588,0,0,0-.83-.468,5.454,5.454,0,0,0-4.9.649L135.977,149.4a13.921,13.921,0,0,0-6.047,6.174A19.853,19.853,0,0,0,127.813,164.093Z" transform="translate(-118.362 -88.452)" fill="#fafafa"/>
            </g>
            <g id="Group_1158" data-name="Group 1158" transform="translate(9.267 5.169)">
              <path id="Path_20738" data-name="Path 20738" d="M228.752,315.254c-19.086,11.386-68.739,41.02-93.318,55.824a4.825,4.825,0,0,1-7.314-4.139V161.577a13.4,13.4,0,0,1,6.622-11.557L229.2,94.662a4.829,4.829,0,0,1,7.27,4.166V301.663A15.822,15.822,0,0,1,228.752,315.254Z" transform="translate(-127.649 -93.623)" fill="#fafafa"/>
              <path id="Path_20739" data-name="Path 20739" d="M228.483,314.824q-22.476,13.408-44.941,26.835-13.3,7.949-26.592,15.911-6.074,3.638-12.143,7.282l-5.309,3.19c-1.633.982-3.373,2.38-5.177,3.007a4.423,4.423,0,0,1-5.77-4.311c-.013-.477,0-.956,0-1.432V177.02c0-5.015-.011-10.03,0-15.045a13.328,13.328,0,0,1,6.659-11.735c2.165-1.279,4.339-2.543,6.51-3.815l30.516-17.884,36.158-21.191c6.858-4.019,13.7-8.069,20.575-12.059,2.13-1.236,4.811-1.114,6.291,1.115a5.126,5.126,0,0,1,.708,2.948c.006,1.79,0,3.579,0,5.369V300.854a15.875,15.875,0,0,1-7.485,13.97c-.51.314-.043,1.122.471.805a16.765,16.765,0,0,0,7.947-14.648V113.672c0-4.877.052-9.755,0-14.632a5.378,5.378,0,0,0-8.285-4.625c-2.274,1.311-4.53,2.655-6.794,3.982l-31.356,18.376-36.485,21.382c-6.451,3.781-12.924,7.529-19.355,11.343a14.211,14.211,0,0,0-7.007,12.419c0,1.68,0,3.359,0,5.038V365.933c0,.321-.01.643,0,.964a5.356,5.356,0,0,0,6.95,5.047,27.642,27.642,0,0,0,5.011-2.867q2.706-1.628,5.413-3.253,6.051-3.632,12.106-7.26Q183.572,342.7,210.072,326.9q9.44-5.635,18.882-11.268A.466.466,0,0,0,228.483,314.824Z" transform="translate(-127.615 -93.596)" fill="#ebebeb"/>
            </g>
            <path id="Path_20740" data-name="Path 20740" d="M134.742,150.02,229.2,94.662a4.828,4.828,0,0,1,7.269,4.166v8.91l-.028,0L128.12,170.278v-8.7A13.4,13.4,0,0,1,134.742,150.02Z" transform="translate(-118.382 -88.454)" fill="#ebebeb"/>
          </g>
          <g id="Group_1163" data-name="Group 1163" transform="translate(29.218 60.049)">
            <ellipse id="Ellipse_27418" data-name="Ellipse 27418" cx="34.69" cy="20.028" rx="34.69" ry="20.028" transform="matrix(0.5, -0.866, 0.866, 0.5, 0, 60.083)" fill="#ba68c8"/>
            <path id="Path_20779" data-name="Path 20779" d="M34.69,0C53.849,0,69.38,8.967,69.38,20.028S53.849,40.056,34.69,40.056,0,31.089,0,20.028,15.531,0,34.69,0Z" transform="matrix(0.5, -0.866, 0.866, 0.5, 0, 60.083)" fill="#1f2f6a" opacity="0.85"/>
            <g id="Group_1162" data-name="Group 1162" transform="translate(24.855 22.479)">
              <path id="Path_20741" data-name="Path 20741" d="M181.379,194.177a1.1,1.1,0,0,1-1.1-1.1v-7.254a10.8,10.8,0,0,1,4.951-8.575,3.759,3.759,0,0,1,6.052,3.494v7.254a1.1,1.1,0,0,1-2.2,0v-7.254a1.626,1.626,0,0,0-2.748-1.587,8.652,8.652,0,0,0-3.849,6.668v7.254A1.1,1.1,0,0,1,181.379,194.177Z" transform="translate(-175.94 -176.494)" fill="#f5fcff"/>
              <g id="Group_1160" data-name="Group 1160" transform="translate(0 6.698)">
                <path id="Path_20742" data-name="Path 20742" d="M194.36,183.8a1.64,1.64,0,0,0-1.555.174l-14.672,8.471a4.669,4.669,0,0,0-1.555,1.623,6.308,6.308,0,0,0-.949,3.163v12.7a2.354,2.354,0,0,0,.731,1.934,1.254,1.254,0,0,0,.257.147h0a1.659,1.659,0,0,0,1.517-.188l14.672-8.47a6,6,0,0,0,2.5-4.785v-12.7A2.145,2.145,0,0,0,194.36,183.8Z" transform="translate(-175.629 -183.673)" fill="#f5fcff"/>
              </g>
              <g id="Group_1161" data-name="Group 1161" transform="translate(7.95 14.851)">
                <path id="Path_20743" data-name="Path 20743" d="M187.706,197.618l1.414,4.067-4.971,2.87,1.245-5.022.175-.711c-.84.024-1.42-.625-1.42-1.768a4.389,4.389,0,0,1,.232-1.354,5.514,5.514,0,0,1,2.254-2.95c1.373-.792,2.486-.152,2.486,1.435A5.51,5.51,0,0,1,187.7,197.6Z" transform="translate(-184.148 -192.409)" fill="#1f2f6a"/>
                <path id="Path_20744" data-name="Path 20744" d="M185.393,199.768l.175-.711c-.84.024-1.42-.625-1.42-1.768a4.39,4.39,0,0,1,.232-1.354l3.325,1.92,1.414,4.067Z" transform="translate(-184.148 -192.645)" fill="#1f2f6a"/>
              </g>
            </g>
          </g>
          <g id="Group_1168" data-name="Group 1168" transform="translate(22.309 121.002)">
            <path id="Path_20745" data-name="Path 20745" d="M219.377,243.79l-72.365,41.781c-2.994,1.728-5.421-.106-5.421-4.1V270.51c0-3.991,2.427-8.628,5.421-10.356l72.366-41.78c2.994-1.728,5.421.106,5.421,4.1v10.963C224.8,237.424,222.371,242.061,219.377,243.79Z" transform="translate(-141.591 -217.723)" fill="#4c5dd3"/>
            <g id="Group_1167" data-name="Group 1167" transform="translate(12.379 14.74)">
              <g id="Group_1164" data-name="Group 1164" transform="translate(0 26.006)">
                <rect id="Rectangle_116" data-name="Rectangle 116" width="1.4" height="11.603" transform="translate(4.665 0.696)" fill="#fafafa"/>
                <rect id="Rectangle_117" data-name="Rectangle 117" width="11.604" height="1.4" transform="matrix(0.866, -0.5, 0.5, 0.866, 0, 8.792)" fill="#fafafa"/>
                <rect id="Rectangle_118" data-name="Rectangle 118" width="1.4" height="8.205" transform="matrix(0.5, -0.866, 0.866, 0.5, 1.454, 5.06)" fill="#fafafa"/>
                <rect id="Rectangle_119" data-name="Rectangle 119" width="14.211" height="1.4" transform="matrix(0.5, -0.866, 0.866, 0.5, 1.213, 12.307)" fill="#fafafa"/>
              </g>
              <g id="Group_1165" data-name="Group 1165" transform="translate(23.86 13.009)">
                <rect id="Rectangle_120" data-name="Rectangle 120" width="1.4" height="11.604" transform="translate(4.665 0.696)" fill="#fafafa"/>
                <rect id="Rectangle_121" data-name="Rectangle 121" width="11.603" height="1.4" transform="matrix(0.866, -0.5, 0.5, 0.866, 0, 8.792)" fill="#fafafa"/>
                <rect id="Rectangle_122" data-name="Rectangle 122" width="1.4" height="8.205" transform="matrix(0.5, -0.866, 0.866, 0.5, 1.456, 5.062)" fill="#fafafa"/>
                <rect id="Rectangle_123" data-name="Rectangle 123" width="14.211" height="1.4" transform="matrix(0.5, -0.866, 0.866, 0.5, 1.214, 12.307)" fill="#fafafa"/>
              </g>
              <g id="Group_1166" data-name="Group 1166" transform="translate(47.701)">
                <rect id="Rectangle_124" data-name="Rectangle 124" width="1.4" height="11.603" transform="translate(4.684 0.71)" fill="#fafafa"/>
                <rect id="Rectangle_125" data-name="Rectangle 125" width="11.604" height="1.4" transform="matrix(0.866, -0.5, 0.5, 0.866, 0, 8.814)" fill="#fafafa"/>
                <rect id="Rectangle_126" data-name="Rectangle 126" width="1.4" height="8.205" transform="matrix(0.5, -0.866, 0.866, 0.5, 1.477, 5.075)" fill="#fafafa"/>
                <rect id="Rectangle_127" data-name="Rectangle 127" width="14.211" height="1.4" transform="matrix(0.5, -0.866, 0.866, 0.5, 1.217, 12.307)" fill="#fafafa"/>
              </g>
            </g>
          </g>
          <g id="Group_1169" data-name="Group 1169" transform="translate(22.309 160.307)">
            <path id="Path_20746" data-name="Path 20746" d="M221.53,261.709c.969,0,1.4,1.447,1.4,2.882v10.963c0,3.333-2.055,7.337-4.488,8.74l-72.365,41.78a2.565,2.565,0,0,1-1.219.4c-.969,0-1.4-1.447-1.4-2.882V312.63c0-3.333,2.055-7.337,4.488-8.74l72.366-41.78a2.553,2.553,0,0,1,1.218-.4m0-1.866a4.344,4.344,0,0,0-2.152.65l-72.365,41.78c-2.994,1.728-5.421,6.365-5.421,10.356v10.963c0,2.972,1.345,4.748,3.268,4.748a4.344,4.344,0,0,0,2.152-.65l72.366-41.78c2.994-1.728,5.421-6.365,5.421-10.356V264.591c0-2.972-1.346-4.748-3.269-4.748Z" transform="translate(-141.591 -259.843)" fill="#4c5dd3"/>
          </g>
        </g>
      </g>
      <g id="Icons" transform="translate(206.306 57.173)">
        <g id="Group_1171" data-name="Group 1171" transform="translate(0 26.877)">
          <path id="Path_20747" data-name="Path 20747" d="M341.391,128.2a4.662,4.662,0,0,0,2.157,3.666c1.191.675,2.157.128,2.157-1.222a4.662,4.662,0,0,0-2.157-3.666C342.357,126.3,341.391,126.851,341.391,128.2Z" transform="translate(-297.459 -119.848)" fill="#455a64"/>
          <path id="Path_20748" data-name="Path 20748" d="M309.526,136.4a11.04,11.04,0,0,1-5.362-1.607l-6.842-3.876a.466.466,0,1,1,.459-.812l6.842,3.876c2.951,1.672,5.692,1.941,7.719.76,1.983-1.156,3.076-3.594,3.076-6.864,0-3.616,1.257-6.341,3.54-7.671,2.326-1.356,5.4-1.087,8.648.754l11.057,6.264a.467.467,0,0,1-.46.813l-11.057-6.264c-2.951-1.671-5.691-1.941-7.718-.76-1.984,1.156-3.077,3.594-3.077,6.864,0,3.616-1.257,6.34-3.54,7.67A6.445,6.445,0,0,1,309.526,136.4Z" transform="translate(-294.498 -119.358)" fill="#455a64"/>
          <path id="Path_20749" data-name="Path 20749" d="M294.313,129.419a3.771,3.771,0,0,0,1.744,2.965c.963.546,1.744.1,1.744-.988a3.769,3.769,0,0,0-1.744-2.964C295.094,127.885,294.313,128.328,294.313,129.419Z" transform="translate(-294.313 -119.949)" fill="#455a64"/>
        </g>
        <g id="Group_1172" data-name="Group 1172" transform="translate(0 65.018)">
          <path id="Path_20750" data-name="Path 20750" d="M341.391,215.609a4.662,4.662,0,0,0,2.157,3.666c1.191.675,2.157.128,2.157-1.222a4.662,4.662,0,0,0-2.157-3.666C342.357,213.712,341.391,214.259,341.391,215.609Z" transform="translate(-297.459 -163.831)" fill="#455a64"/>
          <path id="Path_20751" data-name="Path 20751" d="M338.513,213.217a.462.462,0,0,1-.23-.061l-11.057-6.264c-6.467-3.665-11.726-12.608-11.726-19.938,0-7.03-5.048-15.61-11.254-19.126l-6.925-3.924a.467.467,0,0,1,.459-.813l6.925,3.924c6.467,3.665,11.727,12.608,11.727,19.938,0,7.03,5.048,15.609,11.253,19.126l11.057,6.264a.467.467,0,0,1-.23.873Z" transform="translate(-294.498 -160.418)" fill="#455a64"/>
          <path id="Path_20752" data-name="Path 20752" d="M294.313,161.453a3.772,3.772,0,0,0,1.744,2.965c.963.546,1.744.1,1.744-.988a3.771,3.771,0,0,0-1.744-2.965C295.094,159.919,294.313,160.362,294.313,161.453Z" transform="translate(-294.313 -160.231)" fill="#455a64"/>
        </g>
        <g id="Group_1175" data-name="Group 1175" transform="translate(56.209)">
          <g id="Group_1173" data-name="Group 1173">
            <path id="Path_20753" data-name="Path 20753" d="M408.8,116.991,363.094,91.1a2.787,2.787,0,0,0-3.32-.007l-3.949,2.73,2.693,3.33v48.175c0,3.37,2.048,7.284,4.576,8.744l44.571,25.232.21,3.588,4.161-2.852a4.3,4.3,0,0,0,1.34-3.54V125.734C413.376,122.365,411.328,118.451,408.8,116.991Z" transform="translate(-354.632 -90.557)" fill="#ba68c8"/>
            <path id="Path_20754" data-name="Path 20754" d="M408.8,116.991,363.094,91.1a2.787,2.787,0,0,0-3.32-.007l-3.949,2.73,2.693,3.33v48.175c0,3.37,2.048,7.284,4.576,8.744l44.571,25.232.21,3.588,4.161-2.852a4.3,4.3,0,0,0,1.34-3.54V125.734C413.376,122.365,411.328,118.451,408.8,116.991Z" transform="translate(-354.632 -90.557)" fill="#1f2f6a"/>
            <path id="Path_20755" data-name="Path 20755" d="M404.83,182.831l-45.706-25.887c-2.527-1.459-4.576-5.374-4.576-8.744V97.429c0-3.37,2.049-4.919,4.576-3.459l45.706,25.887c2.527,1.459,4.576,5.374,4.576,8.744v50.771C409.406,182.741,407.357,184.29,404.83,182.831Z" transform="translate(-354.547 -90.749)" fill="#4c5dd3"/>
          </g>
          <g id="Group_1174" data-name="Group 1174" transform="translate(12.614 26.382)">
            <path id="Path_20756" data-name="Path 20756" d="M397.78,141.348a.467.467,0,0,1-.451-.346,37.325,37.325,0,0,0-4.476-10.19.466.466,0,1,1,.787-.5,38.278,38.278,0,0,1,4.589,10.449.466.466,0,0,1-.328.571A.459.459,0,0,1,397.78,141.348Z" transform="translate(-369.716 -119.581)" fill="#fff"/>
            <path id="Path_20757" data-name="Path 20757" d="M399.2,151.789h-.032a.467.467,0,0,1-.435-.5c.033-.5.05-1.02.05-1.553a28.211,28.211,0,0,0-.421-4.764.467.467,0,0,1,.92-.158,29.191,29.191,0,0,1,.434,4.921q0,.83-.052,1.613A.467.467,0,0,1,399.2,151.789Z" transform="translate(-370.088 -120.539)" fill="#fff"/>
            <path id="Path_20758" data-name="Path 20758" d="M368.634,134.756a.466.466,0,0,1-.464-.426c-.071-.809-.106-1.616-.106-2.4,0-4.527,1.221-8.266,3.436-10.53a.467.467,0,0,1,.667.652c-2.044,2.088-3.169,5.6-3.169,9.877,0,.756.035,1.535.1,2.318a.467.467,0,0,1-.424.506A.23.23,0,0,1,368.634,134.756Z" transform="translate(-368.064 -118.991)" fill="#fff"/>
            <path id="Path_20759" data-name="Path 20759" d="M389.665,127.045a.465.465,0,0,1-.361-.172,22.738,22.738,0,0,0-6.26-5.486c-3.1-1.756-6.009-2.094-8.409-.979a.467.467,0,0,1-.394-.847c2.686-1.247,5.887-.9,9.262,1.013a23.637,23.637,0,0,1,6.522,5.707.468.468,0,0,1-.065.657A.459.459,0,0,1,389.665,127.045Z" transform="translate(-368.459 -118.828)" fill="#fff"/>
            <path id="Path_20760" data-name="Path 20760" d="M372.087,135.439a.467.467,0,0,1-.467-.447c-.012-.29-.018-.578-.018-.864,0-3.315.812-6.02,2.348-7.822a.467.467,0,0,1,.711.606c-1.39,1.631-2.125,4.127-2.125,7.216q0,.41.018.825a.466.466,0,0,1-.447.485Z" transform="translate(-368.3 -119.317)" fill="#fff"/>
            <path id="Path_20761" data-name="Path 20761" d="M376.012,125.681a.467.467,0,0,1-.244-.864,6.226,6.226,0,0,1,3.961-.863.467.467,0,1,1-.091.929,5.3,5.3,0,0,0-3.382.73A.462.462,0,0,1,376.012,125.681Z" transform="translate(-368.564 -119.168)" fill="#fff"/>
            <path id="Path_20762" data-name="Path 20762" d="M397.156,156.514a.468.468,0,0,1-.433-.292l-.547-1.353a22.241,22.241,0,0,1-1.69-8.246c0-7.913-4.849-17.072-10.808-20.449a.467.467,0,0,1,.46-.812c6.221,3.525,11.282,13.047,11.282,21.227a21.338,21.338,0,0,0,1.623,7.93l.547,1.353a.467.467,0,0,1-.258.607A.476.476,0,0,1,397.156,156.514Z" transform="translate(-369.092 -119.261)" fill="#fff"/>
            <path id="Path_20763" data-name="Path 20763" d="M374.942,151.968a.466.466,0,0,1-.439-.306,57.956,57.956,0,0,1-2.9-13.631.468.468,0,0,1,.432-.5.486.486,0,0,1,.5.431,56.931,56.931,0,0,0,2.845,13.377.467.467,0,0,1-.278.6A.443.443,0,0,1,374.942,151.968Z" transform="translate(-368.3 -120.078)" fill="#fff"/>
            <path id="Path_20764" data-name="Path 20764" d="M393.9,159.883a.466.466,0,0,1-.438-.3l-1.244-3.352a30.067,30.067,0,0,1-2.007-10.258V142.3a15.085,15.085,0,0,0-6.97-11.844c-1.8-1.017-3.452-1.187-4.667-.478-1.19.692-1.844,2.168-1.844,4.155v3.239a43.763,43.763,0,0,0,3.121,15.391l1.541,4.015a.467.467,0,1,1-.872.334l-1.541-4.015a44.728,44.728,0,0,1-3.183-15.726v-3.239c0-2.333.819-4.095,2.307-4.962,1.516-.884,3.5-.714,5.6.472,4.1,2.325,7.444,8,7.444,12.657v3.669a29.136,29.136,0,0,0,1.949,9.934l1.244,3.352a.467.467,0,0,1-.275.6A.473.473,0,0,1,393.9,159.883Z" transform="translate(-368.581 -119.482)" fill="#fff"/>
            <path id="Path_20765" data-name="Path 20765" d="M390.007,161.556a.466.466,0,0,1-.447-.334l-.65-2.195a42.189,42.189,0,0,1-1.862-11.925v-5.677a8.109,8.109,0,0,0-3.748-6.366,2.394,2.394,0,0,0-2.372-.265,2.31,2.31,0,0,0-.915,2.116c0,6.3,1.92,13.572,5.4,20.473l1.311,2.6a.467.467,0,0,1-.833.421l-1.311-2.6c-3.55-7.03-5.5-14.449-5.5-20.895a3.18,3.18,0,0,1,1.379-2.923,3.268,3.268,0,0,1,3.3.259,9.14,9.14,0,0,1,4.221,7.178V147.1a41.246,41.246,0,0,0,1.823,11.66l.65,2.195a.467.467,0,0,1-.314.58A.444.444,0,0,1,390.007,161.556Z" transform="translate(-368.8 -119.818)" fill="#fff"/>
            <path id="Path_20766" data-name="Path 20766" d="M385.075,152a.466.466,0,0,1-.455-.369l-.429-2a27.9,27.9,0,0,1-.62-5.837v-5.259a.467.467,0,0,1,.933,0V143.8a26.842,26.842,0,0,0,.6,5.641l.429,2a.466.466,0,0,1-.458.565Z" transform="translate(-369.1 -120.114)" fill="#fff"/>
            <path id="Path_20767" data-name="Path 20767" d="M369.707,141.892a.465.465,0,0,1-.463-.421l-.272-2.73a.467.467,0,0,1,.417-.51.46.46,0,0,1,.51.418l.272,2.73a.467.467,0,0,1-.417.51Z" transform="translate(-368.125 -120.124)" fill="#fff"/>
          </g>
        </g>
        <g id="Group_1180" data-name="Group 1180" transform="translate(56.209 86.461)">
          <g id="Group_1176" data-name="Group 1176">
            <path id="Path_20768" data-name="Path 20768" d="M408.8,209.643l-45.706-25.887a2.787,2.787,0,0,0-3.32-.007l-3.949,2.73,2.693,3.33v48.176c0,3.37,2.048,7.284,4.576,8.744l44.571,25.232.21,3.588,4.161-2.852a4.3,4.3,0,0,0,1.34-3.54V218.387C413.376,215.016,411.328,211.1,408.8,209.643Z" transform="translate(-354.632 -183.209)" fill="#ba68c8"/>
            <path id="Path_20769" data-name="Path 20769" d="M408.8,209.643l-45.706-25.887a2.787,2.787,0,0,0-3.32-.007l-3.949,2.73,2.693,3.33v48.176c0,3.37,2.048,7.284,4.576,8.744l44.571,25.232.21,3.588,4.161-2.852a4.3,4.3,0,0,0,1.34-3.54V218.387C413.376,215.016,411.328,211.1,408.8,209.643Z" transform="translate(-354.632 -183.209)" fill="#1f2f6a"/>
            <path id="Path_20770" data-name="Path 20770" d="M404.83,275.483,359.123,249.6c-2.527-1.459-4.576-5.373-4.576-8.744V190.081c0-3.37,2.049-4.919,4.576-3.459l45.706,25.887c2.527,1.46,4.576,5.374,4.576,8.744v50.771C409.406,275.393,407.357,276.941,404.83,275.483Z" transform="translate(-354.547 -183.401)" fill="#4c5dd3"/>
          </g>
          <g id="Group_1177" data-name="Group 1177" transform="translate(9.707 15.449)">
            <path id="Path_20771" data-name="Path 20771" d="M365.416,205.162a.467.467,0,0,1-.467-.467v-3.148a1.76,1.76,0,0,1,.886-1.532,1.8,1.8,0,0,1,1.817-.011l3.3,1.869a.467.467,0,0,1-.46.813l-3.3-1.869a.882.882,0,0,0-.887.006.824.824,0,0,0-.423.726V204.7A.465.465,0,0,1,365.416,205.162Z" transform="translate(-364.949 -199.764)" fill="#fff"/>
            <path id="Path_20772" data-name="Path 20772" d="M370.722,251.255a.462.462,0,0,1-.23-.061l-3.082-1.747a4.828,4.828,0,0,1-2.461-4.186v-2.9a.467.467,0,1,1,.933,0v2.9a3.894,3.894,0,0,0,1.987,3.374l3.082,1.747a.467.467,0,0,1-.23.873Z" transform="translate(-364.949 -202.579)" fill="#fff"/>
            <path id="Path_20773" data-name="Path 20773" d="M400.68,268.245a1.812,1.812,0,0,1-.9-.24l-3.3-1.869a.467.467,0,0,1,.459-.813l3.3,1.869a.882.882,0,0,0,.887-.006.823.823,0,0,0,.423-.725v-3.148a.467.467,0,1,1,.933,0v3.148a1.757,1.757,0,0,1-.886,1.531A1.811,1.811,0,0,1,400.68,268.245Z" transform="translate(-367.04 -203.979)" fill="#fff"/>
            <path id="Path_20774" data-name="Path 20774" d="M402.018,225.832a.467.467,0,0,1-.467-.467v-2.9a3.894,3.894,0,0,0-1.987-3.374l-3.082-1.747a.467.467,0,0,1,.459-.813l3.082,1.747a4.828,4.828,0,0,1,2.461,4.186v2.9A.466.466,0,0,1,402.018,225.832Z" transform="translate(-367.04 -200.88)" fill="#fff"/>
          </g>
          <g id="Group_1178" data-name="Group 1178" transform="translate(14.311 26.72)">
            <path id="Path_20775" data-name="Path 20775" d="M369.884,221.667a64.485,64.485,0,0,0,2.252,15.681c3.554,13.374,17.537,21.6,21.381,12.539a35.628,35.628,0,0,0,2.6-14.047c0-8.212-5.874-18.2-13.121-22.3C375.612,209.352,369.777,213.237,369.884,221.667Z" transform="translate(-369.882 -211.842)" fill="#fff"/>
          </g>
          <g id="Group_1179" data-name="Group 1179" transform="translate(19.857 37.887)">
            <path id="Path_20777" data-name="Path 20777" d="M375.826,224.691a2.723,2.723,0,0,0,1.259,2.14c.7.394,1.259.075,1.259-.713a2.723,2.723,0,0,0-1.259-2.14C376.39,223.584,375.826,223.9,375.826,224.691Z" transform="translate(-375.826 -223.809)" fill="#e0e0e0"/>
            <path id="Path_20778" data-name="Path 20778" d="M388.355,231.865a2.723,2.723,0,0,0,1.259,2.14c.7.394,1.259.075,1.259-.713a2.723,2.723,0,0,0-1.259-2.14C388.918,230.758,388.355,231.077,388.355,231.865Z" transform="translate(-376.663 -224.289)" fill="#e0e0e0"/>
          </g>
        </g>
      </g>
    </g>
  </g>
</svg>
