<svg xmlns="http://www.w3.org/2000/svg" width="564" height="308.911" viewBox="0 0 564 308.911">
  <g id="Group_1209" data-name="Group 1209" transform="translate(12696 -378.796)">
    <g id="_24373234_sl_033020_29450_30" data-name="24373234_sl_033020_29450_30" transform="translate(-12696 378.796)">
      <path id="Path_20795" data-name="Path 20795" d="M283.7,369.688c1.119,0,1.257.406,2.217,0s3.791-2.273,4.751-2.53,1.574.085.161.872-4.251,2.49-3.745,2.361a35.516,35.516,0,0,0,3.973-1.7c2.032-.958,1.847-.532,2.371-1.552l.8-1.554s3.218,3.3,3.516,3.425.414-.022.572-.426.5-.98.96-.787.066.978.339,1.084.731-.02,1.576-.3.412-.892.412-.892-.09-.024.892-.108,4.064,1.042,4.978,1.4,3.679.66,4.456.913,1.07-.446,2.147.128,1.873,1.339,1.072,1.743-2.809.7-1.781.958a15.7,15.7,0,0,0,4.066.532c1.484-.044,4.154-.594,4.975-.594s1.325.51,2.1,1.807,1.391,1.807,1.688,1.914-.3-.616-.138-1.255a4.987,4.987,0,0,0-.341-2.317c-.181-.426,0-.638-.365-1.257s-.958-.51.138-1.04,1.849-1.317,3.174-1.148,1.689,1.851,2.831,1.976,1.349.574,3.311.725,1.143.022,3.335.171,1.393-.237,1.849-1.361.96-1.341,1.484-1.3,2.373.3,2.373.532-.775,1.444-.388,2.04a9.129,9.129,0,0,0,1.968,1.574s-.344-1.361-.344-1.51-.115-1.211.114-1.4,1.53.106,2.351-1.49-.55-1.51-.55-1.51-.5.024-.251-.636,1.713-1.062,1.713-1.062.093.3-.092-.237-1.138-.423-2.169-.488-1.733-.211-1.917-1.084a25.264,25.264,0,0,1-.251-3.956c0-1.255,1.006-.809,1.187-1.51a18.177,18.177,0,0,0-.3-4.827c-.253-.7.364-2.213.5-3.211s1.163-.554,1.163-.554c-.183-.341.3-1.3,1.666-1.7a12.062,12.062,0,0,1,3.976.02s-.231.022-.869.851-.227,2.3-1.188,3.34-3.4.7-3.4.7.753,1.723.434,2.273a6.817,6.817,0,0,0-.524,1.683s2.146.594,2.261,1.955,1.185,1.594,1.437,2.849-1.05,2.3-.777,2.488.365.277,1.145.319,1.825.191,1.825.191a1.311,1.311,0,0,0-.046,1.319c.389.681.092,1.106.137,1.829s.48,1.34.661,1.213a10.957,10.957,0,0,0,1.213-2.807c.181-.832.319-1.277.683-1.277a4.02,4.02,0,0,1,1.737,1.532c.138.4.229.958-.456,2.062s-.616,1.616-.022,2.042a8.671,8.671,0,0,0,1.689.809c1.072.51.869.466,1.53.275s-.275-1.871-.207-1.913,1.578-.213,1.237-1.064-.689-1.275.02-1.7,1.211-.765,1.211-.765a8.256,8.256,0,0,1-.889-2c-.5-1.426.431-1.04,2.4-.894s2.052.829,3.1,1.361.387.723.729,1.575-.867.978-.867.978-.8.148-.616.807a11.852,11.852,0,0,0,1.121,2.468c.57,1.022-.159,1.723-1.052,2.552a4.288,4.288,0,0,1-2.99,1.084c-1.052.02-1.508.446-1.574.148a.954.954,0,0,0-1.142-.446c-.574.127-1.875.638-1.418.807s1.667.128,1.164,1.064-.938.936-1.942.829-1.94-.106-2.582-.151l-3.791-.233a21.634,21.634,0,0,0,3.817,1.829,8.241,8.241,0,0,0,3.472.213s-.687,1.275-1.51,2.636-1.6.767-2.281.851-1.1.638-2.375.807-3.952-.361-3.542-.169.594.53,1.325.638a3.113,3.113,0,0,1,1.827.765c.638.532-.412.661-1.255.807a1.782,1.782,0,0,0-1.462.829c-.389.534-1.829,2.594-2.285,3.233a7.032,7.032,0,0,0-1.05,2.956c-.185,1.257-1.255,2.765-.775,3.084s2.281.361,3.036.829,1.6,2.765,2.169,3.636,1.028,1.532,1.666.851,1.9-.51,3.084-.084a18.083,18.083,0,0,1,4.363,2.847c.753.745,2.076.619,3.56.831s1.652.771,1.652.771,1.546.08.908.739-.823.02-.185,1.127a5.007,5.007,0,0,1,.436,3.339c-.185.745,2.046.369,2.984.922s.988,2.8,1.47,2.524,1.277-.767,1.369-1.361a11.55,11.55,0,0,0-.114-2.4,10.12,10.12,0,0,0-.845-3.636c-.5-.745.906-1.042.676-1.361s-.175-.956.785-1.213,1.028-.02,1.552-.426.616-2.3.707-2.976a7.439,7.439,0,0,0-.385-2.7,17.576,17.576,0,0,0-1.506-2.7c-.348-.384-.777-.49.161-1.681s.385-.936.249-1.3-.341-1.255-.524-2.062.388-1.7.044-2.851-.707-.892-.638-1.149,2.237-.191,3.837-.02a9.135,9.135,0,0,0,2.693-.171,5.558,5.558,0,0,1,2.171,1.022c.889.572,1.233.426,1.69,1.127s.707,1.084,1.64,1.042a5.023,5.023,0,0,1,1.946.4s-.665.384-.548,1.639a18.773,18.773,0,0,1-.116,2.678c.022.51.277.532.707.6s1.6,1.1,2.809,1.53,1.53.3,1.918-.68.482-.894.962-.956.639.106.843-.106-.366-.638-.229-1.317a4.762,4.762,0,0,1,1.349-2.086c.546-.51.936.512,1.416,1.448s2.146,3.975,2.626,4.974,1.1,1.064.524,2-.845,1.337.046,1.763,1.691,1.171,1.624,1.871-.255.723.044.916,1.369-.384,2.146-.042a7.554,7.554,0,0,1,2.261,1.211c.546.554.5.745-.275,1.02a13.61,13.61,0,0,0-1.941.787c-.389.235-1,.683-.982,1.044s-.161.956.458.488a8.236,8.236,0,0,1,2.351-1.148c.731-.211.183-.022.845-.107a6.551,6.551,0,0,1,2.217.574c.91.257.661.829.432,1.361a1.624,1.624,0,0,0-.068,1.639c.367.594-.158,1.127-.96,1.849a4.08,4.08,0,0,1-2.692,1c-1.3.171-1.921.956-2.833,1.8s-1.369.638-2.695.7-.8-.659-1.209-.51a5.569,5.569,0,0,1-1.781.683,36.667,36.667,0,0,0-4.8.446c-1.094.317-.751,1.062-1.026,1.679s-.709.361-1.53.638-1.805,1.49-2.763,3.148a10.325,10.325,0,0,1-2.261,2.678,7.176,7.176,0,0,0,2.283-1.7,34.839,34.839,0,0,1,4.271-3.315c.844-.6,2.671-1.468,3.1-1.341s1.51.958,1.51,1.383-.321.765-1.1,1.488-1.8,0-1.737.3a2,2,0,0,0,1.211,1.127c.594.149.568.873.568,1.235s-.341.829,1.028,1.978a4.169,4.169,0,0,0,3.337,1.169c1-.062.478.341.89.3s.5-.829.639-1.468a2.648,2.648,0,0,1,.731-1.51c.367-.277.638-.787.755.193a3.212,3.212,0,0,1-.94,2.614c-.522.3-.408.68-.408.978s-.594.319-2.012,1.106-1.872.978-2.123.871-.777.129-1.46.745-1.416,1.448-1.918,1.423-.938-.233-.253-.936.916-1.679,1.6-2.02a2.767,2.767,0,0,1,1.576-.3c.57,0,.3-.341.753-.679s-.343-.237-1.12-.363-.181-.809-.181-.809l-.8.426a10.151,10.151,0,0,1-1.53.682c-.317.04-.249.253-.341.381a4.705,4.705,0,0,1-1.233.213s-.595,1.211-1.486,1.381-.271.107-.913.382-.522-.317-.661-.149a4.187,4.187,0,0,1-.958.851c-.709.534-1.122.7-1.622,2.638a4.715,4.715,0,0,0,.068,2.935c-.022.3-.891-.193-1.141.04a4.062,4.062,0,0,1-1.578,1.171,8.936,8.936,0,0,0-2.58.958c-.344.361-.366.871-.526,1.614a16.209,16.209,0,0,1-1.05,2.49,1.2,1.2,0,0,0-.411-1.213c-.616-.51-.522-.978-.522-.978a3.169,3.169,0,0,0,.09,1.423,4.061,4.061,0,0,1,.48,2.233,3.784,3.784,0,0,1-1.072,2.042c-.482.277.113-.532.113-1.168s-.319-.681-.526-1a3.059,3.059,0,0,1,.159-2.214c.367-1.085-.341-.424-.753.3a2.932,2.932,0,0,0-.068,2.935c.64.872-.41.785.024,2.04s-.524,1.871-.345,2.064.687-.084.916.53-.456.341-.685.512-.116.4.022.745.412.125.3.233a2.457,2.457,0,0,1-1.028.723c-.592.191-.64-.108-1.006.319s-.637.807-1.026,1.3-.661.321-1.072.66-.57.617-1.076,1.042a12.5,12.5,0,0,0-2.259,1.913c-.616.829-.458,1.042-.755,2.383s.755,3.679,1.417,5.891.935,1.594.843,2.3a3.79,3.79,0,0,1-.87,2.042c-.476.49-.749-.341-1.411-.831s-.139-.827-.777-1.847a3.582,3.582,0,0,1-.663-2.128,9.406,9.406,0,0,0-.524-2.614c-.343-.811-1.076-1.831-2.17-1.426s-.822.213-1.415.04-2.169-.805-2.97-.381-3.331-.128-3.859,0-.916.173-.916.534-.225.422.711.679.8.532.733.936-.757-.213-1.122-.362-.707.3-1.345.3-.755-.616-1.327-.7a4.857,4.857,0,0,1-1.347-.213,4.891,4.891,0,0,0-1.918-.532c-.638.044-3.106,1.681-4.271,2.552a7.092,7.092,0,0,0-2.327,2.424c-.275.7-.3.767.639,1.809s.5.874.319,1.468-.731,1.317-1.391,2.849-.275,2.275.522,3.743a13.734,13.734,0,0,0,2.148,3.146c.641.616,1.094,1.277,1.644,1.51a2.184,2.184,0,0,1,.914.574c.251.257.182.361,1.052.128a9.954,9.954,0,0,1,2.122-.574,2.248,2.248,0,0,1,1.53.341c.341.317.387.128.387-.044a4.241,4.241,0,0,1,.366-.978,9.207,9.207,0,0,0,1.05-1.978c.136-.638.136-1.915.938-2a20.964,20.964,0,0,1,4.064-.381c1.552.1.868.871.458,1.679s-.574.894-.574,1.51.185.618-.315.98-.185-.213-.39.148a3.224,3.224,0,0,1-.845.787c.09-.085.319.614.319.955s-.068.51-.068,1.341-1.622,1.679-1.622,1.679a3.182,3.182,0,0,0,1.462.341,6.668,6.668,0,0,1,2.831.426c.913.424,2.648-.341,3.929.3s.823,1.02.912,1.617a18.433,18.433,0,0,1,.14,3.1c-.094.468-.688,1.785-1.008,2.722s.914,1.617,2.058,2.382a9.53,9.53,0,0,0,2.741,1.275c.588.17,1.686-.894,3.7-.765a3.164,3.164,0,0,1,2.693,1.829,8.658,8.658,0,0,1,1.143-2.51c.916-1.446.958-1.871,2.191-2.339s1.647-.552,3.656-1.191,1.643-.168,2.691-.084a29.2,29.2,0,0,1,5.9,1.02c2.419.723,6.122.936,7.536,1.53s2.056,2.257,3.518,3.616,3.287,2.594,4.064,3.232,5.116,1.235,6.076,1.616A4.753,4.753,0,0,1,413.526,506c.09.936,1.05,1.4,2.373,1.956s1.737,1.193,2.606,2.893.592,2.169,1.779,2.594,9.411,2.636,11.463,3.446,4.66,2.978,5.345,3.233,1.92-.215,2.468.084-.321,1.913.365,3.062.731,1.235.32,2.084-2.056,2.893-2.693,3.913a7.357,7.357,0,0,1-2.787,2.086c-.777.422-1.464,0-.777.849s.046,1.572-.548,2.339.046.679-.138,3.148,0,5.144-.275,6.208-1.869-.935-3.7,1.362S427,549.3,425.9,549.556a14.593,14.593,0,0,0-4.522,2.339,5.508,5.508,0,0,0-1.6,2.3c-.546,1.189-1.095,3.614-1.689,5.1s-1.552,2.339-3.745,4.337-3.152,4.042-4.57,5.616-1.05,1.231-1.345,1.53c-.757.759-3.873-1.225-3.068-.126.594.807-.335,0,.167.763s.869,1.064-.227,2.425-2.362,1.092-3.229,1.305-2.162-.893-2.253-.339a3.732,3.732,0,0,1-1.279,2.267c-.683.341-2.51.851-2.464,1.064.863,4.03,2.636,4.45.759,4.265-5.15-.5-1.476-1.725-5.056,5.771-.546,1.151-1.094.554-1,1.916s0,2.381.733,3.233.227.807-1.006,1.955A9.657,9.657,0,0,0,388.042,598c-1.142,1.743-2.239,1.659-1.829,2.978s.5,3.275,1.189,5.23,2.1,1.614,4.339,2.978,2.512.636,3.608.978-.777.426-2.743.765-3.241.723-4.612.428a24.023,24.023,0,0,1-5.708-2.98,11.7,11.7,0,0,1-3.516-3.656c-.638-1.4-1.1-2.807-1.917-4.721s-.231-3.106.136-7.317a66.852,66.852,0,0,1,1.233-9.738c.592-2.257,2.421-12.292,2.921-14.888s2.833-13.142,3.016-14.8a39.78,39.78,0,0,1,.685-4.594,26.359,26.359,0,0,0,.138-5.188c0-.168-.138-.3-.642-1.871a4.691,4.691,0,0,0-2.464-2.891c-1.14-.683-2.331-1.532-3.243-2.171a13.848,13.848,0,0,1-2.924-2.679,24.8,24.8,0,0,1-2.239-4.467,59.781,59.781,0,0,0-3.7-6.59,12.845,12.845,0,0,1-2.421-4.767c-.775-2.423.685-2.466.96-3.827s1.187-2.723,2.193-4.634,2.329-2.468,3.106-4.168.183-1.7-.092-3.361.092-1.4-.414-2.3-.773-2-1.231-2.3-1.141-.512-1.552-.042-1.142,1.827-1.6,1.913-.64-.427-.914-.725-1.6-.3-1.873-.594-.958-.341-1.414-.552a20.617,20.617,0,0,1-2.743-1.574,3.641,3.641,0,0,1-1.141-2.552c0-1.1-.958-1.532-3.1-3.062a12.78,12.78,0,0,0-5.666-2.383c-2.6-.636-3.653-2.466-4.522-2.976s-.775-1.064-2.695-.851-4.247-.851-5.711-1.446-4.064-1.02-5.162-1.743-3.01-.98-3.833-2.723-.687-1.064-.365-2.594-1.874-2.807-3.2-4.253-2.329-1.658-3.014-3.446-1.689-1.7-3.014-2.978-1.371-2.894-1.92-4.339-4.2-3.53-4.2-3.53.956,2.426,1.367,3.4a36.994,36.994,0,0,0,2.468,5.062c1.095,1.743,2.056,2.168,3.06,3.912s.046,2.807-.321,2.128-1.827-.98-1.827-1.787a4.04,4.04,0,0,0-.685-1.956c-.317-.638-1.735-1.363-3.106-2.47s-2.327-1.614-1.462-1.614,2.1.807,1.873.3-1.781-2.084-2.512-3.191a23.781,23.781,0,0,1-1.69-4.211,7.37,7.37,0,0,0-4.751-3.785c-1.323-.128-1.689-.765-2.144-2.127a25.018,25.018,0,0,0-1.143-3.871c-.594-1.062-3.152-4.634-3.2-6s-.777-5.317.136-7.529.685-7.144.548-8.124-1.783-2.847-1.783-3.572.962-.3,1.693-.086,2.281.851,2.281.851a19.851,19.851,0,0,0-1.915-2.976,10.494,10.494,0,0,0-3.837-1.958,4.242,4.242,0,0,1-2.695-1.359c-.5-.809-1.05-1.871-1.417-2.554s-1.92-1.486-2.281-2.211-.275-2.126-.777-2.849a1.751,1.751,0,0,0-2.058-.851c-.823.3-1.092-.426-1.733-1.49a4.657,4.657,0,0,0-2.468-1.7,7.151,7.151,0,0,1-1.917-2.468,15.744,15.744,0,0,0-3.06-3.445,79.386,79.386,0,0,0-7.992-2.807,13.92,13.92,0,0,1-2.787.128c-.548-.171-2.422-1.787-3.377-2.126s-1.649.381-2.1,1.446-2.7,2.891-3.929,3.7-2.239.9-2.148.47a8,8,0,0,1,.46-2.128c.41-1.02.638-1.317,1.915-1.956s1.233-.681.733-.639-.869-.084.137-.679,1.416-.683,1.369-1.193-2.193.683-3.564,1.787a12.456,12.456,0,0,0-3.377,3.827c-1.189,1.958.136,1.233-.869,2.51s-4.429,3.871-5.433,4.849a27.506,27.506,0,0,1-6.853,3.658,7.953,7.953,0,0,0-3.2,1.4c-.823.679-2.875.892-2.192.426s1.964-1.534,2.833-2.044a36.633,36.633,0,0,1,3.881-1.7,12.591,12.591,0,0,0,3.564-2.51,22.217,22.217,0,0,0,2.237-3.317c.639-1.022.777-1.49-.546-1.064a5.619,5.619,0,0,1-3.381,0c-.685-.255-2.468.807-3.106.341s.046-1.447-.367-1.915-1.825-.169-2.739-.341-2.191-.892-2.191-2.169-.913-2.381-.414-3.359,1.237-1.235,2.056-1.785a11.908,11.908,0,0,1,3.562-1.277,2.674,2.674,0,0,0,1.508-.893c.412-.424-.96-1.958-.96-1.958s.229-.169.777-.51.138-1.062-.823-.936-3.014,1.108-4.293,1.446-3.012.128-2.968-.423.32-.894-.136-1.319-.823-.894-.366-1.1,3.289-1.787,3.289-1.787a4.119,4.119,0,0,0,2.1,1.233c1.1.128,3.424-1.913,3.424-1.913-1.46-.894-1.14-1.148-1.14-1.148a10.659,10.659,0,0,1-2.924-.384,2.42,2.42,0,0,1-.868-1.614c-.136-.6-2.465-1.064-1.825-2.044s1.825-1.317,2.6-2.3,1.462-2.809,3.7-3.829,4.933-1.955,6.12-2.807,1.735-.04,2.192.084,3.289-.124,4.383-.124,1.279,1.231,1.645,1.528,10,.6,10,.6,8.172.128,9.819.6,4.612,1.7,4.612,1.7C282.742,371.881,282.583,369.688,283.7,369.688Zm109.821-49.336a6.327,6.327,0,0,1-4.108,4.339,87.685,87.685,0,0,0-9.594,3.742c-.275.169.366,2.04,1.187,2.976s1.6,1.574,2.329,2.51,2.01.852,3.016,1.829,1.733.636,4.476.681,2.01.255,5.07.426,6.258.426,7.309,1.361,2.556,4.594,3.516,6.8,2.65,5.869,2.65,6.211-1.052,3.02-1.052,3.444a4,4,0,0,0,1.052,1.745c.5.594.227,1.062.134,1.614a5.765,5.765,0,0,0,.64,2.129c.093.169,1.46-1.361,2.33-1.617s3.016,1.532,3.016,2.765c0,2.795.761,1.843-3.791,5.146-.6.436-1.187,3.785-.731,5.4s1.552,3.532,2.42,5.829,3.425,5.528,4.247,7.018,1.052,3.53,2.877,4,3.564,1.1,4.887,1.4,2.193.723,2.831-.51,1.919-5.911,2.972-9.315-.095-4.423,2.373-5.188,6.393-2.3,7.443-2.765.869-3.827,3.2-4.935a26.764,26.764,0,0,1,4.931-1.743,31.083,31.083,0,0,0,7.766-3.785c2.283-1.616,2.922-.765,3.745-2.255s-.823-3.658-1-5.869.731-2.339,1.185-4.339.687-3.317,2.468-4.678,2.739-2.125,2.421-3.4-1.233-3.191-1.233-4.594.319-.594-.412-2.55-.731-2.213-.048-4.042,2.514-1.359,2.377-2.171-2.923-2.04-2.968-4.3.5-2.933.958-3.488,5.116-4.253,5.435-4.594-.09-1.275,2.193-2.381,3.06-1.827,3.927-2.169,2.239-.3-.412-1.064-3.241-1.1-4.977-.892-2.327,1.191-5.435,1.49a27.578,27.578,0,0,0-6.624,1.743s1.052-.936.138-1.831,2.375-3.827,2.926-4.168-4.3-1.53-6.809-2-7.443-1.957-10.274-1.747-6.987.173-8.405.638-1.231,2.3-2.831,2.383-4.566-.936-6.851-.6a44.5,44.5,0,0,0-6.349,2c-.412.085,1.417,1.191,2.6,1.446s2.739,2.723,2.739,2.723-3.194-1.064-6.439-1.958-7.036,0-8.359.384a21.145,21.145,0,0,1-5.708,1.233c-2.651.128-5.662,2.3-7.17,3.317s-6.211,3.743-7.4,4.381-.731.936.548,1.277S393.521,320.352,393.521,320.352Zm-67.686,35.16c.363,1.558.363,3.8-.49,2.835s-1.552-2.921-2.922-2.128-2.861.57-2.618.4-.031-1.022-.733-1.277-1.124.143-1.853.568-3.046.992-2.1.253.638-1.132.3-1.984-2.741.595-4.02,1.5a14.965,14.965,0,0,0-2.8,3.231c-.761.936-.213,1.534.944,1.872s3.016.568,1.461,1.137-2.74.962-1.948,1.446a5.977,5.977,0,0,0,3.532.4,9.82,9.82,0,0,1,4.721.058,13.732,13.732,0,0,0,3.5.566,6.954,6.954,0,0,1-2.283.767c-1.462.253-4.143,0-5.513.253s-3.53.622-2.982,1.134a5.618,5.618,0,0,0,2.861,1.9c1.887.6,2.225.03,3.349.311s.52,1.56.823,1.759,2.437-.169,4.568-.566,1.339-.739,3.016-1.165,1.733-1.7,2.709-1.984.275.653,1.43.936.518.37,1.767.568,1,.68,2.223.594,2.648-.905,2.466-1.05a1.06,1.06,0,0,1-.241-1.076c.121-.566-1.223.112-1.707.4s-.456-.767.576-1.277,1.954,0,2.56,0,.062-1.759-1.036-2.04-1.582-.966-3.229-1.871-.791-1.305-1.277-2.494-1.524-4.71-2.437-5.333-1.887-.454-2.8-1.076A6.225,6.225,0,0,0,325.835,355.512ZM300.562,353.1c.4,1.132.456.424-.335,1.671s-.335,1.7-.883,2.638-2.008,2.185-1.552,2.807,1.918.992,2.528,1.474,1.217,1.474,2.311,1.106a12.008,12.008,0,0,0,2.225-1.022c.763-.4,1.4-.849,1.369-1.843s-.06-1.472.247-1.387.789.538,1.032-.114a5.994,5.994,0,0,1,1.188-2.012c.516-.51,2.008-1.022,2.709-1.616a16.486,16.486,0,0,0,2.222-1.757c.337-.514-.61-.908-1.186-1.137s-1.247-1.132-2.588-1.132-2.07,1.02-2.01.566-.914-.681-1.46-.879a4.713,4.713,0,0,0-2.8-.311,19.621,19.621,0,0,0-3.837.709C298.552,351.2,300.166,351.966,300.562,353.1Zm39.644,13.581c-.181.253-.974.51-1.46,1.076s1.034.257,1.52.426.853.65,1.249.795a7.254,7.254,0,0,0,3.411-.2c.882-.424.972-.566.882-.763a13.339,13.339,0,0,0-3.106-2.582c-1.279-.68-1.309-.707-1.582-.538S340.388,366.427,340.206,366.684Zm-5.757-13.27c-.825.412-1.426.906-.028,1.616a23.375,23.375,0,0,1,2.8,1.9c.944.594,1.339,2.3,3.319,1.532s2.771-1.673,3.048-2.468-.277-.964-.763-1.7-.608-1.048-1.614-.935-1.341.114-1.341.114a5.624,5.624,0,0,1,1.767-1.39c1.1-.54.181-.908.7-1.418s-1.307-.765-2.1-.568-.823-.056-2.132-.112-3.38,1.134-3.289,1.558,1.066.257,1.98.767,1.187.454.273,1.9-1.4-.339-1.7-.568S335.3,352.988,334.449,353.414Zm-5.843-2.608c-1.367.128-1.829,1.076-1.309,1.219s.851-.143,1.673.737,1.554,1.361,1.888-.085S330.706,350.6,328.606,350.806ZM306.62,339.831c-1.526,1.221-1.825,2.185-3.012,2.952s-.916,1.418-.518,1.839,1.582-.026,2.13-.309,1-.992,1.34-.566,1.736-1.445,2.285-2.072a4.715,4.715,0,0,1,1.554-1.245c.152.028-.522.737-.275,1.331s1.337.624,2.313-.4.092-1.958.853-2.751,1.4-.683-.09-1.391a2.169,2.169,0,0,0-2.743.456C310.154,338.045,309.605,337.449,306.62,339.831Zm9.286,1.93a6.4,6.4,0,0,0-2.679.793c-1.431.624-2.04,2.241-2.373,3.12s.15.879,1.462,1.39a2.865,2.865,0,0,0,3.56-1.361c.427-1.221.948.283.7.908s.914.056,1.462-.229a8.78,8.78,0,0,1,2.313-.4,8.334,8.334,0,0,1-2.773,1.588,20.213,20.213,0,0,1-2.984.793c-.4.058.37.652,2.04.994s2.681-1.022,5.088-1.93,2.283-1.078,3.074-.849,1.644-.4,2.618-.626,1.369.145,1.8-1.3,1.185-2.835-.185-2.921-1.462-.084-1.644,1.476-.305.6-.305.6-.914-1.361-1.462-2.072a24.48,24.48,0,0,0-1.552-2.41c-.608-.594-.884.255-1.827,1.305s-.183,1.446.761,1.9,1.614,1.617,1.158,1.928-.976-.056-2.71.143-1.675-.538-2.163-.765.821-.709-1.038-1.474S316.519,341.73,315.906,341.76Zm-5.632,1.476c.193-.329-2.311,1.474-2.692,2.054s.381.481,1.142.454S309.638,344.326,310.274,343.236Zm4.813-3.759c-.626.281-.626.5.394.608s1.616-.339,1.4-.765S315.589,339.25,315.087,339.477Zm5.191-5.385c-.669.11-2.649.807-2.757,1.145a2.693,2.693,0,0,0,.321,1.66c.305.58.413.667,2.114.213s2.879-1.333,2.313-1.49a11.849,11.849,0,0,0-1.411-.48c-.5-.072.44-.341,1.566-.695S323.932,333.48,320.277,334.092Zm-5.769.892c-.482.221-.657.225.349.61s2.086.354,1.948.042A1.675,1.675,0,0,0,314.509,334.984Zm3.925-2.793a2.764,2.764,0,0,0-1.384,1.331c-.213.271,1.08-.2,1.673-.339s.731.211,1.311-.3,1.721.016,2.757-.213,1.2-.906.974-1.5S321.161,331.112,318.434,332.19Zm10.323,2.566c-.281.135-.183.58.062,1.106s.305.4.821.594a4,4,0,0,1,1.157.737c.125.129.2.171.412-.339s-.107-.426-.685-1.106S329.489,334.4,328.757,334.757Zm3.518,4.452a1.8,1.8,0,0,0-1.524.381c-.289.143.152.468.351,1.076s.03.811,1.187.9,1.508-.128,1.6-.865S333.005,339.407,332.274,339.208Zm4.492,1.333c-.717-.526-1.066-.952-1.8-.653s-.122.665-.122.865.883-.028.9.454.287.679-.777.737-1.357.014-1.767.325.793-.042,1.158.44.99.538,2.008.384,2.406-.384,2.406-.384a8.132,8.132,0,0,0-1.05,1.2c-.3.5-.426,1.2.107,1.558s.594-.365,2.072-.4a2.171,2.171,0,0,0,1.917-.793,1.39,1.39,0,0,1-.289-1.064,2.954,2.954,0,0,0-.016-.908,6.111,6.111,0,0,1,.731.6s-.106-.44-.319-1.235-.044-.851-.275-1.928-.183-1.305-1.293-1.277-1.874.414-2.789.414-1.309.169-.637.51.763.751,1.08,1.132a2.516,2.516,0,0,1,.275,1.263C338.3,341.746,336.766,340.541,336.766,340.541Zm-5.558,4.04a.357.357,0,0,0-.048.02,1.32,1.32,0,0,0-.653,1.1c-.03.369.61.155,1.63-.2S332.656,344.115,331.208,344.581Zm14.372-1.927a7.47,7.47,0,0,0-2.01,1.631c-.486.552-.06.622,1.2,1.261s2.618.765,3.211.1S347.711,341.489,345.581,342.654Zm5.875-4.948c-1.62.161-1.118.4-2.992-.213a17.585,17.585,0,0,0-4.863-.683c-.64,0-.341.3.321,1.386s.843,1.466,2.215,1.124,2.488-.572,3.494.872,1.53,1.9.707,2.426-.436,1.381.046,2.49,1.574,1.06,3.106,1.06,11.212-.147,12.72-.424,2.853-1.552,3.654-2.126,1.233-1.468.137-2.129a8.466,8.466,0,0,0-3.883-1.275c-1.235,0-2.283.639-4.156.829s-1.46,1.086-3.15,1.128-.869.787-2.948-.065-3.608-1.915-2.622-2.064,1.779-.275,1.231-.743S352.964,337.556,351.456,337.706ZM332.092,329.8c1,.339,1.257.594.137.892s-1.988,1.084-.868.936a11.844,11.844,0,0,1,3.516.341c1.442.233,1.323.084,1.964.893a1.933,1.933,0,0,0,2.309.574c.979-.235,1.116-.3.48-1s-1.3-2-2.171-2.508-1.6-1.235-2.468-1.147-1.072.1-1.827-.915-1.345-.534-2.444-.257-1.446,1.06-1.872,1.406C327.981,329.711,331.088,329.454,332.092,329.8Zm13.156-10.421c-1.189,1.488-2.148,2.743-.8,2.891s1.942-.106,2.034.321-.229.721-2.239.721-1.391.448-.273,1.765,1.235.872,2.946.829,2.283-.661,3.7-.3,1.849.723.57,1.1-4.295,1.1-3.608,1.743a11.765,11.765,0,0,0,3.769,2.319c.958.149,1.163-.638,3.243-.405s1.576.448,1.8-.127,1.371-2.04,1.6-2.574.8-.871,1.942-1.127,1.508-.616.434-1-2.283-.552-2.169-.849.777-1.171.317-1.618-1.185-.426-1.781-.659-1.255-1.317-2.01-1.785a17.57,17.57,0,0,1-2.329-1.213c-.912-.7-2.373-2.413-4.2-2.317C346.96,317.162,346.432,317.884,345.248,319.374Zm-2.333,12.441c-.456.233-1.6.275-.751.976s.616.725,1.687.321a8.553,8.553,0,0,0,2.767-1.7c.134-.3-1.074-.871-1.9-1.127a22.18,22.18,0,0,0-3.106-1.383C339.123,328.221,343.372,331.578,342.914,331.815Zm55.874-22.123c-1.887-.512-8.646-1.817-10.839-1.307s-2.072-1.132-5.116-.735-7.732.169-9.194.4.729.852,1.522,1.361-3.775-.566-7.248.4-5.724,1.474-2.006,2.891a23.6,23.6,0,0,1,4.2,1.815,51.748,51.748,0,0,1-6.76-1.644c-2.01-.793-.911-.737-4.69.339s-7.427,1.646-7.244,2.779,3.046,2.666,4.931,3.062,5.786-.566,6.092-.681-1.524,1.532-1.524,1.532,1.948-.4,4.14-.966,3.9-1.189,5.969-1.928a18.145,18.145,0,0,0,2.436-.964,32.339,32.339,0,0,1-6.09,3.743,27.29,27.29,0,0,1-7.247,1.646c-1.522.056-1.281,1.02.243,1.815s2.678,2.494,3.471,3.06a2.392,2.392,0,0,1,.914,1.476,4.222,4.222,0,0,0-4.994,0c-2.62,1.869-2.255,2.835-1.584,3.062s2.984.454,3.41,1.247,3.472-.737,3.472-.737-1.52,1.927-2.984,1.927-1.4-1.247-3.532-1.02-2.01.739-1.094,1.474,1.644.966.06,1.7-2.315.964-2.375,1.871,2.07.908,3.41.908,2.618-.116,5.056-.171,2.13-.851,3.044-.851,1.827.283,1.462,1.191.363.341,3.046-.623,1.458-2.442,1.279-2.949-1.158-.681-1.767-.964,1.827-2.781,1.46-3.628,2.986-.173,4.506-2.157.976-3.46-.121-3.8,2.012-.113,2.984-.683,3.108-1.245,3.959-2.323,1.157-1.476-.911-1.247,2.979-.908,5.417-2.5,5.239-3.457,5.845-3.911,1.161-.229-1.7-.056-6.273-.227-4.383-.454,7.491-.908,8.953-1.984A17.317,17.317,0,0,1,398.788,309.692Zm-34.1,39.354c-3.048-.285-7.49-1.02-8.405,1.586a81.341,81.341,0,0,0-2.436,9.473c-.121,1.076,3.654,2.664,6.273,2.777s6.883.283,6.03-.339-.123-.964,2.313-.851,2.68-.51,2.68-1.02.426.623,2.13,1.53,3.169,3.461,4.69,4.935,4.931,3.457,4.263,4.594.729,5.1-4.51,6.012-5.54.281-5.477,1.474.3,1.7,2.373,1.7,4.933-1.7,5.907-.454a6.257,6.257,0,0,0,3.168,1.986c.851.283-1.036.791-1.524.964s1.036.339,4.02,1.757,6.576,1.588,4.809.568-2.616-2.891-3.41-3.518-.06-.113,1.341.229a8.844,8.844,0,0,1,3.287,1.984c.609.51.914-.169,1.34-2.156s-.181-1.984-2.558-3.57-3.1-2.835-3.349-3.971,1.219-1.362,1.829-2.157,2.315,1.42,3.471,2.723,2.128,3.574,3.044,1.93a20.726,20.726,0,0,0,1.763-6.182c0-.849-.912.056-4.807-1.871s-5.909-2.664-6.273-2.664,1.034-.737,2.741-1.588,2.434-.735-1.221-4.2-4.689-4.2-7.064-4.423-3.044-2.723-4.749-3.572-5.664,1.02-6.823,1.3-.791.735-2.253-1.361S364.688,349.047,364.688,349.047Zm2.739,0c-1.514.181.913,2.948,2.861,3.064a9.331,9.331,0,0,0,4.02-.966C374.737,351.03,369.8,348.762,367.426,349.047Zm-6.835,28.126a14.516,14.516,0,0,0-.96,3.49,6.262,6.262,0,0,1-.5,2.04c-.227.723.731-.127,1.371.936s.361,1.361,1.506.128a3.57,3.57,0,0,1,4.018-1.149c1.6.51,2.833.723,2.285-.253s-1.279-.9-2.375-2.213a6.419,6.419,0,0,0-3.287-2.17C361.276,377.472,361.138,375.856,360.592,377.173Zm11.491,99.37a4.95,4.95,0,0,0-4.142-3.128c-2.962-.55-3.961.55-5.056.92s1.022.55,2.431,0a2.667,2.667,0,0,1,2.675.135c.187.255-.476.407-.715.139s-.287.661,1.3,1.235,1.98.849,2.141,1.532a4.3,4.3,0,0,0,.508,1.619c.364.57.5.811-.169,1.06s-.434.217.058.522A6.526,6.526,0,0,0,374,481.5c1.391.118,1.852.377.884-.9S372.231,476.853,372.083,476.543Zm4.423,6.228a2.219,2.219,0,0,1,.494,2.1c-.054.454-.886.1-2.415-.3s-1.295-.207.034.51,2.189.542,2.13,1.5,1.221.088,1.785-.466.526-.062,2.887.293,2.847.783,2.472-.253,1.082-.952-1.016-1.94S375.631,481.872,376.506,482.772Zm-6.724.59c-.889-.984-2-1.127-2.01-.289s.3.787,1.121,1.016S370.35,483.989,369.782,483.362Zm17.153,4.268c-.966-.331-1.164.4-.522,1s1.63.4,2.6.349S388.622,488.209,386.935,487.63ZM375.823,368.945c-1.281.54-2.032.914-.914,2.381s1.783,2.382,2.213,1.319S377.992,368.029,375.823,368.945Zm-10.252,15.744c-1.929.311-2.56.367-2.255,1.448s.823.906,2.13.253S367.671,384.349,365.571,384.689Zm4.018,1.644c-.33.1-.426.851,0,1.53s1.247-.225,1.614-1.048S370.807,385.964,369.589,386.333Zm-21.071-52.342c-1.825.06-4.568.707-3.046.735a43.543,43.543,0,0,0,5.241.2c2.466-.142,2.706-.313,2.769-1.5S351.869,333.877,348.518,333.991ZM337.1,323.982c-1.864.578-1.4.964.789,1.928s2.255.51,2.012-1.305S338.2,323.641,337.1,323.982Zm130.156,47.46c-2.307.644-3.08.259-3.518,1.43s-1.341.542-1.863.687-1.259,3.409-1.624,2.923a8.872,8.872,0,0,1-1.03-1.871c-.53-1.122.175-.924-.839-2.106s-3.02-1.048-3.162-.564,1.386.892.868,1.437a26.543,26.543,0,0,1-2.233,1.616c-.47.4.9.223,1.767.02s1.454.648,1.807,1.251-.4,1.191-.769,1.484,1.255.223,1.905.344.992.669.548,1.406,1.935.1,3.255.028,1.663.9,3.654.279,2.942-.58,4.757-1.924,1.675-1.03,2.879-1.9.916-1.132.966-2.092.8.269.512-1.181-1.769-1.056-2.807-1.169-1-.928-1.524-1.185S469.595,370.79,467.257,371.443ZM621.415,496.374a4.54,4.54,0,0,0-.245,1.5c0,.767-.09,1.59-.03,2.353s.106,1.305.532,1.476a1.414,1.414,0,0,0,1.417.014c.7-.325,1.355-.908,1.006-1.787a24.209,24.209,0,0,0-1.387-2.735C622.328,496.545,621.6,495.724,621.415,496.374Zm-.561-1.053c.074.325.179.257.333.482s.319.028.106-.269-.187-.333-.187-.333-.271-.092-.271.177M686.6,540.583c-.01.034-.05.052-.074.08-1.251,1.265-2.387.912-4.536,1.578-2.191.679-5.983,2.892-6.259,3.871s0,1.1-.273.976a3.341,3.341,0,0,1-.733-.723,4.645,4.645,0,0,0-.456,2.255c.137,1.062.639,1.7.594,3.062s-.548,2.169-.5,3.1,1.6,2.723,2.01,3.831.685.807.912,2.807,1.279,3.1.227,4.166-1.825.849-.546,1.956,2.331,1.829,4.383,1.106,1.51-1.361,3.108-1.7a19.641,19.641,0,0,1,3.287-.765c1.369-.084,2.329.042,2.835-.934s.135-.936,1.5-1.618,1.233-.851,2.148-1.02,1.506.47,2.739-.51.32-1.064,3.06-1.064a13.068,13.068,0,0,1,4.887.723,7.665,7.665,0,0,1,3.06,1.871c.414.639.96,1.406,1.141,1.406s.414.04,1.052-.6a27.446,27.446,0,0,1,2.466-1.914,4.546,4.546,0,0,1-.5,1.871,2.4,2.4,0,0,0-.414,1.49c0,.253,1.052-.811,1.191-.851s.274,1.871.41,2.04.55.084.96.638a7.032,7.032,0,0,1,1.371,2.042,4.883,4.883,0,0,0,3.243,2.3,9.052,9.052,0,0,0,2.877-.042c.821-.126.868-1.106,1.735-.721s-.044,1.189,2.01,1.02a5.487,5.487,0,0,0,3.425-1.406c.821-.55.914.767,1.964-.679s1.233-1.106,1.416-2.851a6.445,6.445,0,0,1,1.141-3.743c1.006-1.658,1.237-.851,1.921-3.273s1.552-4.723,1.462-6.72a9.046,9.046,0,0,0-.414-2.937c-.456-2.253-.136-2-1.6-2.931s-1.825-.683-2.193-2,.092-1.7-.594-1.7-1.279.3-1.689-.595a5.576,5.576,0,0,0-1.141-2.084c-.777-.851-1.506-.68-2.923-1.317s-.688-.809-.688-1.915.08-2.281-1.048-2.793-.456.283-.456-1.532,0-1.558-.913-1.869-1.219-.283-1.8-1.391-1.339-2.919-1.612-3.654-.608.084-.976.622a5.705,5.705,0,0,0-.883,2.835c0,1.1.488,1.731.488,3.2a7,7,0,0,1-1.675,3.8c-.638.851-1.156.084-1.706-.143s-.669-1.05-1.825-1.616-3.287-1.076-4.263-1.956-.3-.908,0-1.815a4.627,4.627,0,0,1,1.462-2.241c.731-.594.518-.823-.4-1.334a8.032,8.032,0,0,0-3.747-.538c-1.554,0-2.466-.113-2.375.767s1,1.217-.3.964-2.438-.37-3.016.253a4.228,4.228,0,0,0-1.036,2.327c-.335,1.331.092,1.416-.456,1.416a20.591,20.591,0,0,1-3.442-1.358c-.731-.313-1.124-.285-1.978.51a46.962,46.962,0,0,1-4.9,4C687.653,537.235,687.713,537.092,686.6,540.583Zm-40.631-38.333c-.646-.088-1.006-.257-.215.763a12.123,12.123,0,0,0,1.767,1.93c.761.709,1.036-.512,1.614.849s.366,1.39.944,1.9,1.066.655,1.217,1.165a3.552,3.552,0,0,0,1.006,1.871c.671.566.671.482,1.064,1.586s1.006,1.9,1.311,2.835,2.04,1.815,2.921,2.949,2.377,2.779,2.62,2.325.882,0,1.339-.168.609-.823.914-2.412a2.577,2.577,0,0,0-.7-2.694c-.424-.367-1.217-.452-1.427-.793s-.578-1.5-1.1-1.871-.643.028-.643-.879.61-.821-.151-1.331a4.058,4.058,0,0,1-1.1-1.135c-.241-.255-1.885-.653-2.313-1.106s-2.221-1.277-3.074-2.128a11.161,11.161,0,0,1-2.07-2.152C649.622,503.126,648.769,502.613,645.971,502.249Zm17.718,18.286c-.729,0-1.094-.426-1.582.454s-.426.879.335.879.608.4.576.51-.363-.086,1.189.538a3.812,3.812,0,0,0,3.076.14c.426-.227.578.568,2.711.908s3.257-.2,4.626.143,1.038-.171.062-.906-.884-.341-1.859-1.05a6.667,6.667,0,0,0-2.982-.851c-.641-.114.546.681-1.4.424s-1.249.173-2.255-.48-1.006-.765-1.677-.879S663.689,520.536,663.689,520.536Zm15.47,3.119c-.548.171-1.674.484-1.156.709s.118.37,1.735.227,3.016-.339,3.227-.68-.273-.112-.946-.313-.608.143-1.522.257A1.966,1.966,0,0,1,679.159,523.655Zm5.664-.116c-1.08.133-.946.37-.092.626a4.41,4.41,0,0,0,2.283.2,10.488,10.488,0,0,1,1.919-.538c1.187-.2,1.583-.171,2.524-.285l.948-.112s-.092-.2-.733-.169-1.092.056-1.735.056-1.735.566-2.192.538-1.338-.311-1.552-.171S685.981,523.4,684.823,523.539Zm6.088,1.39a.229.229,0,0,0-.04.028c-.753.516-.785.659-.717,1.068a.773.773,0,0,1-.082.594,3.234,3.234,0,0,0,1.954-.9,3.192,3.192,0,0,1,1.745-1.148,6.611,6.611,0,0,0,1.851-1.253,5.447,5.447,0,0,1-1.438.084,2.7,2.7,0,0,0-1.737.594C692.209,524.2,692.686,524.25,690.911,524.929Zm-6.365.447c-.793-.568-1.562-.488-1.62-.138s-.686.329.432.745,2.183.958,2.1.391S684.892,525.621,684.547,525.376Zm-7.276-23.64c-.458.653.426.482-.245,1.05s-1.185.311-1.853,1.161a9.608,9.608,0,0,1-2.1,1.759c-.426.313-1.8.679-2.407,1.5a.812.812,0,0,0,.215,1.275s-.367.169-1.341-.2-1.034-.821-1.034-.821-.7-.028-1.094,1.02-.612,1.161.086,1.787-.484.651-.333,1.076.155,1.221.578,1.305.518-.4,1.038.255.091,2.493.759,2.58,1.157-.2,1.735.056a2.087,2.087,0,0,0,1.767.227,2.612,2.612,0,0,1,1.98.227,6.506,6.506,0,0,0,2.526.653c.7-.056.821.115.944-.879s.032-1.928.883-2.693.883-.767.944-1.476a4,4,0,0,1,.58-2.183c.514-.739.821.426,1.1-.143s.548-.564.393-.849-.944-.285-1.247-.823.092-.823-.275-1.928-.576-.681-.06-1.305.944-.737,1-1.219.273-.512.916-.964-.1-.241-.711-.695-1.749-2.154-2.457-2.14C679.172,499.362,677.727,501.083,677.271,501.736Zm89.97,60.2c-.293-.215-.544-.056.126.737s.729.566,1.154.594.793,1.59,1.034,1.988a6.874,6.874,0,0,0,.7.878,8.593,8.593,0,0,1,.032,2.468c-.213.765-.671,1.1-.821,1.815s.7.51,1.249.737.456.227.243.849-.853.908-.853,1.022,1.249.821,1.889.056a11.433,11.433,0,0,0,1.919-2.721c.271-.823-.49-.456.394-1.05s.761-.313,1.219-1.05.942-1.5.426-1.9-1.094.482-1.556.653a1.6,1.6,0,0,1-1.46-.114c-.639-.311-.761-.311-1-.879a3.178,3.178,0,0,0-.548-.879s-.185.964-.639.654-.337-.654-.671-1.193a11.34,11.34,0,0,1-.55-1.1c-.211-.4-.03-1.165-1.094-1.277S767.518,562.13,767.241,561.933Zm.187,10.295a11.56,11.56,0,0,0-1.612,1.785,7.837,7.837,0,0,0-1.126,2.014,5.814,5.814,0,0,1-2.588,2.012c-1.462.767-2.012,1.078-2.5,1.787s-2.223,2.919-2.434,3.177.819.51,1.887.51,2.739.964,3.652-.028,1.827-3.347,2.405-4.2a10.635,10.635,0,0,1,2.04-1.986c.911-.821,2.436-2.353,2.436-2.949a5.5,5.5,0,0,0-.4-1.558,1.146,1.146,0,0,1-1.129.566C767.276,573.275,767.428,572.228,767.428,572.228Zm-7.181,10.89c-1.07-.566-1.279.488-1.451,1.57s.462.163,1.391-.325S760.656,583.336,760.247,583.117Zm-36.209-7.433c-1.2-.4-1,.739-.821,1.588a6.284,6.284,0,0,0,.883,2.239,2.9,2.9,0,0,0,2.833.654c.669-.313,1.155-1.361,1.825-2.355a4.276,4.276,0,0,0,.853-2.721c-.123-.6-.974.538-1.524.793a3.053,3.053,0,0,1-2.313.625A8.886,8.886,0,0,1,724.038,575.684Zm-15.162-60.876c-.974.227-1.462-.625-2.255-2.269s-1.4-1.869-3.409-1.135-1.7.568-.366,1.078a18.218,18.218,0,0,0,1.7.681c.183,0,2.132.283,1.7.566s-2.253.566-1.1,1.361.67.227,3.716,1.759,3.532.4,4.508,2.381.972,1.644.181,2.156-1.827,1.02-1.4,1.076a28,28,0,0,0,3.287.341c2.072.113.122,1.3,2.435,1.3a4.045,4.045,0,0,0,3.837-1.815c.913-1.078,1.1-.51,3.044-.056s2.62,2.154,5.056,2.835,3.47,1.588,1.948.17a50.367,50.367,0,0,0-4.142-4.084c-2.07-1.643-2.191-1.815-2.8-3.062s-2.741-2.723-5.114-3.686a51.91,51.91,0,0,0-6.517-1.871C710.337,511.747,709.851,514.581,708.877,514.808Zm-16.02-5.67c-.911.637-1.024.247-1.707-.174s-.492.881-2.01.174-2.084-1.06-3.716.143-.606,1.694-.646,2.542-1.365,3.249-1.859,4.132-.488,1.2-.113,1.767.911.351,1.139.634a7.775,7.775,0,0,1-.267,3.249c-.265.743.647.883,1.594.67s.115-.281.115-1.058.454-1.13.454-2.58v-2.116s.267-.142.608.351.835,1.874,1.251,2.58.833,1.235,1.48.739,1.249-1.058,1.249-1.058-1.249-.387-1.249-.813a2.152,2.152,0,0,0-.344-2.188c-.871-1.414-1.325-1.484-.225-1.554s1.062-1.167,1.7-1.484a3.254,3.254,0,0,1,1.556-.211,1.7,1.7,0,0,0-1.63-.389,12.424,12.424,0,0,0-2.695.883c-.833.458-1.556.743-1.707-.106a5.834,5.834,0,0,1-.151-2.227c.115-1.164,1.44-.281,2.428-.562s.988-.213,3.148-.072,2.313-.354,2.958-1.235a9.008,9.008,0,0,0,1.022-1.909S693.765,508.5,692.857,509.138Zm5.12-3.09c.193-.353-1.584,1.217-1.918,1.53s0,.765.241,1.221a13.31,13.31,0,0,1,.275,2.351c.092.34,1.006.653,1.006.653a3.292,3.292,0,0,1,.3-1.53c.335-.482,0-1.078,0-1.956S697.4,507.1,697.977,506.048Zm-3.5,9.308c-1.4-.534-1.92-.183-1.92.548S692.4,517,693.889,517,697.06,516.342,694.476,515.355Zm2.782-.474c-.344.108-.7,1.2-.508,1.859s.43.221,1.215.074.662-.765,1.642-.839a10.5,10.5,0,0,1,3.018.693s.432-.51-1.132-1.494S699.214,514.26,697.258,514.882ZM669.4,478.812s-1.4.04-1.614.04-.7.542-1.05.755-.349.508-.1,1.06.653.582,1.337.767.441-.3.946-.482a1.312,1.312,0,0,0,.747-1.048,1.59,1.59,0,0,1,.562-.739c.12-.141-.4-.623-.4-.667S669.4,478.812,669.4,478.812Zm16.488,1.97c-.55-.407-.853,1.022-1.006,1.757s-.335,1.221-.06,1.759.153.711.153.711l-.793-.6a5.087,5.087,0,0,0-.213,1.277c0,.6-.245.851.67,1.277s1.219.2,1.337.851.122.934.733,1.048a2.443,2.443,0,0,1,1.552.767c.243.4.121-1.052.548-.966a2.462,2.462,0,0,1,1.219,1.106,1.054,1.054,0,0,0,.759.51s-.7-1.162-.394-1.3.394-.253-.4-.737a4.247,4.247,0,0,0-2.038-.454c-.608-.084-.608.426-1.066-.765a3.5,3.5,0,0,1-.091-2.185c0-.253.333.4.7-.426a4.331,4.331,0,0,0,.394-2.267c-.06-.793.548-1.106.09-1.135A6.95,6.95,0,0,1,685.889,480.782Zm7.244,15.237c.092.574-.546-.161-.787.169s-.365.265-.753.426a8.15,8.15,0,0,0-1.323,1.032s-.012-.562.01-.691-.285-.787-.57-.341a2.613,2.613,0,0,1-1.2,1.052,1.842,1.842,0,0,0-1.117,1.361c-.082.574.388.554.388.554a3.654,3.654,0,0,0,.675-.852c.422-.659.5-.639,1.265-.735s.707-.084.95.329.056,1.044.078,1.5-.022,1.008.763,1.275.413.022,1.132-.042.709-.044.6-.406a6.3,6.3,0,0,1-.367-1.1c-.044-.426.416-.606.562-.691s.241.426.458.956.307.51.4.107a6.113,6.113,0,0,0,.251-1.872,7.146,7.146,0,0,1-.136-1.329,1.656,1.656,0,0,0-.56-1.084c-.207-.151-.914-.775-.914-.775S693.044,495.445,693.133,496.019Zm-3.5-3.472s.016-.361-.644-1.01-.679-.837-1.689-1.012-2.016.088-1.59,1.171.55,1.241,1.4,1.371a1.756,1.756,0,0,0,1.369-.333s.064.173-.741.679-.9,1.472-.267,1.847.614.952.978.663.628-1.283,1.37-1.976.787-.793.883-1.53a5.84,5.84,0,0,0,.016-1.327Zm1.724-2.077c-.092.073-.619-.054-.07.478s1.05.648.982,1.04-.022.47-.329.426-.4-.116-.538-.126-.157.255-.067.5.067-.032.329.381a2.011,2.011,0,0,1,.275,1.032c.08.478.285.245.285.245s-.068-1.149-.034-1.382-.092-.8.3-.618.285.863.514.225a2.931,2.931,0,0,0,.014-1.713c-.115-.512-.516-.532-.984-.532A3.561,3.561,0,0,0,691.354,490.47Zm-7.876,1.966c-.227.056-.367.277-.5,1.054a2.877,2.877,0,0,1-1.038,1.636,15.347,15.347,0,0,0-1.8,1.926c-.072.243-.082.094.867-.353s1.7-1.04,1.811-1.647-.11-.233.725-.626.41-.522.444-1.14S683.894,492.328,683.478,492.436Zm50.413,23.222c-.1.789.227,1.024-.5,1.6a4.5,4.5,0,0,1-2.331.711c-.775.126-.209-.129-1.17-.157s-1.2.042-.761.524.333.95,1.749.893a12.23,12.23,0,0,0,3.5-1.1c.914-.285.837-1.022.914-1.361S734,514.808,733.891,515.658Zm3.956,1.7c.391.556.243.47.745,1.2a3.142,3.142,0,0,0,1.889,1.064c.592.2,0-.213-.44-.807a6.94,6.94,0,0,0-1.129-1.518C738.258,516.708,737.163,516.382,737.847,517.358Zm-51.426-47.678c-1.952,1.241-2.831,1.148-2.054,2.722s1.263,2.241,1.37,2.538.5-.2,1.032-1.446a28.226,28.226,0,0,0,.809-3.373C687.792,469.624,687.089,469.255,686.421,469.681Zm33.416-61.175c.215.823.426,2.1-.06,2.239s-.823,1.05-.944,1.988-.366,2.124.151,2.863.153.791.153,1.418a11.266,11.266,0,0,1-.123,3.146,3.79,3.79,0,0,0-.363,2.155,18.591,18.591,0,0,1,0,2.61c0,1.418-.09,2.55-.03,3.116s.363-.281.576-.48a1.254,1.254,0,0,1,1.492.171l.46.482s.729.311-.275-1.843-1.187-1.7-.914-3.658.426-1.984,1.46-2.185,1.582,1.221,1.707,1.361-.092-.482-.458-1.586a9.533,9.533,0,0,1-.821-2.863,4.432,4.432,0,0,0-1.1-2.95c-.548-.4-.273-1.05-.03-1.588a4.461,4.461,0,0,0,.215-2.3,24.379,24.379,0,0,0-.548-2.751c-.155-.51-.763.311-.763.311Zm-.913,21.722a2.717,2.717,0,0,1-.3,1.9c-.428.709-.123.879-.366,1.871s-1.431,0-1.431.2a2.064,2.064,0,0,1-.488,1.16c-.3.255-1.341.313-1.036,1.305a14.022,14.022,0,0,0,.855,2.04,4.9,4.9,0,0,1,.789-.623c.185-.056.671-.2.671-.2s-.091-.285-.761-.6a.915.915,0,0,1-.518-1.163c.092-.2.943.056,1.492,0s1.006-.341,1.677.2a4.456,4.456,0,0,0,1.645.739,5.01,5.01,0,0,1,.424-1.361c.305-.566,1.189-.313,2.072-.566s1.552-.4,1.249-.767-.275-1.191-.46-1.815-.761-.028-1.217.2a1.712,1.712,0,0,1-1.645-.339,12.244,12.244,0,0,1-2.1-2.5S718.863,429.6,718.924,430.228Zm-2.727,9.3a1.991,1.991,0,0,0-.592,1.723c.068.829.775-.065-.138,2.488s-1.371,3.126-2.261,3.787a2.184,2.184,0,0,1-2.054.488c-.343-.169.092-.745.344-.915s-.779-.233-1.211-.169-.024.554-.07.956-.89,1.49-.8,1.98.091.639-.458.807-.912-.405-1.072-.49a13.059,13.059,0,0,0-2.056.3,2.033,2.033,0,0,0-1.8,1.3c-.458.787-1.532.914-2.307,1.211s-.48,1.406-1.325,1.787-.845,1.084-.914,1.659.524.171.616.129.092-.809.619-.723.592.1.317.7-.432.894-.7,1.4.091.745.5,1.257.8-.151,1.666-1.064.938-1.128.87-2.171-.414-1.064-1.05-1.359-.779,0-.07-.811,1.028-.02,1.508-.381,1.645-.341,2.763-.617,2.195-.636,2.239-.277.389,1.574.431,1.829.781-.361,1.53-.639.048-.4-.022-.892a.836.836,0,0,1,.344-.767s.39.809,1.6.235,1.3-.809,1.622-.725.526.406,1.026.086.6-.022.5.235,1.462-.49,1.8-.723.161-.022.022-.916-.57-.956-.317-2.1a10.146,10.146,0,0,0,.251-1.98c.066-.723.341-.827.524-.871s.185-1,.57-1.508.3-.745.3-1.915-.64-.958-.682-1.785a6.225,6.225,0,0,1,.157-1.638s-1.3.49-1.436.787l-.141.3S716.634,439.313,716.2,439.526Zm-8.523,12.78a23.859,23.859,0,0,0-3.1.624c-.8.257-.972.609-.847,1.408a16.521,16.521,0,0,0,.548,2.016c.11.416.548,0,1.3-.4s.7-1.568,1.426-1.568.454.833,1.423-.335.235-1.265.265-1.855S707.674,452.306,707.674,452.306Zm85.332-62.981c-1.443-.281-1.861-.594-1.994-.072s-.291.7.622,1.022,1.37-.241,2.225.4a1.83,1.83,0,0,0,1.749.524,1.41,1.41,0,0,0,.913-.412A20.689,20.689,0,0,0,793.006,389.325Zm-16.494-22.719c-.53.148-.962-.361-.823.936s.431,1.446,2.1,1.211a20.663,20.663,0,0,1,2.7-.233,7.179,7.179,0,0,0,2.761-.49,4.023,4.023,0,0,0-1.095-1.233c-.777-.594-1.8.406-3.564.107A19.257,19.257,0,0,0,776.512,366.606ZM725.06,347.445c.022.5,2.283,1.891,3.1,2.3s1.46.233,3.2.042,1.873-.934,2.076-1.359-.821-.277-1.984-.51-2.124.211-2.536,0,.617-.426-.412-.809-1.279.127-1.508-.042-.273-.534-.775-.574S725.036,346.979,725.06,347.445Zm-8.952,2.913c-.787.315-.731.6.159,1.34s.6.574.207,1.106,0-.022,1.279.552,1.805,1.618,2.6,1.851a1.885,1.885,0,0,0,1.347-.064,7.3,7.3,0,0,0-1.028-1.871c-.753-1.02-2.377-1.317-2.674-2.211S717.226,349.91,716.107,350.358Zm8.152-4.166s-1.162-.7-2.923-1.809a8.425,8.425,0,0,0-3.014-1.488c-.6-.084-.5.619-.731,1.169s-.387.446-1.3,0a14.488,14.488,0,0,0-2.761-1.341c-.938-.211-1.506.554-2.58,1.618s-.456,1.362.845,2.934,1.873,1.66,2.921,1.042.753-1.02,1.508-.723,3.357-.3,3.45-.3-.161,1.446.982,1.064a6.946,6.946,0,0,0,2.717-1.148C723.891,346.637,724.259,346.192,724.259,346.192Zm-79.083-30.375c-.333.281-2.283.113-3.289,1.7s-1.7.484-2.223,1.448a20.046,20.046,0,0,0-.944,2.126s.916,1.078,1.889.994a4.323,4.323,0,0,1,3.622,1.644c.944,1.3,1.644,1.3,3.928,1.671s1.247.683,2.437.57,2.829.141,2.466-.456a2.573,2.573,0,0,1-.486-2.126c.15-1.162,1.215-1.106-.032-1.871a2.619,2.619,0,0,0-2.07-.283c.062-.142,1.127-.568.7-.6s-2.528-.141-2.771-1.331.576-1.279,1-1.363.307-.225-.913-1.1a33.4,33.4,0,0,0-2.859-1.787C644.874,315.447,645.513,315.531,645.176,315.816Zm11.45,8.59a3.909,3.909,0,0,0-2.13,1.815,13.807,13.807,0,0,1-2.193,2.438c-.64.51-.458.655.579,1.024s2.861-.655,3.379-.683.914.767,2.558.566,4.14-.51,2.923-1.39a25.431,25.431,0,0,1-2.132-1.53,5.886,5.886,0,0,0-3.044-1.162s2.771-.936,2.1-.992S656.627,324.406,656.627,324.406Zm-70.394-13.979c-1.594.572-1.036.851-2.072,1.675s-.337,1.048,1.89.51a13.967,13.967,0,0,0,3.775-1.417C591.252,310.54,588.607,309.576,586.232,310.427Zm3.53,4c-1.5.663-1.1,1.361-.7,1.928s1.49-.341,1.793.285.4.366,1.8-.57.883-.651.337-1.643S592.321,313.292,589.762,314.427Zm-8.32-.411c-.958.456-.958.4-.048.829s3.13.765,4.271.02,1.054-.594-.387-.807S582.513,313.5,581.442,314.015Zm-14.111,1.72a21.932,21.932,0,0,1,4.044-.062c1.185.128.751,1.148-1.442,1.383s.207.574,1.759.51.548-1.341,1.851-1.787,2.122-.171,3.674-.723-.889-1.084-2.695-1.042a35.708,35.708,0,0,1-3.927.042c-1.53-.106-2.765.582-4.339.851C563.013,315.461,565.846,315.864,567.33,315.736Zm11.642.406c-1.305,0-4.451.723-1.8.978s2.446.426,3.54.022S580.347,316.142,578.973,316.142Zm9.231.554a5.919,5.919,0,0,0-3.337-.3c-1.438.062-2.008.958-1.07,1.34a3.764,3.764,0,0,0,2.349.108c.775-.128.731-.361.229-.554S589.3,317.057,588.2,316.7Zm7.807-2.3c-1.426.177-1.508.426-1.644.892s.2.362,1.713.171a7.808,7.808,0,0,0,3.2-.936c.982-.532-.2-1.829-.2-2.064s-1.391.7-1.781,1.042S597.7,314.186,596.011,314.4ZM484.177,395.971c-.719,1.984-1.9,2.9-.5,2.35s2.8-2.257,2.731-.793-1.438,1.251-1.008,2.685.108,1.313,2.443,1.831.43.337,1.006,1.711.968,1.8.357,2.2-2.405-1.251-2.512-.55.249,1.221.681,2.2-.287,1.526-1.65,2.167-.181,1.038.861.978,3.663-.55,3.231.365-1.686-.152-2.582,1.374-4.207,2.837-2.482,2.746,1.474-.55,6.612-1.281,1.576-.062,4.954-1.1,2.3-1.313.432-1.006,1.223-1.833.791-3.813-1.651-.092-2.444-1.345-.682-1.616.828-1.161,1.365-.3-1.546-2.164-1.112-1.5-2.442-3.052a4.637,4.637,0,0,0-3.59-1.374,4.569,4.569,0,0,0,1.542-1.709c.574-1.128.683-1.038,1.293-2.409s-.61-1.251-2.152-.918-2.05.49-1.725-.121a6.358,6.358,0,0,1,1.257-1.618c.719-.763.859-1.159-.468-.853a9.751,9.751,0,0,0-2.657.793C483.712,392.889,484.9,393.987,484.177,395.971Zm-3.63,4.668c-2.347.925-1.687,1.528-1.291,1.861s1.112-.305-1.078.948-2.227,2.622-1.078,2.9,1.006-.671-.213,1.619-2.048,3.845.431,3.265,3.159-1.862,4.343-2.014,1.4-1.1,1.4-2.534-.789-1.464.144-2.655,1-2.442-.829-3.02S482.022,400.059,480.548,400.639Zm29.5,32.026c-.127.321.155,1.191-.793,1.785s.458,1.137.761,1.7.7-1.928.608-3.12S510.445,431.643,510.047,432.665Zm-.455,4.706a2.527,2.527,0,0,0-1.829,2.44c-.183,1.161,1.251.225.884,1.245s-.028,1.56,1.584.6.7-1.843.944-3.064S511.632,436.408,509.592,437.372ZM533.464,449.9c-1.361-.132-1.964.723.365.98a12.885,12.885,0,0,0,4.248.084c.865-.213.134-.042-1.008-.807S535.2,450.074,533.464,449.9Zm12.966.723c-1.875-.4-1.367,1.873.55,1.534s1.187.127,2.056-1.277S548.4,451.051,546.43,450.626Zm-46.643-10.562c-1.524.195-1.643.711-.456,1.022s1.034-.056,1.7-.54S500.458,439.98,499.787,440.064ZM407.542,412.3a13.046,13.046,0,0,0-3.335,4.211,10.086,10.086,0,0,1-2.466,3.445c-1.279,1.319-.639,1.02,3.335,1.787s3.653,1.361,4.568,1.106,1.1.508,1.1,1.319.865.337,1.277-.936-.412-3.574-1.231-4.891-1.008-1.321-2.285-.98-.869-.3-1.323-1.317-1.191-.213-.092-1.745S408.456,411.584,407.542,412.3Zm-121.563-2.72a6.783,6.783,0,0,0,2.343,4.14c1,.707.793.313.335-1.192s-.09-1.5-.305-2.466S285.979,409.131,285.979,409.585Zm6.668,6.919a11.709,11.709,0,0,0,2.463,2.353,8.667,8.667,0,0,0,3.229,1.474c1.462.426,2.1-.142,1.156-.992s-.152-.767-1.857-1.165-2.068-.253-2.923-.793S292.067,415.907,292.647,416.5ZM255.521,402.4c-1.1-.249-1.53-.3-2.285.3s-.958,1.106-.546,1.767.158.3,1.116-.362.506-.745,1.715-1.044.96-.7.96-.7A1.324,1.324,0,0,1,255.521,402.4Zm-.387-1.466c-.739.444-.984.807-.161.637s.707-.637,1.233-.532.709-.1.709-.1A2.119,2.119,0,0,0,255.134,400.93Zm-21.079-3.383c-1,.49-1.956-.084-1.335.287a3.8,3.8,0,0,0,2.122.649c.663-.074,1.1-.085.857-.4a1.037,1.037,0,0,1-.319-.733C235.356,396.9,235.061,397.059,234.055,397.547ZM571.129,536.129c-1.158,2.554-3.6,1.305-5.544,3.177s-1.645,1.3-.183,3.913-1.215,2.325-1.89,5.387.793,2.5,1.584,5.1,1.159,1.815,2.62,1.474a8.511,8.511,0,0,0,2.5-1.02,36.585,36.585,0,0,1,1.217-5.614,42.61,42.61,0,0,0,1.827-8c.185-2.213.365-3.8.855-3.12s.546.681.546-.4-.584-4.108-1.522-4.819C571.489,530.97,572.284,533.578,571.129,536.129Zm1.706-174.437c-1.6.365-2.353,1.341-1.191,1.723s1.05.173,2.97-.51S574.408,361.331,572.834,361.692Zm29.836-28.978c-.544-.852-1.032.285-6.634,2.723s-5.544.339-10.781,4.48-4.08,3.628-4.385,6.126-1.522,1.416-2.01,3.685-3.164,2.383-1.827,4.255,3.1,2.948,5.905,3.743,3.594-.056,2.988-.341-2.741-3.63-2.315-7.429,1.827-3.233,3.046-4.65,4.383-5.1,6.455-6.353c2.012-1.213,7.369-2.908,10.068-3.835.076-.028.173-.022.223-.076C605.532,332.658,603.221,333.566,602.671,332.715Zm-15.1,25.49c-.663.095-.974.115.245,1.305s2.283,2.1,1.885.51S588.18,358.12,587.57,358.2Zm20-11.539c-.89-.415-1.367-.851-1.582-.171s1.006,1.588,2.193,1.815S608.427,347.063,607.572,346.665ZM397.934,418.034a9.561,9.561,0,0,0-3.56-1.219c-.882,0,.183.934,1.582,1.7S398.727,418.431,397.934,418.034Zm-3.225,5.7c.072-1.124-.749,1.291.257,1.829s1.526.679,2.165.026.118-.241-.763-.4S394.649,424.67,394.71,423.734Zm398.949-39.074a6.855,6.855,0,0,1-2.877-.3,4.443,4.443,0,0,1-.592,1.958,1.252,1.252,0,0,0-.141,1.319s-1.643-.723-2.6-1.064-1.827-.042-2.377-1.49-2.191-1.189-3.47-1.189-.911-1.659-.911-1.659l-.777.04c-.779.044-.641,1.916-1.645,2.51a16.913,16.913,0,0,1-4.158.98s2.01,1.446,2.423,2.636a11.467,11.467,0,0,0,1.187,2.339s-.185.554-2.606.084-2.281.47-4.885,1.53a36.227,36.227,0,0,0-6.3,3.277c-.733.594-.777.255-3.06-.3s-2.739.637-3.335.936-.364-1.361-.364-1.361a4.461,4.461,0,0,0-1.829.51c-10.411,5.289-3.231,5.009-3.56,6.08,0,0-1.1,4.126-1.1,4.128-1.53,4.558-2.59,2.171-3.881,5.783-4.11,11.483-6.488-1.771-6.488-4.8,0-1.873-.409-4.295.779-4.849,10.218-4.759.958-.661,10.55-7.231,3.108-2.126,1.415-3.4,2.1-4a4.125,4.125,0,0,1,1.783-.767l-1.69-.168c-1.691-.168-1.737.213-3.062,1.659s-2.373,1.7-2.1.594.319-2.253-.682-1.656-1.418.508-3.289.893a9.183,9.183,0,0,0-5.572,3.4c-1.69,2.128-.731,1.871-.183,2.381s-2.7.382-4.247.257-.735-.426.181-.725-1.371-.552-3.381-.978-1.233.341-2.418.807-1.143-.424-1.736-.552-3.243-.3-5.114-.512-1.737.128-2.239.767-3.973,3.7-5.481,5.446-3.38,2.127-5.07,3.743-1.964,1.53-.594,1.787,1.554.125,1.781,1.4.869,1.7,2.331,1.7,1.05.383,1.323-.723-.366-2.38.869-1.4,2.237,1.7,2.6,3.106-.092,2.424-.731,4.765-.868,5.7-1.737,7.4-1.552,2.978-2.512,4.849-5.618,6.592-6.666,7.018-1.735.468-2.239-.468-.868-.767-2.056.3a5.881,5.881,0,0,0-2.19,3.4c-.458,1.7-1.464,1.7-2.514,2.978s-1.323.98-.548,2.426,2.054,2.978,2.192,4.379a9.121,9.121,0,0,1-1.141,4.341c-.5.892-2.877,1.317-2.833.892a33.626,33.626,0,0,0,0-3.785c-.092-1.233-1.006-1.233-.687-1.616s1.647-1.02.687-1.916-1.644-.126-2.054-1.188.183-1.915-.044-2.3-.916-.807-2.331-.936-1.737,1.275-2.058.04.141-1.36-.5-1.869-1.189-.171-2.829,1.233-1.968,1.106-3.337,1.7-1.37.936-1.05,1.405,1.462,2.508,2.42,2.721,1.646-.426,3.106-.426,1.737.213,1.371.765-1.371,1.108-3.15,2.893-1.237,1.448-.64,2.171a12.644,12.644,0,0,1,2.1,3.02c.641,1.4,0,1.911-.09,2.719a3.727,3.727,0,0,0,.96,3.321c1.187,1.273.363.849.227,1.317s-2.146,4.124-3.06,5.955-.916,2-3.881,4.082a12.283,12.283,0,0,1-5.893,2.592,19.834,19.834,0,0,0-3.791,1.108c-.821.341-.5,1.02-.59,1.446s-.869.042-.735-.6.048-1.106-.363-1.275a2.592,2.592,0,0,0-3.014.594c-1.325,1.277-2.925,1.362-3.474,2.98s-.454,1.064.141,1.743,3.47,3.446,4.154,4.931a9.6,9.6,0,0,1,.869,4.212c.044,1.616-3.291,4.594-4.751,5.572s-1.783,1.913-1.554.381-.639-2.423-1.689-3.572-4.247-2.084-4.843-2.213.229-1.06-.185-1.02-1.368-.213-1.231,1.277-.958,1.02-1.186,2.51-.5,3.018.456,2.891.777,1.319,1.508,2.936.454.723,2.283,2.211,1.369,1.233,1.783,2.723.273,2.339,1.189,3.7.958,1.659-.55.891a8.631,8.631,0,0,1-3.335-2.636c-.595-.936-.956-3.319-1.324-4.508s-2.831-2.594-3.653-3.446-.321-1.53.091-3.488-.183-3.829-.321-5.018a34.756,34.756,0,0,0-1.554-5.658c-.456-1.126-.273-.978-.982,0s-1.253,1.574-1.94,1.574-1.689-.107-1.6-.554.777-2.146.573-2.785-.848-2.681-1.805-3.4a7.338,7.338,0,0,1-2.672-3.4c-.617-1.679-.777-1.191-1.964-.319s-3.907.978-5.208,1.084-.227.745-.546,1.383-1.849,1.466-4.931,4.678-3.548,3.317-4.347,3.658-1.3.233-1.271,1.55a19.712,19.712,0,0,1-.01,3.213,6.862,6.862,0,0,1-.839,2.409,14.15,14.15,0,0,0-.8,2.823,4.047,4.047,0,0,1-1.8,2.253c-1,.723-1,.594-1.462-.468s-2.831-5.146-4.749-8.973-1.462-4.51-1.646-5.616-.219-7.744-.136-8.25c.048-.283-.928.779-1.2,1.317s-.259,1.193-1.353,1.291-1.326.115-2.359-.922-1.51-1.615-1.33-1.586a5.725,5.725,0,0,0,2.06-.454c.683-.341.454-.711.454-.711s-.743.084-1.628.128-.488-.2-1.659-.666-1.434-.51-1.63-1.034-.486-1.263-.655-1.661-.3-.426-.5-.919-.761.084-2.026.113-.976.084-2.5.681-1.751.383-3.472.327a10.967,10.967,0,0,1-3.791-1.092,10.063,10.063,0,0,0-2.283-.355c-1.279-.183-1-.835-1.326-1.375s-.851-.667-2.528-.538a5.344,5.344,0,0,1-2.677-.213c-.944-.253-1.022-.594-1.813-1.39s-.532-.168-1.05-.582a4.412,4.412,0,0,1-1.446-2.082c-.412-1.106-.319-1.347-.793-1.857s-.44-.384-1.919-.384-.8.1-.988.2a9.927,9.927,0,0,0-1.05,1.261c-.41.51.333,1.221.928,1.915s.076.622,1.022,1.673.622.95,1.293,2.409,1.1,1.829,1.247,2.269.291-.171.444-.568a6.494,6.494,0,0,0-.06-1.815,9.094,9.094,0,0,1,.546,1.646c.259,1.048.076,1.062.259,1.731s0,.578,1.142.578a11.359,11.359,0,0,0,3.106-.253c1.265-.3,1.809-1.446,2.4-1.787s.6-1.532.99-1.4.018,1.4.381,2.239.456.538,1.341.908,1.124.582,2.022.922.289.384.777,1.277.458.4.929.709.289.084-.046,1.149a3.584,3.584,0,0,1-1.187,1.941c-.793.866-.793.6-.914.568s-.366-.639-.366-.639a6.679,6.679,0,0,0-.578,2.241c-.076,1.2.4.763-1.052,1.345a11.585,11.585,0,0,0-2.875,1.305c-.562.482-.562,1.12-.883,1.431s-.763.028-1.735.368a3.284,3.284,0,0,0-1.524.9c-.821.622-.092.566-1.141.962a23.306,23.306,0,0,1-3.913,1.42c-.96.1-.761.353-1,.707s-.261.538-1.478.723a15.336,15.336,0,0,0-3.488.725c-.747.367-1.841,1.191-2.633,1.034s-.579-.185-.837-.893a8.518,8.518,0,0,1-.518-2.381,11.152,11.152,0,0,0-1.2-4.054c-.669-1.12-.655-1.193-1.383-2.369a9.9,9.9,0,0,0-1.857-2.622c-.638-.454-.958-.482-1.265-.821s-.123-1.5-.44-2.5a7.976,7.976,0,0,0-1.006-2.51,12.243,12.243,0,0,1-1.857-2.365c-.653-1.179-.7-1.307-1.64-3.12s-1.283-2.042-1.906-3.26-.215-.98-.442-1.7-.823,1.177-1.293,1.546-.715.185-1.1-.894-.7-2.026-.99-1.6-.518.849-.125,2,.582.9,1.1,2,1.932,3.831,2.51,4.963a7.879,7.879,0,0,1,.885,2.3,4.638,4.638,0,0,0,1.55,2.635c.719.711.6.341.916,1.5a14.478,14.478,0,0,1,.245,3.235c.044.707.44,1.076,1.293,1.785s.426.454.821,1.2a16.852,16.852,0,0,1,1.022,2.552,2.248,2.248,0,0,0,1.171,1.574,11.506,11.506,0,0,0,1.524.611c.669.241.438.41.9.992s1.341,1.02,1.891,1.943.181.651.149,1.544-.317.482.078.95a11.846,11.846,0,0,0,2.235,1.614c1.158.767.233.229,1.265.2a10.252,10.252,0,0,0,2.361-.54c1.108-.241,2.542-.653,3.911-.978s2.709-.538,3.411-.767.717.542.181,1.731-.789,2.183-1.247,3.148-.626,1.048-.96,1.829-2.59,3.967-3.058,4.975a12.439,12.439,0,0,1-1.721,2.652,37.115,37.115,0,0,1-3.837,3.16c-1,.807-.747.807-1.492,1.759s-3.014,3.586-3.626,4.522a19.324,19.324,0,0,0-1.413,2.2c-.456.922-1.749,2.225-1.827,2.891s-.805.753-.259,1.335.837.679,1.036,1.416-.611,1.574-.091,2.922.151.384.93,1.46.745,1.759.819,3.333a17.258,17.258,0,0,1-.09,4.152,19.315,19.315,0,0,1-.928,2.61c-.349.92-2.269,1.546-3.4,2.04s-1.078.3-1.6.922a20.979,20.979,0,0,0-2.51,2.891c-.506.966-.883.865-.685,1.476s.62,1.4,1.141,2.538.152,1.048.03,2.028-.106.823-.243,2.012-1.538,1.219-3.136,1.843-1.02.313-1.2,1.177a35.065,35.065,0,0,0-.136,3.586c-.06,1.022-.546.611-1.416,1.872s-1.217,1.859-2.147,3.375a5.543,5.543,0,0,1-2.026,2.255c-1.171.948-2.1,1.189-2.616,2.281s-1.112.37-3.624,1.177-.685.414-3.074.681-3.245.456-4.508.681-1.1-.068-1.873-.92-.9-.783-1.245-1.49-.092-.879-.2-2.156a3.38,3.38,0,0,0-.682-2.112,12.261,12.261,0,0,1-.96-2.183,10.359,10.359,0,0,0-1.327-2.466c-.576-.852-.745-.58-1.277-1.135a2.774,2.774,0,0,1-.671-1.815c-.121-.779-.305-2.622-.562-4.566s-.03-.908-.337-1.729-.669-1.815-1.187-2.906a15.762,15.762,0,0,0-1.127-2.156,13,13,0,0,1-1.218-2.337c-.5-1.179-.576-.655-.607-1.109s.257-1.275.289-2.068.289-1.715.484-2.936-.271-1.2.245-2.042a13.334,13.334,0,0,0,1.387-2.552,4.516,4.516,0,0,0,.287-2.2,4.007,4.007,0,0,0-.486-2.112c-.366-1.006-.5-2.184-.944-3.8a9.588,9.588,0,0,1-.49-2.185,15.156,15.156,0,0,0-.669-2.877c-.3-.849-.456-.51-1.124-1.062s-.229-.313-.807-.924-.472-.807-1.036-1.474a8.2,8.2,0,0,1-1.1-1.445c-.454-.751-.209-.3-.149-1.56s.424-3.672.655-5.062.275-1.317-.259-1.9-.916-1.418-1.325-1.558-1.4.14-2.847.113-1.385-.354-2.008-1.078-1.45-1.729-1.739-2-.791-.257-3.255-.072-.976.229-2.622.484-2.283,1.118-3.546,1.56-1.628.325-3.851-.115-3.333.512-4.461.994a2.155,2.155,0,0,1-2.5-.313,16.084,16.084,0,0,0-2.574-1.659c-1.261-.624-.974-.964-2.221-1.574s-.839-.639-1.874-1.616-1.11-1.97-1.827-2.992a34,34,0,0,0-2.285-3.53,35.654,35.654,0,0,1-2.373-3.9c-.474-.655-.835-.711-.823-1.022s.93-2.141,1.311-3.09.486-.823.653-1.418a7.824,7.824,0,0,0-.592-3.247c-.367-.938-.777-2.908-1.064-3.829s.148-.936.5-1.458a31.584,31.584,0,0,0,2.054-3.233c.867-1.619,1.355-2.412,1.811-3.164a23.192,23.192,0,0,1,2.195-3.685,21.8,21.8,0,0,1,3.178-2.255c.745-.381,1.355-.594,1.478-.936s.44-3.146.655-4.323-.074-1.829.777-2.283,2.223-1.305,2.939-1.7.821-.992,1.185-1.855.52-1.956,1.068-2.313.4.157,1.11.638a2.927,2.927,0,0,0,1.172.6c.335.086.639-.271,1.478-.283a2.067,2.067,0,0,1,1.43.37c.5.267.227.269,1.66-.61a22.672,22.672,0,0,1,4.445-2.112,19.38,19.38,0,0,1,4.018-1.177c.867-.1.426.012,1.4.4s1.02.552,1.217.267.837-1.078,1.249-1.048.884.2,1.934.383a2.654,2.654,0,0,0,1.919-.143c.424-.227.972-.681,1.078-.681a17.953,17.953,0,0,1,1.737.582c.731.269.745.311.594.494a3.822,3.822,0,0,0-.715,1.177c-.351.795-.185.369.15,1.207s.578.793.426,1.4-.837,1.177-1.339,1.771-.38.695.853,1.391a17.422,17.422,0,0,0,2.329,1.2,16.888,16.888,0,0,0,3.06.879c1.612.482,1.416.538,1.978,1.193s.594,1.275,1.568,1.614a19.809,19.809,0,0,1,2.574.695,5.024,5.024,0,0,0,1.783,1.008c.759.141.757.241,1.124-.313s.669-1.048.534-1.333-.55-.723-.46-.992.733-1.345.93-1.671.7-.414,1.905-.47,2.038-.227,2.237.482.153.383,1.08.767,1.022.381,1.8.68.381.721.777.693a4.764,4.764,0,0,1,1.765.128,13.174,13.174,0,0,0,3.486.908,3.568,3.568,0,0,0,2.178-.47c.213-.1,1.217-1.329,1.813-.48s1.368.865,2.859.779,1.508-.311,1.843-.695a10.358,10.358,0,0,0,1.524-2.821c.287-.992,1.078-3.16,1.291-4.14a5.848,5.848,0,0,0-.091-2.323,3.23,3.23,0,0,1,.291-1.632c.227-.65-.717-.255-1.1-.127s-.486-.2-.835-.3-.717-.185-.976.47-.138.978-1.538.908-1.141-.157-1.6-.655a3.964,3.964,0,0,0-1.859-.807c-.622-.185-.683-.156-.729.241s-.06.666-.516.823a3.972,3.972,0,0,1-2.361-.44,5.7,5.7,0,0,1-1.98-1.448c-.853-.835-.729-.835-1.08-2.124a5.639,5.639,0,0,1-.2-2.779c.148-.384.4-.5-.259-.3s-1.1.309-.657-.667.852-1.022,1.311-1.15a12.29,12.29,0,0,1,2.024-.2,4.955,4.955,0,0,0,1.841-.624c.305-.128.932-.341.61-.426s-1.279-.185-1.112-.454.275-.255.791-.311,1.325-.086,2.012-.127,1.094.084,1.325-.327a3.331,3.331,0,0,1,1.048-1.347c.534-.326,1.112-.157,2.514-.213s1.185.283,1.643.61.761.169,1.357.283.227.468.683.653,1.3.369,2.313.695.351.185,1.6.185a8.628,8.628,0,0,0,2.195-.156,4.414,4.414,0,0,0,2.1-1.036c.7-.494.213-1.574-.044-2.409s-1.357-1.373-1.859-1.757-1.582-1.6-2.16-2.1a9.838,9.838,0,0,0-1.889-.992c-.639-.357-1.781-.938-1.888-1.406s.245-.48,1.189-.707.641-.426.819-.924.261-.482,1.036-.765-.9-.879-1.127-1.2.518-.229,1.3-.414a1.052,1.052,0,0,0,.944-.879c.109-.326.074-.482-.837-.466a17.685,17.685,0,0,0-3.608.807c-1.538.41-.835.426-1.765,1.148s-.99.41-.867.807.181.779,1.125,1.277.546.51.809.582.9.169.608.255-.55.536-.976.536-.61.44-1.339.851a3.876,3.876,0,0,1-1.583.554c-.532.084-.914-.086-.839-.994s-.273-.3-.837-.508a2.091,2.091,0,0,1-.777-.456,6.392,6.392,0,0,0,1.128-.552,2.179,2.179,0,0,0,1.1-1.261c.273-.695-.611-.313-1.249-.4s-.458-.143-1.08-.227a1.17,1.17,0,0,1-.868-.58,1.9,1.9,0,0,0,.821.056c.532-.056.414-.2.609-.341s.353-.269.2-.269-.807.071-1.247.042a4.707,4.707,0,0,0-1.341,0c-.64.1-.381.339-.837.636a1.631,1.631,0,0,0-.715.839c-.243.438-.321.367-.488.651a3.943,3.943,0,0,0-.152,1.476,1.435,1.435,0,0,1-.412,1.034c-.289.4-.289.227-.777.466s-.167.414-.227.9-.229.667-.275,1.291-.289.65-.668,1.09-.595.438-.625.893a5.432,5.432,0,0,0,0,1.53c.107.879.35.652,1.036,1.546s1.05.554.805,1.006-.2.285-1.036.185-.972.028-1.58.61-.735.908-1.052,1.12-.213-.426-.333-.725-1.524-.4-2.484-.681a11.639,11.639,0,0,0-1.462-.454,2.72,2.72,0,0,0-1.62.5c-1,.552-.777.871-.707,1.594s.866.871.639,2.572.845.916,1.3,1.958.046.956-.227,1.084-.548,1.02-.755,1.871.022.958-.229.915-.546.149-1.026-.554-.867-.04-.938-.446-.662-1.084-.433-2.02.594-1.022-.229-1.51-.614-.554-1-1.554a5.618,5.618,0,0,0-1.231-2.1c-.757-.913-.688-.659-.482-1.574a3.836,3.836,0,0,0-.092-2.743,15.28,15.28,0,0,0-3.905-3.233c-1.552-.827-1.871-.191-2.558-1.51s-1-2.7-2.144-3.51-.57-.872-1.667-.466-1.12.574-1.028.892a2.728,2.728,0,0,1,.181,1.618c-.161.869-.388.594.755,1.273s.663.534,1.233,1.787a6.333,6.333,0,0,0,1.12,2,2.61,2.61,0,0,0,1.759,1.213c1.14.255.958-.064,1.253.213s-.8.381-.592.51a10.425,10.425,0,0,0,1.415,1.085,7.54,7.54,0,0,1,2.195,1.68c.251.468,1.094,2.231-.138.934s-1.255-.7-1.6.193.317,1.574.275,2.233-.618.406-1.008.936-.592,1.169-1.05,1.51-.319-.382-.568-.382-.344.317-.663.934,0,.873.135,1.7.367.893-.524.851-.687-.873-1.506-1.426-1.3-.361-1.988-.789.3-.53,2.01-.743,1.918-.381,2.444-.785.341-.512.914-1.319,0-1.128-.389-2.108a3.578,3.578,0,0,0-1.37-1.614,13.817,13.817,0,0,1-1.323-1.317,3.207,3.207,0,0,0-1.9-.851c-.867-.213-.707-1-1.186-1.233a16.49,16.49,0,0,1-2.056-1.935c-1.094-1.02-.682-1.787-1.187-2.679s-1-1.574-2.1-1.574-1.918.765-3.014,1.827-.867,1.574-2.147.767-1.733-.723-2.65.042-1.094,1.532-1.094,3.062-1.1.893-1.964,1.317-1.644,1.49-2.968,4,.09,1.317-.185,2.169.093,1.532-1.14,2.636-.687-.126-1.416.767a3.568,3.568,0,0,1-3.472,1.4c-1.737-.213-1.235.468-2.331.723s-1.689.638-1.416-.6.046-1.062-2.054-.978-2.833.639-2.65.341a7.373,7.373,0,0,0,.506-2c.229-1.191.546-1.574.229-1.574s-1.008.173-.5-1.956.685-2.51.456-3.743.089-2.893-.181-3.616.546-1.444.181-1.829-.777-.891-.5-.891a19.2,19.2,0,0,1,2.877.3c1.464.255,2.968-.213,3.837-.128s2.694.468,4.52.767,1.781-.257,1.6-2.935.136-3.911-.414-4.466-1.138-.51-1.733-1.233-.138-1.787-1.415-2.171-2.7-.084-2.01-.339.958-.341.229-.894-.918-1.146-.367-1.235,2.1-.084,2.1-.084.138.767.962.426,1.871-.679,1.644-1.233-.641-1.233-.506-1.233a2.77,2.77,0,0,0,2.193.765c1.737,0,1.6-.255,1.464-.978s1.142-.681,2.01-1.277-.321-1.275-.137-1.827,1.187-.9,2.968-1.02,1.46-.428,1.279-.639.046-1.108.181-2.255-.135-1.532.779-2.084.638-.339,2.512-.512.729-.594,1.048-.679,2.558-.639,2.97-.811.367-.124,0-.936-.867-1.273-1.277-5.016-.321-3.743,1.962-4.423,1.783-.468,1.6,1.617-1.187,2.084-1.416,3.614a5.322,5.322,0,0,0,.914,4.084c.962,1.616.869.807,2.923.807s1.6.51,2.968.978.913-.849,2.241-1.319,1.048.3,4.154-.169c1.185-.178,1.588-.221,1.68-.229-.094.006-.436.01-.082-.2.731-.426.913-1.191,1.966-1.319s1.779.3,1.733-1.319-.638-1.359-.456-2.594.227-.679.319-1.659-.134-1.148,1.189-1.488.411,1.191,2.008,1.53,1.371.6,1.647-.636,1.142-2.851.363-2.765-.958-.042-1.735-1.191-1.231-1.4-.729-1.4a26.571,26.571,0,0,1,4.61-.383c2.42.084,3.108.3,3.243.042s-.41-.508.412-1.02,3.518.255,3.106-.213a7.066,7.066,0,0,0-4.383-.849c-1.6.253-5.482.723-6.076.679a4.237,4.237,0,0,1-1.964-.763c-.273-.3-1.142-.512-1.142-1.915s.5-1.956-.319-3.317,1.506-2.51,3.106-3.955,1.188-2.638,2.144-2.723,1.329-.595.869-1.064-2.146-2.084-2.97-2.253-2.054-1.106-3.333,1.106.09,2.423.321,3.572-1.783,2-3.291,3.062-2.052.809-2.512,3.53-.914,2.809.777,3.743,2.01,1.4,1.235,2.211-2.421.767-3.428,2.683-.592,2.847-1,3.7-1.689,1.233-2.056,2.085-.363,2.466-1.917,2.213-.685-2.341-1.371-3.405-1.233-1.956-2.054-3.273-.181-2.594-.96-3.277a3.8,3.8,0,0,1-.96-2.04l-.273.638a7.008,7.008,0,0,1-1.689,2.935,4.615,4.615,0,0,1-5.026,1.572c-1.141-.468-.958-1.572-.958-2.978a42.075,42.075,0,0,1-.046-5.486c.229-2.213.869-2.042,3.291-3.488s2.464-1.361,3.058-2.3a20.392,20.392,0,0,1,3.333-3.106c1.006-.849,2.742-4.082,3.654-6.379s2.6-3.7,4.247-6.166a18.454,18.454,0,0,1,8.313-6.208c3.745-1.574,3.108-1.745,3.972-2.98s1.237-.51,2.7-.807,1.233,0-.229,1.446-2.1,2.978-.867,1.829,2.191-2.51,4.11-2.423,1.142,0,3.016.851,2.193.934,1.145,1.615a5.324,5.324,0,0,1-2.835.512,2.95,2.95,0,0,0,2.329,1.616c1.737.213,2.695-1.361,3.837-.767s1.462,1.02-.092.894-2.008.849-.09,1.53a16,16,0,0,0,4.612,1.106c2.512.341,3.61,2.169,5.526,2.978s4.157.127,3.52,1.874.5,3.443-2.833,4.253-3.245-.257-6.028-1.108a49.282,49.282,0,0,1-4.749-1.7,18.029,18.029,0,0,0,2.008,2.171c1.277,1.189,1.415,2.3,1.277,4.466s-.731,2.765,1.464,3.827,1.873.765,2.556.6,1.827-.383,1.552-.725a3.264,3.264,0,0,0-1.233-1.317.81.81,0,0,1-.044-1.532c.729-.383,1.414.339,3.014.255s0-.594.775-1.4.826-2.169,2.7-2.9,3.879.341,4.385-.466,1.05-1.743,0-2.978-1.873-1.656-1.235-2.255,1.919-2.168,2.514-1.275,2.1,1.874.183,1.7-.6,2.851,1.141,2.68,1.6-.723,3.016-1.4,4.2-2.936,6.164-3.616,2.375-.51,3.151-.169.777.978,2.925.553,2.785-.936,4.795-1.277-.136.725.775,1.02,1.006.554,1.693.088,2.877-1.235,1.873-2-1.739-1.277-1.739-1.277a2.734,2.734,0,0,1,2.651-1.488c1.917.126,4.839,1.913,6.714,3.19a26.949,26.949,0,0,1,4.156,4,5,5,0,0,0,.134-3.743c-.685-2.337-2.419-1.785-2.419-4s-1.6-1.619-1.05-3.191,2.1-2.171,2.514-4.171.775-3.654,2.191-3.654,4.476.424,4.476.424a13.026,13.026,0,0,1-1.143,4.552c-1.14,2.721.595,3.02.321,6.337s-.321,3.743.456,4.507,2.241,1.7,1.69,3.146-.823,2.341-2.877,3.148-4.658.341-3.7.98a9.12,9.12,0,0,0,3.564,1.4c1.371.213.685-.085,1.781-.978s3.564-2.681,3.472-3.532-1.416-2.169-.5-2.807,1.277-1.614,2.694-.807,2.787,3.829,2.787,3.7a8.383,8.383,0,0,0-1.964-4.676c-1.691-1.7-4.476-.088-4.476-1.574s.775-3.532.592-5.148-.819-3.233.229-4.634a5,5,0,0,0,1.1-2.51,6,6,0,0,1,.09,2.976c-.363,1.659.185,2.638.96,2.638s4.247.044,2.376-.51-2.42-1.064-.548-2.084,1.781-.341,4.52.3,3.379,1.106,4.3,1.064.777-.128.456-.936a3.635,3.635,0,0,0-1.6-1.916c-.869-.552-1.46.128-1.735-.723s-.775-2.978-1.006-3.785.687-.171,2.147-.171,5.435-.213,8.5-.3.046-3.275-.185-5.53,5.664-2.339,8.54-2.763,6.213-.3,11.6-1.574,1.919-1.064,2.695-2.594,2.1-1.787,3.7-1.787,3.062.3,2.468.51-2.375,1.1.41,1.7,2.058.55.594,1.062-.227,1.445,2.6,1.445,1.142-.255.684-1.191.414-.6,2.743-.213,3.243.767,4.522,1.956,1.506.9,1.962,2.554-.044,1.4-2.008,2.934-3.151,1.532-5.983,3.319-2.148,2.721-3.7,3.911-1.142.851,2.144,0,5.07-1.4,6.763-1.233,2.51.807,3.789.807a25.35,25.35,0,0,0,3.929.213c4.018,0,3.421,0,1.962,1.148s.275,1.49,2.056,1.49a40.675,40.675,0,0,0,5.616-.171c1.649-.255.231-1.488,2.195-1.574s2.6-.255,4.7-.255,1.462.852,2.192,1.616,1.735,1.275,1.05,2.807-1.05,1.572-.641,3.656,1.464,2.381,2.743,2.765,1.277-1.869,2.512-2.636,1.508,1.53,2.924,1.191a8.4,8.4,0,0,1,4.247.211,6.894,6.894,0,0,0,4.02.215c1.735-.383,1.186-1.062.594-2.126s-.641-.98.456-2.084,1.827-.554,5.389.381,2.422.936,4.429,1.49,1.371.426,4.431,1.829,2.468,3.062,3.881,3.953,1.508,0,4.341-.253,2.785.339,5.891,1.148,2.281,1.827,2.281,2.723-.865,1.574,1.052,2,2.694.807,4.339.384.183.424,3.837.466,2.421-.424,3.518.341,1.369,2.3,3.151,2.128,1.644-.128.914-1.7-1.189-1.831-.137-1.787,3.2.51,7.168,1.148,4.11,1.361,7.357,3.4,4.152,2.211,6.53,4.04a5.487,5.487,0,0,1,1.1.95,5.724,5.724,0,0,1,1.227.5c2.554,1.191,2.1.809,4.293,1.872a24.974,24.974,0,0,1,4.06,2.552S795.3,384.49,793.659,384.661ZM580.568,427.888s-.243.325,1.036-.7-.6-.042-1.327-.255-.96-.554-.729-1.488-.092-.938-.869-2.171c0,0-.412-.253-1.277.255s-1.37-.508-2.422-.127-2.193.213-2.833,1.787-1.37.552-1.6,1.827-2.195,1.956-2.195,1.956.779.767,1.371,1.49.183.257.775,2.639,1.008,2.169,1.829,2.508a18.047,18.047,0,0,1,2.1,1.15s-.775-.47-.775.807-1.235,2.168-1.1,4.04-1.689,3.614-.227,3.787,1,.807,2.6,1.233a15.044,15.044,0,0,0,4.843.723c2.327,0,1.048-.893.729-2.213a17.987,17.987,0,0,1-.592-3.614c-.092-1.446-.64-1.064-1.006-1.955s.183-1.406,1.277-1.406,1.237-.042.641-1.02-.225-1.361-.962-1.787-1.048,1.405-1.048,1.405-.456-.425-.273-2.213.319-.936-.227-1.277-.871.084-1.6-1.1-.09-.935-.958-2.381-.414-.683.546-.683.456-.213,0-.679-.775-1.192.456-1.106,2.833.339,3.426.384S580.568,427.888,580.568,427.888Zm-170.4-65.533c-.421.727.715,1.658,1.538,1.369s1.092.032,1.56-.343.512-.922-.044-1.462-.331-.856-.424-.914C411.753,360.363,410.6,361.628,410.172,362.355Zm225.781-46.894c-1.235.042-2.606.086-1.462.468s.685,2.3,2.875,1.233,1.737-1.148,3.245-1.787.634-.331-1.187-.807C638.282,314.27,637.185,315.419,635.953,315.461Z" transform="translate(-232.522 -302.552)" fill="#1f2f6a" opacity="0.12"/>
      <g id="Group_1208" data-name="Group 1208" transform="translate(21.858 31.302)">
        <g id="Group_1207" data-name="Group 1207" transform="translate(0 0)" opacity="0.4">
          <path id="Path_20796" data-name="Path 20796" d="M736.89,633.08,721.16,691.8l-14.312-14.311-97.977,97.975-48.646-48.647L459.089,827.958l-51.208-51.208L329.934,854.7l-14.371-14.372,92.318-92.318,51.208,51.208L560.224,698.082l48.646,48.648,83.606-83.607-14.312-14.311Z" transform="translate(-315.563 -577.379)" fill="#fff"/>
          <path id="Path_20797" data-name="Path 20797" d="M738.966,627.919l-15.733,58.725-14.309-14.311-97.977,97.975L562.3,721.661,461.163,822.8,409.955,771.59l-77.947,77.946-14.371-14.369,92.318-92.318,51.208,51.208L562.3,692.921l48.649,48.648,83.605-83.608L680.24,643.65Z" transform="translate(-317.091 -573.577)" fill="#f9fafa"/>
          <path id="Path_20798" data-name="Path 20798" d="M741.038,622.758l-15.73,58.725L711,667.172l-97.977,97.976L564.372,716.5,463.236,817.634l-51.208-51.208-77.947,77.949-14.371-14.37,92.318-92.318L463.236,788.9,564.372,687.76l48.647,48.649L696.624,652.8l-14.312-14.311Z" transform="translate(-318.618 -569.774)" fill="#f3f5f6"/>
          <path id="Path_20799" data-name="Path 20799" d="M743.111,617.6l-15.73,58.725L713.069,662.01l-97.977,97.976-48.647-48.648L465.31,812.473,414.1,761.266l-77.947,77.949-14.371-14.372L414.1,732.527l51.208,51.208L566.445,682.6l48.647,48.646L698.7,647.639l-14.314-14.311Z" transform="translate(-320.146 -565.971)" fill="#ecf0f1"/>
          <path id="Path_20800" data-name="Path 20800" d="M745.186,612.435,729.454,671.16l-14.309-14.311-97.977,97.976-48.649-48.648L467.384,807.312,416.176,756.1l-77.947,77.949-14.371-14.372,92.318-92.316,51.208,51.208L568.518,677.437l48.649,48.646,83.605-83.606-14.312-14.311Z" transform="translate(-321.675 -562.168)" fill="#e6ebed"/>
          <path id="Path_20801" data-name="Path 20801" d="M747.259,607.274,731.528,666l-14.312-14.311-97.978,97.977-48.646-48.648L469.457,802.151l-51.208-51.208L340.3,828.892,325.931,814.52,418.249,722.2l51.208,51.208L570.593,672.276l48.646,48.647,83.605-83.607-14.312-14.311Z" transform="translate(-323.202 -558.366)" fill="#e0e6e8"/>
          <path id="Path_20802" data-name="Path 20802" d="M749.332,602.113,733.6,660.838,719.29,646.527,621.315,744.5l-48.649-48.649L471.531,796.991l-51.208-51.208-77.947,77.949-14.371-14.372,92.318-92.318,51.208,51.21L572.666,667.115l48.649,48.647,83.605-83.607-14.312-14.311Z" transform="translate(-324.73 -554.563)" fill="#dae2e4"/>
          <path id="Path_20803" data-name="Path 20803" d="M751.407,596.952l-15.73,58.725-14.312-14.311-97.977,97.977-48.649-48.649L473.605,791.83,422.4,740.622,344.45,818.571,330.079,804.2,422.4,711.881l51.208,51.208L574.739,661.954,623.388,710.6l83.605-83.607-14.312-14.311Z" transform="translate(-326.258 -550.761)" fill="#d3dddf"/>
          <path id="Path_20804" data-name="Path 20804" d="M753.479,591.791l-15.73,58.725L723.438,636.2,625.46,734.18l-48.646-48.647L475.678,786.669,424.47,735.461l-77.947,77.946-14.371-14.369L424.47,706.72l51.208,51.208L576.814,656.793l48.646,48.648,83.606-83.607-14.312-14.312Z" transform="translate(-327.785 -546.958)" fill="#cdd8db"/>
          <path id="Path_20805" data-name="Path 20805" d="M755.552,586.629l-15.73,58.725L725.51,631.043l-97.975,97.975-48.649-48.647L477.752,781.508,426.544,730.3,348.6,808.246l-14.371-14.369,92.318-92.318,51.208,51.208L578.886,651.631l48.649,48.648,83.606-83.608L696.83,602.36Z" transform="translate(-329.313 -543.155)" fill="#c7d3d6"/>
          <path id="Path_20806" data-name="Path 20806" d="M757.628,581.468,741.9,640.193l-14.312-14.311-97.978,97.976L580.962,675.21,479.826,776.347l-51.208-51.208-77.947,77.946L336.3,788.716,428.618,696.4l51.208,51.208L580.962,646.47l48.646,48.649,83.605-83.608L698.9,597.2Z" transform="translate(-330.841 -539.353)" fill="#c1ced1"/>
          <path id="Path_20807" data-name="Path 20807" d="M759.7,576.307l-15.73,58.725-14.311-14.311L631.681,718.7l-48.647-48.647L481.9,771.186l-51.208-51.21-77.947,77.949-14.371-14.369,92.318-92.318L481.9,742.445,583.034,641.309l48.647,48.649,83.608-83.608-14.312-14.312Z" transform="translate(-332.369 -535.55)" fill="#bbc9cd"/>
          <path id="Path_20808" data-name="Path 20808" d="M761.776,571.146l-15.733,58.725L731.734,615.56l-97.977,97.976-48.649-48.648L483.973,766.023l-51.208-51.208-77.947,77.949-14.371-14.372,92.318-92.316,51.208,51.208L585.107,636.148l48.649,48.647,83.605-83.606L703.05,586.877Z" transform="translate(-333.897 -531.748)" fill="#b4c4c8"/>
          <path id="Path_20809" data-name="Path 20809" d="M763.849,565.984l-15.73,58.725L733.807,610.4l-97.978,97.976-48.646-48.648L486.047,760.861l-51.208-51.208L356.892,787.6,342.521,773.23l92.318-92.315,51.208,51.208L587.183,630.986l48.646,48.648,83.605-83.607-14.312-14.311Z" transform="translate(-335.425 -527.944)" fill="#aebfc4"/>
          <path id="Path_20810" data-name="Path 20810" d="M765.921,560.823l-15.73,58.725-14.312-14.311L637.9,703.214l-48.647-48.648L488.12,755.7l-51.208-51.208-77.947,77.949-14.371-14.372,92.318-92.317,51.208,51.209L589.255,625.825,637.9,674.473l83.608-83.607L707.2,576.554Z" transform="translate(-336.952 -524.142)" fill="#a8babf"/>
          <path id="Path_20811" data-name="Path 20811" d="M768,555.662l-15.73,58.725-14.311-14.311-97.978,97.977L591.328,649.4,490.194,750.54l-51.208-51.208-77.947,77.949-14.371-14.372,92.318-92.317L490.194,721.8,591.328,620.664l48.649,48.648L723.583,585.7l-14.312-14.311Z" transform="translate(-338.48 -520.339)" fill="#a2b5bb"/>
          <path id="Path_20812" data-name="Path 20812" d="M770.069,550.5l-15.73,58.725-14.311-14.311L642.05,692.889,593.4,644.243,492.268,745.379,441.06,694.171,363.113,772.12l-14.371-14.372,92.318-92.317,51.208,51.207L593.4,615.5,642.05,664.15l83.605-83.607-14.312-14.312Z" transform="translate(-340.008 -516.537)" fill="#9bb1b6"/>
          <path id="Path_20813" data-name="Path 20813" d="M772.142,545.34l-15.73,58.725L742.1,589.754l-97.977,97.975-48.647-48.647L494.342,740.218l-51.208-51.208-77.947,77.949-14.371-14.372,92.318-92.318,51.208,51.208L595.476,610.342l48.647,48.648,83.608-83.607L713.42,561.071Z" transform="translate(-341.537 -512.734)" fill="#95acb1"/>
          <path id="Path_20814" data-name="Path 20814" d="M774.217,540.178,758.487,598.9l-14.312-14.311L646.2,682.567,597.549,633.92,496.415,735.057l-51.208-51.21L367.26,761.8l-14.371-14.369,92.318-92.318,51.208,51.208L597.549,605.18,646.2,653.828,729.8,570.221l-14.312-14.312Z" transform="translate(-343.064 -508.931)" fill="#8fa7ad"/>
          <path id="Path_20815" data-name="Path 20815" d="M776.29,535.017l-15.73,58.725-14.312-14.311-97.977,97.976-48.647-48.647L498.489,729.893l-51.208-51.208-77.947,77.949-14.371-14.372,92.318-92.316,51.208,51.208L599.624,600.019l48.647,48.648,83.608-83.607-14.312-14.311Z" transform="translate(-344.592 -505.129)" fill="#89a2a8"/>
          <path id="Path_20816" data-name="Path 20816" d="M778.366,529.856l-15.733,58.725L748.324,574.27l-97.977,97.976L601.7,623.6,500.563,724.733l-51.208-51.208-77.947,77.949L357.037,737.1l92.318-92.316,51.208,51.208L601.7,594.858l48.649,48.648L733.952,559.9,719.64,545.587Z" transform="translate(-346.12 -501.326)" fill="#839da4"/>
          <path id="Path_20817" data-name="Path 20817" d="M780.438,524.7l-15.73,58.725L750.4,569.109l-97.977,97.976-48.647-48.648L502.636,719.572l-51.208-51.208-77.947,77.949L359.11,731.941l92.318-92.316,51.208,51.209L603.772,589.7l48.647,48.648,83.605-83.607-14.312-14.312Z" transform="translate(-347.647 -497.524)" fill="#7c989f"/>
          <path id="Path_20818" data-name="Path 20818" d="M782.511,519.534l-15.73,58.725-14.312-14.311-97.977,97.977-48.647-48.648L504.71,714.411,482.269,691.97,453.5,663.2l-77.947,77.949L361.184,726.78,453.5,634.463l51.208,51.209L605.845,584.536l48.647,48.648L738.1,549.576l-14.312-14.311Z" transform="translate(-349.175 -493.721)" fill="#76939b"/>
          <path id="Path_20819" data-name="Path 20819" d="M784.586,514.372,768.856,573.1l-14.312-14.311-97.977,97.977-48.649-48.649L506.784,709.25l-51.208-51.208-77.947,77.949-14.371-14.372L455.576,629.3l51.208,51.209L607.918,579.374l48.649,48.648,83.605-83.607L725.861,530.1Z" transform="translate(-350.704 -489.918)" fill="#708e96"/>
          <path id="Path_20820" data-name="Path 20820" d="M786.659,509.211l-15.73,58.725-14.312-14.311L658.639,651.6l-48.646-48.649L508.857,704.089l-51.208-51.208L379.7,730.83l-14.371-14.372,92.318-92.317,51.208,51.207L609.993,574.213l48.646,48.648,83.605-83.607-14.312-14.311Z" transform="translate(-352.231 -486.115)" fill="#6a8992"/>
          <path id="Path_20821" data-name="Path 20821" d="M788.732,504.05,773,562.775,758.69,548.464l-97.977,97.975-48.647-48.646L510.931,698.928l-51.208-51.208-77.947,77.946L367.4,711.3l92.318-92.318,51.208,51.207L612.066,569.052,660.712,617.7l83.608-83.607-14.312-14.311Z" transform="translate(-353.759 -482.313)" fill="#64848d"/>
          <path id="Path_20822" data-name="Path 20822" d="M790.807,498.889l-15.73,58.725L760.765,543.3l-97.977,97.975-48.649-48.647L513.005,693.768,461.8,642.56,383.85,720.506l-14.371-14.369L461.8,613.818l51.208,51.208L614.139,563.891l48.649,48.648,83.605-83.607L732.082,514.62Z" transform="translate(-355.287 -478.51)" fill="#5d8088"/>
          <path id="Path_20823" data-name="Path 20823" d="M792.879,493.728l-15.73,58.725-14.312-14.311L664.86,636.117,616.214,587.47,515.078,688.607,463.87,637.4l-77.947,77.946-14.371-14.37,92.318-92.318,51.208,51.208L616.214,558.73l48.646,48.648,83.606-83.607-14.312-14.312Z" transform="translate(-356.814 -474.708)" fill="#577b84"/>
          <path id="Path_20824" data-name="Path 20824" d="M794.955,488.566l-15.733,58.725L764.913,532.98l-97.977,97.976-48.649-48.648L517.152,683.443l-51.208-51.208L388,710.184l-14.371-14.372L465.944,603.5,517.152,654.7,618.286,553.568l48.649,48.648,83.605-83.607L736.23,504.3Z" transform="translate(-358.342 -470.905)" fill="#51767f"/>
          <path id="Path_20825" data-name="Path 20825" d="M797.028,483.4,781.3,542.13l-14.312-14.311-97.978,97.976-48.646-48.648L519.226,678.282l-51.208-51.208-77.947,77.949L375.7,690.651l92.318-92.316,51.208,51.208L620.362,548.407l48.646,48.648,83.606-83.607L738.3,499.136Z" transform="translate(-359.87 -467.102)" fill="#4b717b"/>
          <path id="Path_20826" data-name="Path 20826" d="M799.1,478.244l-15.73,58.725-14.312-14.311-97.977,97.977-48.647-48.648L521.3,673.121l-51.208-51.208-77.947,77.949L377.774,685.49l92.318-92.317L521.3,644.382,622.435,543.246l48.647,48.648,83.608-83.607-14.314-14.311Z" transform="translate(-361.399 -463.3)" fill="#446c76"/>
          <path id="Path_20827" data-name="Path 20827" d="M801.176,473.083l-15.733,58.725L771.134,517.5l-97.977,97.977-48.649-48.648L523.373,667.961l-51.208-51.208L394.218,694.7,379.847,680.33l92.318-92.317,51.208,51.207L624.507,538.085l48.649,48.648,83.605-83.607L742.45,488.814Z" transform="translate(-362.926 -459.497)" fill="#3e6772"/>
          <path id="Path_20828" data-name="Path 20828" d="M803.249,467.921l-15.73,58.725-14.312-14.311L675.229,610.31l-48.647-48.646L525.447,662.8l-51.208-51.208L396.292,689.54l-14.371-14.372,92.318-92.317,51.208,51.207L626.583,532.923l48.647,48.648,83.605-83.607-14.312-14.312Z" transform="translate(-364.454 -455.694)" fill="#38626d"/>
          <path id="Path_20829" data-name="Path 20829" d="M805.322,462.76l-15.73,58.725L775.28,507.174,677.3,605.149,628.656,556.5,527.521,657.638l-51.208-51.208-77.947,77.946-14.371-14.37,92.318-92.318L527.521,628.9,628.656,527.762,677.3,576.41,760.91,492.8,746.6,478.491Z" transform="translate(-365.982 -451.891)" fill="#325d68"/>
          <path id="Path_20830" data-name="Path 20830" d="M807.4,457.6l-15.73,58.725-14.312-14.311-97.977,97.976-48.649-48.648L529.594,652.478,478.386,601.27l-77.947,77.946-14.371-14.369,92.318-92.318,51.208,51.207L630.728,522.6l48.649,48.648,83.605-83.607L748.671,473.33Z" transform="translate(-367.509 -448.089)" fill="#2c5864"/>
          <path id="Path_20831" data-name="Path 20831" d="M809.469,452.438l-15.73,58.725-14.312-14.311L681.45,594.828,632.8,546.18,531.668,647.317,480.46,596.108l-77.947,77.948-14.371-14.37,92.318-92.318,51.208,51.208L632.8,517.44l48.647,48.648,83.605-83.607-14.312-14.311Z" transform="translate(-369.037 -444.286)" fill="#25535f"/>
          <path id="Path_20832" data-name="Path 20832" d="M811.542,447.277,795.812,506,781.5,491.691l-97.975,97.976-48.649-48.648L533.742,642.156l-51.208-51.209-77.947,77.948-14.371-14.372,92.318-92.316,51.208,51.208L634.876,512.279l48.649,48.648,83.605-83.607L752.82,463.008Z" transform="translate(-370.565 -440.484)" fill="#1f4f5b"/>
          <path id="Path_20833" data-name="Path 20833" d="M813.617,442.115l-15.73,58.725-14.312-14.311L685.6,584.5l-48.647-48.648L535.815,636.992l-51.208-51.207L406.66,663.733l-14.371-14.372,92.318-92.316,51.208,51.208L636.951,507.117,685.6,555.765,769.2,472.158l-14.312-14.312Z" transform="translate(-372.093 -436.681)" fill="#194a56"/>
          <path id="Path_20834" data-name="Path 20834" d="M815.69,436.954l-15.73,58.725-14.311-14.311-97.978,97.976L639.024,530.7,537.889,631.831l-51.208-51.207-77.947,77.948L394.363,644.2l92.318-92.317,51.208,51.209L639.024,501.956,687.671,550.6,771.279,467l-14.311-14.311Z" transform="translate(-373.621 -432.878)" fill="#134552"/>
          <path id="Path_20835" data-name="Path 20835" d="M817.766,431.793l-15.733,58.725-14.309-14.311-97.977,97.976L641.1,525.535,539.963,626.671l-51.208-51.208-77.947,77.949-14.371-14.372,92.318-92.317,51.208,51.209L641.1,496.795l48.649,48.648,83.605-83.607L759.04,447.524Z" transform="translate(-375.149 -429.076)" fill="#0c404d"/>
          <path id="Path_20836" data-name="Path 20836" d="M819.839,426.632l-15.73,58.725L789.8,471.046l-97.978,97.976-48.647-48.648L542.037,621.51,490.829,570.3l-77.947,77.949-14.371-14.372,92.318-92.317,51.208,51.209L643.173,491.634l48.647,48.648,83.605-83.607-14.311-14.311Z" transform="translate(-376.677 -425.273)" fill="#063b49"/>
          <path id="Path_20837" data-name="Path 20837" d="M821.911,421.47,806.181,480.2l-14.312-14.311L693.892,563.86l-48.647-48.648L544.11,616.348,492.9,565.14l-77.947,77.949-14.371-14.372L492.9,536.4l51.208,51.207L645.245,486.472l48.647,48.648L777.5,451.513,763.188,437.2Z" transform="translate(-378.204 -421.47)" fill="#003644"/>
        </g>
        <path id="Path_20838" data-name="Path 20838" d="M821.911,421.47,806.181,480.2l-14.312-14.311L693.892,563.86l-48.647-48.648L544.11,616.348,492.9,565.14l-45.284,45.285-32.663,32.664-14.371-14.372,34.195-34.195L492.9,536.4l51.208,51.207L645.245,486.472l48.647,48.648L777.5,451.513,763.188,437.2Z" transform="translate(-378.204 -421.47)" fill="#4c5dd3"/>
      </g>
    </g>
  </g>
</svg>
