<svg xmlns="http://www.w3.org/2000/svg" xmlns:xlink="http://www.w3.org/1999/xlink" viewBox="0 0 30 17.04"><defs><style>.cls-1{fill:#fdfdff;}.cls-2{fill:url(#linear-gradient);}.cls-3{fill:#0268fe;}</style><linearGradient id="linear-gradient" x1="15" y1="8.05" x2="15" y2="14.53" gradientTransform="matrix(1, 0, 0, -1, 0, 16.12)" gradientUnits="userSpaceOnUse"><stop offset="0.21" stop-color="#003efd"/><stop offset="0.24" stop-color="#06f"/><stop offset="0.63" stop-color="#09f"/><stop offset="0.79" stop-color="#6cf"/></linearGradient></defs><title>icon</title><g id="Layer_2" data-name="Layer 2"><g id="Layer_1-2" data-name="Layer 1"><rect class="cls-1" width="30" height="17.04" rx="0.9"/><path class="cls-2" d="M8.32,5.26a3.47,3.47,0,0,0-.44-.83,3.19,3.19,0,0,0-5.17,0A3.07,3.07,0,0,0,2.1,6.31a2.17,2.17,0,0,0,0,.36,3,3,0,0,0,.32,1.08,3.23,3.23,0,0,0,.89,1.08,1.35,1.35,0,0,1,.35-.32A1.18,1.18,0,0,1,4,8.39a1,1,0,0,1,.35-.06,1.2,1.2,0,0,1,1,.53,1.2,1.2,0,0,1,1.5-.42L7,8.52a1.3,1.3,0,0,1,.32.3,3.23,3.23,0,0,0,.87-1.07,3.15,3.15,0,0,0,.31-1,3.59,3.59,0,0,0,0-.47A3.3,3.3,0,0,0,8.32,5.26ZM5.11,3.83h.31V4.1H5.11ZM3,6,2.71,6A2.44,2.44,0,0,1,4.85,3.83l0,.27A2.17,2.17,0,0,0,3,6ZM5.29,7.89A1.58,1.58,0,0,1,3.71,6.22a1.58,1.58,0,1,1,3.16,0A1.59,1.59,0,0,1,5.29,7.89Zm-.76,6.22a0,0,0,0,1,0,.05h-.3a.39.39,0,0,0-.77.09v0a.39.39,0,0,0,.77.12h.3a.29.29,0,0,0,.28-.28v-3.5H4.54Zm-.72.33a.17.17,0,0,1-.16-.17h0a.16.16,0,0,1,.16-.15.17.17,0,0,1,.17.15H4A.18.18,0,0,1,3.81,14.44Zm4.65-1.92a.4.4,0,0,0-.4-.37.39.39,0,0,0-.37.27h-.3a0,0,0,0,1,0,0V10.1H7.11v2.28a.29.29,0,0,0,.28.28h.29a.4.4,0,0,0,.78-.12Zm-.4.19a.16.16,0,0,1-.16-.17h0a.17.17,0,0,1,.16-.15.17.17,0,0,1,.17.15h0A.16.16,0,0,1,8.06,12.71Zm-.65.3a.41.41,0,0,0-.38.28H6.74a0,0,0,0,1,0,0V10.61H6.46v2.63a.28.28,0,0,0,.28.28H7a.41.41,0,0,0,.38.28.4.4,0,0,0,.4-.39v0A.4.4,0,0,0,7.41,13Zm0,.56a.16.16,0,0,1-.16-.17h0a.16.16,0,0,1,.16-.15.17.17,0,0,1,.17.15h0A.17.17,0,0,1,7.41,13.57Zm-.64.29a.4.4,0,0,0-.38.3H6.1a0,0,0,0,1,0-.05V10.59H5.82v3.52a.28.28,0,0,0,.28.28h.3a.39.39,0,0,0,.37.27.4.4,0,0,0,.4-.4v0A.41.41,0,0,0,6.77,13.86Zm0,.56a.16.16,0,0,1-.16-.16h0a.16.16,0,0,1,.16-.16.17.17,0,0,1,.17.16h0A.17.17,0,0,1,6.77,14.42Zm-1.36.25V9.84H5.18v4.83A.4.4,0,0,0,4.9,15v0a.39.39,0,0,0,.39.4.4.4,0,0,0,.4-.4v0A.41.41,0,0,0,5.41,14.67Zm-.12.55a.17.17,0,0,1-.16-.17h0a.15.15,0,0,1,.16-.15.16.16,0,0,1,.17.15h0A.18.18,0,0,1,5.29,15.22ZM2.91,12.65H3.2a.27.27,0,0,0,.28-.28V10H3.25v2.4a0,0,0,0,1,0,.05H2.91a.41.41,0,0,0-.38-.27.4.4,0,0,0-.4.37v0a.4.4,0,0,0,.78.1Zm-.38.06a.17.17,0,0,1-.17-.17h0a.17.17,0,0,1,.17-.15.16.16,0,0,1,.16.15h0A.16.16,0,0,1,2.53,12.71Zm1,.81h.29a.27.27,0,0,0,.28-.28V10.6H3.89v2.64a0,0,0,0,1-.05,0H3.55A.4.4,0,0,0,3.17,13a.39.39,0,0,0-.39.37v0a.39.39,0,0,0,.39.39A.4.4,0,0,0,3.55,13.52Zm-.38.05A.16.16,0,0,1,3,13.4H3a.16.16,0,0,1,.16-.15.17.17,0,0,1,.17.15h0A.17.17,0,0,1,3.17,13.57ZM7.4,9.16,7.28,9A1.47,1.47,0,0,0,7,8.68l-.15-.09a1.39,1.39,0,0,0-.5-.1,1.2,1.2,0,0,0-1,.53,1.2,1.2,0,0,0-1-.53,1.34,1.34,0,0,0-.35,0,.9.9,0,0,0-.28.13A1.07,1.07,0,0,0,3.33,9a1,1,0,0,0-.1.17,1.2,1.2,0,0,0-.13.54,1.21,1.21,0,0,0,1.21,1.21h.16l.25-.07a1.15,1.15,0,0,0,.59-.45,1.28,1.28,0,0,0,.61.46,1.23,1.23,0,0,0,.39.07h0a1.25,1.25,0,0,0,1-.62h0a1.32,1.32,0,0,0,.15-.59A1.38,1.38,0,0,0,7.4,9.16Zm-2.29.67a.82.82,0,0,1-.59.65H4.31a.8.8,0,0,1-.81-.8h0a.73.73,0,0,1,.06-.3.25.25,0,0,1,0-.07l.06-.11a.81.81,0,0,1,.48-.3.47.47,0,0,1,.17,0,.81.81,0,0,1,.8.68.28.28,0,0,0,0,.09v0S5.11,9.78,5.11,9.83Zm1.2.68h0a.64.64,0,0,1-.2,0,.8.8,0,0,1-.6-.65.57.57,0,0,1,0-.13v0s0-.06,0-.09a.82.82,0,0,1,.8-.67A.71.71,0,0,1,6.63,9,.85.85,0,0,1,7,9.2a.81.81,0,0,1,.1.18h0a.79.79,0,0,1,.05.22h0s0,.05,0,.08A.83.83,0,0,1,6.31,10.51ZM12.8,3.05a3.12,3.12,0,0,1,2.11.8l-.71,1a2,2,0,0,0-1.4-.55A1.62,1.62,0,0,0,11.1,6a1.62,1.62,0,0,0,1.7,1.68,2,2,0,0,0,1.4-.55l.71,1A3.12,3.12,0,0,1,12.8,9a3,3,0,1,1,0-5.9Zm7.86.09V4.33H19.07V8.86H17.63V4.33H16.06V3.14ZM21.84,6a3,3,0,1,1,3,2.95A2.95,2.95,0,0,1,21.84,6Zm4.62,0a1.59,1.59,0,1,0-3.17,0,1.59,1.59,0,1,0,3.17,0Z"/><path class="cls-3" d="M14.52,10.66v.22h-.6v1.6h-.26v-1.6h-.61v-.22Z"/><path class="cls-3" d="M17.85,12.48H16.69V10.67h1.16v.21H17v.6h.78v.22H17v.57h.9Z"/><path class="cls-3" d="M20.57,10.64a.92.92,0,0,1,.6.19l-.1.2a.81.81,0,0,0-.5-.16.71.71,0,1,0,0,1.41.88.88,0,0,0,.5-.16l.1.2a1,1,0,0,1-.6.19.94.94,0,1,1,0-1.87Z"/><path class="cls-3" d="M23.38,11.72v.76h-.25V10.67h.25v.84h.85v-.85h.26v1.82h-.26v-.76Z"/></g></g></svg>