<svg xmlns="http://www.w3.org/2000/svg" xmlns:xlink="http://www.w3.org/1999/xlink" width="50" height="50" viewBox="0 0 50 50">
  <defs>
    <filter id="Rectangle_134" x="0" y="0" width="50" height="50" filterUnits="userSpaceOnUse">
      <feOffset dy="3" input="SourceAlpha"/>
      <feGaussianBlur stdDeviation="3" result="blur"/>
      <feFlood flood-opacity="0.161"/>
      <feComposite operator="in" in2="blur"/>
      <feComposite in="SourceGraphic"/>
    </filter>
    <linearGradient id="linear-gradient" x1="0.5" y1="0.405" x2="0.5" y2="-0.118" gradientUnits="objectBoundingBox">
      <stop offset="0.21" stop-color="#003efd"/>
      <stop offset="0.24" stop-color="#06f"/>
      <stop offset="0.63" stop-color="#09f"/>
      <stop offset="0.79" stop-color="#6cf"/>
    </linearGradient>
  </defs>
  <g id="Group_1203" data-name="Group 1203" transform="translate(5146 521)">
    <g transform="matrix(1, 0, 0, 1, -5146, -521)" filter="url(#Rectangle_134)">
      <rect id="Rectangle_134-2" data-name="Rectangle 134" width="32" height="32" rx="16" transform="translate(9 6)" fill="#f8f8fe"/>
    </g>
    <g id="logo" transform="translate(-5132.9 -503)">
      <path id="Path_1" data-name="Path 1" d="M6.091,2.342a2.95,2.95,0,0,0-5.738.963,3.085,3.085,0,0,0,.018.332,2.928,2.928,0,0,0,.3,1,2.964,2.964,0,0,0,.821.994,1.119,1.119,0,0,1,.318-.3A1.123,1.123,0,0,1,2.4,5.173a1.113,1.113,0,0,1,.922.488A1.115,1.115,0,0,1,4.7,5.271a1.089,1.089,0,0,1,.142.077,1.125,1.125,0,0,1,.293.271,2.968,2.968,0,0,0,.8-.979,2.957,2.957,0,0,0,.158-2.3ZM3.129,1.024a0,0,0,0,1,0,0h.28a0,0,0,0,1,0,0V1.27a0,0,0,0,1,0,0h-.28a0,0,0,0,1,0,0Zm-1.963,2L.918,2.993a2.309,2.309,0,0,1,.915-1.555,2.238,2.238,0,0,1,1.056-.415l.029.248a1.99,1.99,0,0,0-.938.368A2.056,2.056,0,0,0,1.166,3.024ZM3.3,4.763A1.457,1.457,0,0,1,1.843,3.225a1.461,1.461,0,1,1,2.917,0A1.463,1.463,0,0,1,3.3,4.763ZM2.6,10.5a.044.044,0,0,1-.044.044H2.288a.366.366,0,0,0-.715.081.2.2,0,0,0,0,.024.366.366,0,0,0,.716.109h.272a.258.258,0,0,0,.258-.258V7.269H2.6Zm-.665.3a.153.153,0,0,1-.152-.152v-.009a.152.152,0,0,1,.3,0v.009A.153.153,0,0,1,1.937,10.8Zm4.286-1.77a.366.366,0,0,0-.713-.087H5.238A.044.044,0,0,1,5.194,8.9V6.8H4.98V8.9a.258.258,0,0,0,.258.258h.268a.366.366,0,0,0,.718-.1A.208.208,0,0,0,6.223,9.033Zm-.365.176a.153.153,0,0,1-.152-.152h0V9.047a.152.152,0,0,1,.3,0v.009A.153.153,0,0,1,5.858,9.209Zm-.6.275a.366.366,0,0,0-.35.26H4.64A.044.044,0,0,1,4.6,9.7V7.27H4.382V9.7a.258.258,0,0,0,.258.258h.268a.366.366,0,0,0,.716-.108.217.217,0,0,0,0-.024A.366.366,0,0,0,5.257,9.484Zm0,.518a.153.153,0,0,1-.152-.152V9.84a.152.152,0,0,1,.3,0v.009A.153.153,0,0,1,5.257,10Zm-.593.27a.366.366,0,0,0-.354.273H4.046A.044.044,0,0,1,4,10.5V7.252H3.788V10.5a.258.258,0,0,0,.258.258h.273a.366.366,0,0,0,.711-.121.216.216,0,0,0,0-.024A.366.366,0,0,0,4.665,10.272Zm0,.518a.153.153,0,0,1-.152-.152v-.009a.152.152,0,0,1,.3,0v.009A.153.153,0,0,1,4.665,10.79Zm-1.255.228V6.563H3.2v4.455a.366.366,0,0,0-.259.326.208.208,0,0,0,0,.024.366.366,0,1,0,.732,0,.216.216,0,0,0,0-.024A.365.365,0,0,0,3.41,11.019Zm-.109.5a.153.153,0,0,1-.152-.152v-.009a.152.152,0,0,1,.3,0v.009A.152.152,0,0,1,3.3,11.521ZM1.1,9.157h.268A.258.258,0,0,0,1.631,8.9V6.678H1.416V8.9a.044.044,0,0,1-.044.044H1.1a.366.366,0,0,0-.713.09.209.209,0,0,0,0,.024.366.366,0,0,0,.719.1Zm-.352.052A.153.153,0,0,1,.6,9.057V9.047a.152.152,0,0,1,.3,0v.009A.152.152,0,0,1,.752,9.209Zm.944.749h.27A.258.258,0,0,0,2.224,9.7V7.261H2.009V9.7a.044.044,0,0,1-.044.044H1.7a.366.366,0,0,0-.715.082.209.209,0,0,0,0,.024.366.366,0,0,0,.716.108ZM1.346,10a.153.153,0,0,1-.152-.152V9.84a.152.152,0,0,1,.3,0v.009A.152.152,0,0,1,1.346,10ZM5.24,5.938a1.087,1.087,0,0,0-.109-.177,1.117,1.117,0,0,0-.293-.271A1.153,1.153,0,0,0,4.7,5.413,1.115,1.115,0,0,0,3.318,5.8,1.114,1.114,0,0,0,2.4,5.316a1.1,1.1,0,0,0-.326.049,1.107,1.107,0,0,0-.577.412,1.085,1.085,0,0,0-.094.155,1.115,1.115,0,0,0,1.146,1.6,1.082,1.082,0,0,0,.228-.056,1.116,1.116,0,0,0,.546-.423,1.116,1.116,0,0,0,.922.488h.011a1.115,1.115,0,0,0,.962-.571h0A1.113,1.113,0,0,0,5.24,5.938Zm-2.109.61a.746.746,0,0,1-.54.6l-.036.009A.747.747,0,0,1,1.65,6.43a.04.04,0,0,1,0-.008A.737.737,0,0,1,1.7,6.15a.623.623,0,0,1,.032-.07.709.709,0,0,1,.061-.1A.744.744,0,0,1,2.237,5.7a.732.732,0,0,1,.158-.017.745.745,0,0,1,.744.707c0,.013,0,.025,0,.038A.657.657,0,0,1,3.131,6.549Zm1.107.627h0a.746.746,0,0,1-.745-.745c0-.014,0-.027,0-.04A.651.651,0,0,1,3.5,6.3a.746.746,0,0,1,.734-.619.746.746,0,0,1,.588.288.713.713,0,0,1,.1.169h0a.129.129,0,0,1,.007.017.725.725,0,0,1,.047.2h0a.693.693,0,0,1,0,.07A.745.745,0,0,1,4.238,7.176ZM10.222.3a2.853,2.853,0,0,1,1.945.739l-.649.942a1.868,1.868,0,0,0-1.3-.513A1.5,1.5,0,0,0,8.654,3.021a1.5,1.5,0,0,0,1.568,1.553,1.868,1.868,0,0,0,1.3-.513L12.166,5a2.853,2.853,0,0,1-1.945.739,2.727,2.727,0,1,1,0-5.442Zm7.249.083v1.1H16.008V5.66H14.674V1.484h-1.44V.383Zm1.09,2.638a2.8,2.8,0,1,1,2.8,2.722A2.719,2.719,0,0,1,18.561,3.022Zm4.259,0a1.461,1.461,0,1,0-2.917,0,1.461,1.461,0,1,0,2.917,0Z" transform="translate(-0.353 -0.3)" fill="url(#linear-gradient)"/>
      <path id="Path_2" data-name="Path 2" d="M81.231,55.564v.2h-.557v1.478h-.239V55.76h-.557v-.2Z" transform="translate(-69.772 -48.541)" fill="#0268fe"/>
      <path id="Path_3" data-name="Path 3" d="M107.337,57.242h-1.064V55.568h1.064v.2h-.825v.56h.72v.2h-.72v.526h.825Z" transform="translate(-92.813 -48.544)" fill="#0268fe"/>
      <path id="Path_4" data-name="Path 4" d="M128.2,55.357a.86.86,0,0,1,.553.18l-.094.18a.806.806,0,0,0-.459-.143.648.648,0,1,0,0,1.3.806.806,0,0,0,.459-.143l.094.18a.858.858,0,0,1-.553.18.865.865,0,1,1,0-1.728Z" transform="translate(-111.168 -48.36)" fill="#0268fe"/>
      <path id="Path_5" data-name="Path 5" d="M153.2,56.538v.7h-.239V55.564h.239v.779h.782v-.78h.239v1.674h-.239v-.7H153.2Z" transform="translate(-133.571 -48.541)" fill="#0268fe"/>
    </g>
  </g>
</svg>
