<svg id="programming-process-svgrepo-com" xmlns="http://www.w3.org/2000/svg" width="65.08" height="61.676" viewBox="0 0 65.08 61.676">
  <g id="Group_51" data-name="Group 51">
    <g id="Group_50" data-name="Group 50" transform="translate(0 0)">
      <path id="Path_284" data-name="Path 284" d="M0,182.866l17.583,10.47,17.595-10.47L17.583,172.4Z" transform="translate(0 -151.785)" fill="#4c5dd3"/>
      <path id="Path_285" data-name="Path 285" d="M111.552,106.765v4.594h-2.3l3.228,3.231,3.217-3.231h-2.285v-4.594Z" transform="translate(-95.111 -94.644)" fill="#4c5dd3"/>
      <path id="Path_286" data-name="Path 286" d="M111.552,340.764v4.594h-2.3l3.228,3.223,3.217-3.223h-2.285v-4.594Z" transform="translate(-95.111 -298.347)" fill="#4c5dd3"/>
      <path id="Path_287" data-name="Path 287" d="M282.678,232.027l-6.658,0v1.877l6.658-.006v2.3l3.226-3.234-3.226-3.226Z" transform="translate(-240.284 -201.698)" fill="#4c5dd3"/>
      <path id="Path_288" data-name="Path 288" d="M30.372,422.273H50.391l5.08-10H35.444Z" transform="translate(-26.44 -360.597)" fill="#4c5dd3"/>
      <path id="Path_289" data-name="Path 289" d="M371.555,209.312h-7.429a5.623,5.623,0,0,0,0,11.246h7.429a5.623,5.623,0,0,0,0-11.246Z" transform="translate(-312.091 -183.914)" fill="#4c5dd3"/>
      <path id="Path_290" data-name="Path 290" d="M55.456,24.391H67a5.622,5.622,0,1,0,0-11.244H55.456a5.622,5.622,0,1,0,0,11.244Z" transform="translate(-43.378 -13.147)" fill="#4c5dd3"/>
    </g>
  </g>
</svg>
