<svg xmlns="http://www.w3.org/2000/svg" width="37.519" height="41.755" viewBox="0 0 37.519 41.755">
  <g id="disruption-global-innovation-svgrepo-com" transform="translate(-58.494 -36.193)">
    <path id="Path_13" data-name="Path 13" d="M399.611,268.439h-4.3a.643.643,0,1,0,0,1.287h3.658v17.123h-3.015V271.974a.643.643,0,1,0-1.287,0v15.517a.643.643,0,0,0,.643.643h4.3a.643.643,0,0,0,.643-.643V269.082A.643.643,0,0,0,399.611,268.439Z" transform="translate(-304.242 -210.187)" fill="#ffff"/>
    <path id="Path_14" data-name="Path 14" d="M314.522,352.7h-4.3a.643.643,0,0,0-.644.643V363.75a.643.643,0,0,0,.644.643h4.3a.643.643,0,0,0,.643-.643V353.345A.643.643,0,0,0,314.522,352.7Zm-.643,10.406h-3.015v-9.119h3.015Z" transform="translate(-227.235 -286.445)" fill="#ffff"/>
    <path id="Path_15" data-name="Path 15" d="M229.433,390.57h-4.3a.643.643,0,0,0-.643.644v6.809a.643.643,0,0,0,.643.643h4.3a.643.643,0,0,0,.643-.643v-6.809A.643.643,0,0,0,229.433,390.57Zm-.644,6.809h-3.015v-5.522h3.015Z" transform="translate(-150.228 -320.718)" fill="#ffff"/>
    <path id="Path_16" data-name="Path 16" d="M144.342,422.544h-4.3a.643.643,0,0,0-.643.643v3.772a.643.643,0,0,0,.643.643h4.3a.643.643,0,0,0,.643-.643v-3.772A.643.643,0,0,0,144.342,422.544Zm-.643,3.772h-3.015v-2.485H143.7Z" transform="translate(-73.219 -349.655)" fill="#ffff"/>
    <path id="Path_17" data-name="Path 17" d="M211.046,136.764a.643.643,0,0,0-.065-.676l-2.539-3.327a.643.643,0,0,0-1.023,0l-2.539,3.327a.643.643,0,1,0,1.023.781l2.027-2.657,1.238,1.623h-1.238a.643.643,0,0,0-.643.643,16.82,16.82,0,0,1-16.8,16.8.643.643,0,1,0,0,1.287,18.109,18.109,0,0,0,18.075-17.444h1.908A.643.643,0,0,0,211.046,136.764Z" transform="translate(-118.873 -87.167)" fill="#ffff"/>
    <path id="Path_18" data-name="Path 18" d="M80.457,58.992a.645.645,0,0,0,.1-.095,13.11,13.11,0,0,0-8.944-22.7c-.328,0-.652.016-.974.04h0a13.1,13.1,0,0,0-9.195,4.806.643.643,0,0,0-.1.122A13.084,13.084,0,0,0,61.972,58.2a.643.643,0,0,0,.093.1,13.091,13.091,0,0,0,18.392.7Zm-9.364-.162a8.018,8.018,0,0,0-4.879-1.666H62.773a11.8,11.8,0,0,1-.563-15.023H65.8a1.717,1.717,0,0,1,0,3.434H64.054a2.662,2.662,0,1,0,0,5.325h.135a1.577,1.577,0,0,1,0,3.155.643.643,0,1,0,0,1.287,2.864,2.864,0,0,0,0-5.728h-.135a1.375,1.375,0,0,1,0-2.751H65.8a3,3,0,0,0,0-6.008H63.35a11.8,11.8,0,0,1,6.812-3.283,5.069,5.069,0,0,0,4.967,3.964H77a.643.643,0,0,0,0-1.287H75.128a3.788,3.788,0,0,1-3.662-2.765c.049,0,.1,0,.147,0A11.824,11.824,0,0,1,79.8,57.839H77.651a1.249,1.249,0,1,1,0-2.5h.244a2.592,2.592,0,1,0,0-5.185h-2.29a1.953,1.953,0,0,1,0-3.905h4.73a.643.643,0,0,0,0-1.287h-4.73a3.24,3.24,0,0,0,0,6.479h2.29a1.306,1.306,0,0,1,0,2.611h-.244a2.536,2.536,0,1,0,0,5.071h.565a11.809,11.809,0,0,1-14.109-.674h2.107a6.726,6.726,0,0,1,4.092,1.4.643.643,0,0,0,.787-1.018Z" transform="translate(0 0)" fill="#ffff"/>
  </g>
</svg>
