<svg xmlns="http://www.w3.org/2000/svg" width="42.799" height="42.799" viewBox="0 0 42.799 42.799">
  <g id="Group_43" data-name="Group 43" transform="translate(-1158 -2812)">
    <g id="training-class-svgrepo-com" transform="translate(1158 2812)">
      <g id="Group_44" data-name="Group 44">
        <g id="Group_43-2" data-name="Group 43">
          <path id="Path_19" data-name="Path 19" d="M37.276,28.993h-.935a6.2,6.2,0,0,0,2.316-4.832V21.4a4.838,4.838,0,0,0-4.832-4.832H31.064a4.85,4.85,0,0,0-.69.055V4.142h1.381V0H0V4.142H1.381V24.161H0V28.3H16.141l3.452,6.9h6.639V42.8H42.8V34.515A5.529,5.529,0,0,0,37.276,28.993Zm-.812,3.048-2.8,1.2,1.913-2.869h.472Zm-5.491-1.668h2.943L32.444,32.58Zm.253,2.869-2.8-1.2.418-1.668h.472Zm6.052-9.082a4.832,4.832,0,0,1-9.665,0h3.229a4.531,4.531,0,0,0,3.224-1.336l.356-.356A4.546,4.546,0,0,0,37.277,24.1v.059ZM4.142,16.567V22.78H13.39c.011.024.015.05.027.074l.653,1.307H2.761V4.142H28.993v12.9A4.833,4.833,0,0,0,26.232,21.4v2.761H20.617l-2.141-4.015a2.83,2.83,0,0,0-4.67-.5V16.567Zm8.284,1.381V21.4h-6.9V17.948Zm18.638,0h2.761A3.455,3.455,0,0,1,37.276,21.4v1.3a3.169,3.169,0,0,1-1.955-1.336l-.7-1.049-1.533,1.533a3.157,3.157,0,0,1-2.248.931H27.612V21.4A3.455,3.455,0,0,1,31.064,17.948ZM1.381,1.381H30.373V2.761H1.381Zm0,25.541V25.541H14.76l.69,1.381Zm20.709,6.9H20.445L14.652,22.237a1.48,1.48,0,0,1-.155-.656v-.1a1.467,1.467,0,0,1,2.761-.69l4.832,9.06Zm-.737-8.284h5.039a6.148,6.148,0,0,0,.5,1.381h-4.8ZM22.826,28.3h5a6.312,6.312,0,0,0,.721.69H23.194ZM41.418,41.418H38.657V38.657h2.761Zm0-4.142H38.657V34.515H37.276v6.9H27.612V33.825H23.47V30.373h3.949L26.8,32.847l5.644,2.419,5.645-2.419-.616-2.464a4.144,4.144,0,0,1,3.946,4.132Z" fill="#ffff"/>
          <path id="Path_20" data-name="Path 20" d="M57.664,69.522V68.142h-1.45a3.425,3.425,0,0,0-.505-1.21L56.737,65.9l-.976-.976-1.029,1.029a3.425,3.425,0,0,0-1.21-.505V64H52.142v1.45a3.425,3.425,0,0,0-1.21.505L49.9,64.927l-.976.976,1.029,1.029a3.425,3.425,0,0,0-.505,1.21H48v1.381h1.45a3.425,3.425,0,0,0,.505,1.21l-1.029,1.029.976.976,1.029-1.029a3.425,3.425,0,0,0,1.21.505v1.45h1.381v-1.45a3.425,3.425,0,0,0,1.21-.505l1.029,1.029.976-.976-1.029-1.029a3.425,3.425,0,0,0,.505-1.21ZM52.832,70.9A2.071,2.071,0,1,1,54.9,68.832,2.073,2.073,0,0,1,52.832,70.9Z" transform="translate(-43.858 -58.478)" fill="#ffff"/>
          <path id="Path_21" data-name="Path 21" d="M181.892,65.381h2.392V64h-3.131l-2.761,4.142H176v1.381h3.131Z" transform="translate(-160.813 -58.478)" fill="#ffff"/>
          <rect id="Rectangle_15" data-name="Rectangle 15" width="3" height="1" transform="translate(25 5.799)" fill="#ffff"/>
          <path id="Path_22" data-name="Path 22" d="M180.142,144H176v4.142h4.142Zm-1.381,2.761h-1.381v-1.381h1.381Z" transform="translate(-160.813 -131.575)" fill="#ffff"/>
          <rect id="Rectangle_16" data-name="Rectangle 16" width="2" height="1" transform="translate(21 13.799)" fill="#ffff"/>
          <rect id="Rectangle_17" data-name="Rectangle 17" width="3" height="1" transform="translate(25 13.799)" fill="#ffff"/>
        </g>
      </g>
    </g>
  </g>
</svg>
