<svg xmlns="http://www.w3.org/2000/svg" width="41.247" height="29.295" viewBox="0 0 41.247 29.295">
  <path id="handshake-svgrepo-com" d="M41.247,10.722H37.323m0,0H35.36C31.436,6.8,25.548,2.872,21.624,6.8m15.7,3.925v15.7M21.624,6.8l-5.888,5.89c-.156.156-.234.234-.3.3a3.925,3.925,0,0,0,0,5.281c.063.069.141.147.3.3s.234.234.3.3a3.925,3.925,0,0,0,5.28,0c.069-.063.147-.141.3-.3l1.963-1.963M21.624,6.8c-3.925-3.925-9.812,0-13.737,3.925H5.925M2,10.722H5.925m0,0v15.7m31.4,0v5.887h3.925m-3.925-5.887h-5.55m-4.261-5.887,2.944,2.944c.156.156.235.235.3.3a3.925,3.925,0,0,1,0,5.28c-.063.069-.141.147-.3.3s-.235.234-.3.3a3.925,3.925,0,0,1-5.28,0c-.069-.063-.147-.141-.3-.3l-.981-.981A9.815,9.815,0,0,1,21.4,30.274a3.926,3.926,0,0,1-3.485,0,9.817,9.817,0,0,1-2.182-1.891A3.032,3.032,0,0,1,10.6,27.92l-.75-1.5H5.925m0,0v5.887H2" transform="translate(-1 -4.012)" fill="none" stroke="#ffff" stroke-linecap="round" stroke-linejoin="round" stroke-width="2"/>
</svg>
