<svg xmlns="http://www.w3.org/2000/svg" width="75.578" height="75.58" viewBox="0 0 75.578 75.58">
  <path id="illustrationmajor-svgrepo-com" d="M70.78,5.252c.36-.356.719-.712.719-1.071.662-.992.406-1.981.083-3.254L71.5.6a3.489,3.489,0,0,0-3.232-.36,1.881,1.881,0,0,1-.539.36,1.88,1.88,0,0,0-.539.36L43.831,14.932A56.7,56.7,0,0,0,22.275,37.512,20.526,20.526,0,0,1,34.133,50.054a59.274,59.274,0,0,0,22.635-21.5ZM14.372,71.915A14.336,14.336,0,1,0,0,57.579V71.915Z" transform="translate(75.578 71.817) rotate(177)" fill="#4c5dd3"/>
</svg>
