<svg xmlns="http://www.w3.org/2000/svg" width="40" height="40" viewBox="0 0 40 40">
  <g id="Group_1373" data-name="Group 1373" transform="translate(10556 1509.967)">
    <circle id="Ellipse_29814" data-name="Ellipse 29814" cx="20" cy="20" r="20" transform="translate(-10556 -1509.967)" fill="#1f2f6a"/>
    <g id="layer1" transform="translate(-10545 -1498.967)">
      <path id="path726" d="M.763,5.82a.761.761,0,1,0,0,1.522H17.5a.761.761,0,1,0,0-1.522Z" transform="translate(0.001 10.915)" fill="#f8f8fe"/>
      <path id="path728" d="M2.354,3.969A1.838,1.838,0,0,0,.529,5.794v4.263a.761.761,0,0,0,.764.758H4.336a.761.761,0,0,0,.758-.758V5.794A1.838,1.838,0,0,0,3.269,3.969Z" transform="translate(0.993 7.442)" fill="#f8f8fe"/>
      <path id="path730" d="M4.207,3.069A1.838,1.838,0,0,0,2.382,4.894v6.851a.761.761,0,0,0,.758.758H6.184a.761.761,0,0,0,.758-.758V4.894A1.838,1.838,0,0,0,5.117,3.069Z" transform="translate(4.469 5.754)" fill="#f8f8fe"/>
      <path id="path732" d="M6.059,2.276A1.838,1.838,0,0,0,4.234,4.1v9.132a.761.761,0,0,0,.758.758H8.036a.761.761,0,0,0,.764-.758V4.1A1.843,1.843,0,0,0,6.969,2.276Z" transform="translate(7.942 4.267)" fill="#f8f8fe"/>
      <path id="path734" d="M13.284,0a.761.761,0,0,0,0,1.522h.786A28.75,28.75,0,0,1,.62,8.379a.762.762,0,0,0,.275,1.5A30.4,30.4,0,0,0,15.216,2.552v.9a.761.761,0,1,0,1.522,0V1.207A1.224,1.224,0,0,0,15.525,0Z" transform="translate(0.004 0)" fill="#f8f8fe"/>
    </g>
  </g>
</svg>
