<svg id="couch-furniture-and-household-svgrepo-com" xmlns="http://www.w3.org/2000/svg" width="65.104" height="62.392" viewBox="0 0 65.104 62.392">
  <g id="Group_46" data-name="Group 46">
    <g id="Group_45" data-name="Group 45">
      <path id="Path_251" data-name="Path 251" d="M62.392,18.8H56.966V13.379a2.713,2.713,0,0,0-2.713-2.713h-43.4a2.713,2.713,0,0,0-2.713,2.713V18.8H2.713A2.713,2.713,0,0,0,0,21.517V59.494a2.713,2.713,0,0,0,2.713,2.713H15.729L11.306,68.84a2.713,2.713,0,0,0,4.514,3.009l5.425-8.138a2.7,2.7,0,0,0,.455-1.5H43.4a2.7,2.7,0,0,0,.455,1.5l5.425,8.138A2.713,2.713,0,0,0,53.8,68.84l-4.422-6.633H62.392A2.713,2.713,0,0,0,65.1,59.494V21.517A2.712,2.712,0,0,0,62.392,18.8ZM13.563,48.644V43.218H29.84v5.425Zm21.7-5.425H51.541v5.425H35.265Zm-21.7-27.127H51.541v21.7H13.563v-21.7Zm46.116,40.69H5.425V24.229H8.138V51.356a2.713,2.713,0,0,0,2.713,2.713h43.4a2.713,2.713,0,0,0,2.713-2.713V24.229h2.713Z" transform="translate(0 -10.666)" fill="#4c5dd3"/>
      <path id="Path_252" data-name="Path 252" d="M173.38,122.758h16.276a2.713,2.713,0,1,0,0-5.425H173.38a2.713,2.713,0,1,0,0,5.425Z" transform="translate(-148.965 -103.77)" fill="#4c5dd3"/>
    </g>
  </g>
</svg>
