<svg id="Layer_2" xmlns="http://www.w3.org/2000/svg" width="69.956" height="69.889" viewBox="0 0 69.956 69.889">
  <g id="Group_47" data-name="Group 47">
    <path id="Path_253" data-name="Path 253" d="M26.967,12.989A13.876,13.876,0,0,1,40.6,23.822a3.433,3.433,0,0,0,6.639-1.747C45.138,12.29,36.751,6,26.967,6A21,21,0,0,0,25.22,47.933h.349a3.716,3.716,0,0,0,3.494-3.145c.349-1.747-1.4-3.494-3.145-3.844-6.989-.7-12.929-6.989-12.929-13.978A14.019,14.019,0,0,1,26.967,12.989Z" transform="translate(7.978 7.978)" fill="#4c5dd3"/>
    <path id="Path_254" data-name="Path 254" d="M36.945,64.9A27.956,27.956,0,1,1,64.9,35.2a3.157,3.157,0,0,0,3.844,3.145A3.157,3.157,0,0,0,71.889,34.5,34.986,34.986,0,1,0,36.945,71.889a3.494,3.494,0,1,0,0-6.989Z" transform="translate(-2 -2)" fill="#4c5dd3"/>
    <path id="Path_255" data-name="Path 255" d="M44.171,20.678a2.649,2.649,0,0,0-1.4-.7L20.059,12.291a6.25,6.25,0,0,0-6.29,1.747,5.342,5.342,0,0,0-1.048,6.29L23.2,43.392a6.118,6.118,0,0,0,5.242,3.494h1.048a5.6,5.6,0,0,0,4.892-5.242l1.048-8.387,6.989-2.1a6.077,6.077,0,0,0,4.193-4.892A5.741,5.741,0,0,0,44.171,20.678ZM32.989,26.618A5.583,5.583,0,0,0,28.8,31.511l-.7,5.242L20.409,19.63l16.773,5.591Z" transform="translate(23.272 23.003)" fill="#4c5dd3"/>
  </g>
</svg>
