<svg id="Group_49" data-name="Group 49" xmlns="http://www.w3.org/2000/svg" width="69.791" height="84.816" viewBox="0 0 69.791 84.816">
  <g id="Group_48" data-name="Group 48" transform="translate(0)">
    <path id="Path_256" data-name="Path 256" d="M89.345,67.087H49.825V10.406H89.334v4.24h5.31v-5.4A9.282,9.282,0,0,0,85.392,0H53.774a9.279,9.279,0,0,0-9.252,9.248V75.564a9.277,9.277,0,0,0,9.252,9.252H85.392a9.285,9.285,0,0,0,9.256-9.252V66.989h-5.3S89.345,67.087,89.345,67.087Zm-19.767,13.1a4.238,4.238,0,1,1,4.244-4.237A4.233,4.233,0,0,1,69.578,80.186Z" transform="translate(-44.522)" fill="#4c5dd3"/>
    <rect id="Rectangle_20" data-name="Rectangle 20" width="11.854" height="7.229" transform="translate(9.831 16.095)" fill="#4c5dd3"/>
    <rect id="Rectangle_21" data-name="Rectangle 21" width="11.854" height="7.229" transform="translate(9.831 34.603)" fill="#4c5dd3"/>
    <rect id="Rectangle_22" data-name="Rectangle 22" width="11.854" height="7.225" transform="translate(9.831 53.973)" fill="#4c5dd3"/>
    <path id="Path_257" data-name="Path 257" d="M236.49,131.2a16.014,16.014,0,0,0-2.468-5.991l4.251-4.255-4.342-4.328-4.244,4.248a15.936,15.936,0,0,0-5.987-2.468v-6.024h-6.144v6.024a16.11,16.11,0,0,0-5.991,2.468l-4.237-4.248-4.342,4.331,4.244,4.255a16.069,16.069,0,0,0-2.46,5.987h-6.016v6.14h6.016a16.177,16.177,0,0,0,2.464,5.987l-4.248,4.248,4.342,4.324,4.247-4.244a16.076,16.076,0,0,0,5.991,2.475v6.013h6.144v-6.016a16.1,16.1,0,0,0,5.987-2.468l4.244,4.244,4.342-4.328-4.251-4.248a16.1,16.1,0,0,0,2.468-5.991h6.02V131.2Zm-15.854,9.751a6.69,6.69,0,1,1,6.682-6.682A6.685,6.685,0,0,1,220.636,140.951Z" transform="translate(-172.73 -93.42)" fill="#4c5dd3"/>
  </g>
</svg>
