<svg xmlns="http://www.w3.org/2000/svg" width="43.96" height="33.665" viewBox="0 0 43.96 33.665">
  <g id="quotation-marks-svgrepo-com" transform="translate(0 -57.515)">
    <path id="Path_468" data-name="Path 468" d="M8.745,73.137v3.389a.833.833,0,0,1-.833.833c-1.64,0-2.532,1.682-2.655,5H7.912a.832.832,0,0,1,.833.833v7.155a.832.832,0,0,1-.833.832H.833A.832.832,0,0,1,0,90.348V83.193a18.365,18.365,0,0,1,.476-4.342,10.459,10.459,0,0,1,1.477-3.435,7.215,7.215,0,0,1,2.512-2.294,7.148,7.148,0,0,1,3.448-.816A.832.832,0,0,1,8.745,73.137Zm10.733-.832a6.911,6.911,0,0,0-5.959,3.11,10.461,10.461,0,0,0-1.478,3.436,18.356,18.356,0,0,0-.476,4.341v7.155a.832.832,0,0,0,.832.832h7.08a.832.832,0,0,0,.832-.832V83.193a.832.832,0,0,0-.832-.833H16.86c.122-3.319,1-5,2.618-5a.833.833,0,0,0,.832-.833V73.137A.832.832,0,0,0,19.478,72.305Zm23.649-14.79h-7.08a.833.833,0,0,0-.833.833V65.5a.832.832,0,0,0,.833.833H38.7c-.123,3.319-1.015,5-2.655,5a.833.833,0,0,0-.833.833v3.389a.832.832,0,0,0,.833.833,6.907,6.907,0,0,0,5.958-3.111,10.455,10.455,0,0,0,1.477-3.435A18.366,18.366,0,0,0,43.96,65.5V58.348A.832.832,0,0,0,43.127,57.515Zm-11.565,0h-7.08a.833.833,0,0,0-.832.833V65.5a.833.833,0,0,0,.832.833H27.1c-.122,3.319-1,5-2.618,5a.833.833,0,0,0-.832.833v3.389a.833.833,0,0,0,.832.833,6.907,6.907,0,0,0,5.959-3.111,10.432,10.432,0,0,0,1.479-3.436,18.381,18.381,0,0,0,.475-4.34V58.348A.833.833,0,0,0,31.562,57.515Z" transform="translate(0)" fill="#f5fcff"/>
  </g>
</svg>
