<svg xmlns="http://www.w3.org/2000/svg" width="40" height="40" viewBox="0 0 40 40">
  <g id="Group_1371" data-name="Group 1371" transform="translate(10542 1472)">
    <circle id="Ellipse_29811" data-name="Ellipse 29811" cx="20" cy="20" r="20" transform="translate(-10542 -1472)" fill="#1f2f6a"/>
    <g id="Group_1369" data-name="Group 1369" transform="translate(-10530.856 -1460.856)">
      <path id="technology-svgrepo-com" d="M16.284,18.744a2.46,2.46,0,1,0-2.46-2.46A2.46,2.46,0,0,0,16.284,18.744ZM9.888,4.968,11.856,3M7.428,9.888a2.46,2.46,0,1,0-2.46-2.46A2.46,2.46,0,0,0,7.428,9.888Zm.492,5.9L15.792,7.92M5.46,20.712A2.46,2.46,0,1,0,3,18.252,2.46,2.46,0,0,0,5.46,20.712ZM18.252,7.92a2.46,2.46,0,1,0-2.46-2.46A2.46,2.46,0,0,0,18.252,7.92Zm-6.4,12.792,1.968-1.968" transform="translate(-3 -3)" fill="none" stroke="#f8f8fe" stroke-linecap="round" stroke-linejoin="round" stroke-width="2"/>
    </g>
  </g>
</svg>
