<svg xmlns="http://www.w3.org/2000/svg" width="69" height="69" viewBox="0 0 69 69">
  <g id="Layer_2" data-name="Layer 2" transform="translate(0 -0.147)">
    <g id="invisible_box" data-name="invisible box">
      <rect id="Rectangle_41" data-name="Rectangle 41" width="69" height="69" transform="translate(0 0.147)" fill="none"/>
    </g>
    <g id="icons_Q2" data-name="icons Q2" transform="translate(5.729 2.714)">
      <path id="Path_291" data-name="Path 291" d="M61.334,58.469,47.075,22.606a3.025,3.025,0,0,0-2.737-1.872H41.458a3.025,3.025,0,0,0-2.737,1.872L31.808,40.034a34.567,34.567,0,0,1-8.066-6.193c4.9-5.761,8.5-12.675,8.93-18.868h2.881a3.025,3.025,0,0,0,3.025-2.448A2.881,2.881,0,0,0,35.7,9.211H23.454V5.035A3.025,3.025,0,0,0,21.005,2.01a2.881,2.881,0,0,0-3.313,2.881V9.211H7.035A3.025,3.025,0,0,0,4.01,11.66a2.881,2.881,0,0,0,2.881,3.313h20.02c-.432,4.321-3.313,9.65-7.057,14.547a49.113,49.113,0,0,1-4.609-7.057,3.025,3.025,0,0,0-3.169-1.728,2.881,2.881,0,0,0-2.016,4.177,56.316,56.316,0,0,0,5.905,8.93,34.567,34.567,0,0,1-10.082,7.2A3.169,3.169,0,0,0,4.01,44.355a2.881,2.881,0,0,0,2.881,2.3l1.152-.288a38.024,38.024,0,0,0,11.81-8.354,40.472,40.472,0,0,0,9.794,7.345L24.462,58.469A2.881,2.881,0,0,0,27.055,62.5a3.169,3.169,0,0,0,2.737-1.872l5.617-13.971H50.387L56,60.63A3.169,3.169,0,0,0,58.741,62.5a2.881,2.881,0,0,0,2.593-4.033ZM37.713,40.9,42.9,27.791,48.083,40.9Z" transform="translate(-3.977 -1.977)" fill="#4c5dd3"/>
    </g>
  </g>
</svg>
