<svg id="video-frame-play-vertical-svgrepo-com" xmlns="http://www.w3.org/2000/svg" width="64.98" height="64.981" viewBox="0 0 64.98 64.981">
  <path id="Path_273" data-name="Path 273" d="M21.558,2c5.525,0,10.053,0,13.809.223V66.758c-3.755.223-8.284.223-13.809.223s-10.053,0-13.809-.223V2.223C11.505,2,16.033,2,21.558,2ZM22.9,29.306c3.441,2.313,5.162,3.47,5.162,5.185s-1.721,2.872-5.162,5.185c-3.489,2.345-5.233,3.517-6.534,2.656s-1.3-3.187-1.3-7.841,0-6.98,1.3-7.841S19.407,26.962,22.9,29.306Z" transform="translate(10.932 -2)" fill="#4c5dd3" fill-rule="evenodd"/>
  <path id="Path_274" data-name="Path 274" d="M15.31,15.31H2.221c.631-3.973,1.816-6.828,4.038-9.05s5.078-3.407,9.05-4.038Z" transform="translate(-1.502 -1.502)" fill="#4c5dd3"/>
  <path id="Path_275" data-name="Path 275" d="M30.838,15.31c-.631-3.973-1.816-6.828-4.038-9.05s-5.078-3.407-9.05-4.038V15.31Z" transform="translate(33.422 -1.502)" fill="#4c5dd3"/>
  <path id="Path_276" data-name="Path 276" d="M31.557,19.122c0-4.439-.033-8.184-.223-11.372H17.75V19.122Z" transform="translate(33.422 10.932)" fill="#4c5dd3"/>
  <path id="Path_277" data-name="Path 277" d="M26.8,26.8c-2.222,2.223-5.078,3.407-9.05,4.038V17.75H30.838C30.207,21.723,29.022,24.578,26.8,26.8Z" transform="translate(33.422 33.423)" fill="#4c5dd3"/>
  <path id="Path_278" data-name="Path 278" d="M31.557,12.75c0,4.439-.033,8.184-.223,11.372H17.75V12.75Z" transform="translate(33.422 22.178)" fill="#4c5dd3"/>
  <path id="Path_279" data-name="Path 279" d="M15.31,17.75V30.839c-3.973-.631-6.828-1.816-9.05-4.038s-3.407-5.078-4.038-9.05Z" transform="translate(-1.502 33.423)" fill="#4c5dd3"/>
  <path id="Path_280" data-name="Path 280" d="M15.808,24.122H2.223C2.033,20.934,2,17.189,2,12.75H15.808Z" transform="translate(-2 22.178)" fill="#4c5dd3"/>
  <path id="Path_281" data-name="Path 281" d="M15.808,19.122H2c0-4.439.033-8.184.223-11.372H15.808Z" transform="translate(-2 10.932)" fill="#4c5dd3"/>
</svg>
