<svg id="web-page-svgrepo-com" xmlns="http://www.w3.org/2000/svg" width="67.627" height="67.627" viewBox="0 0 67.627 67.627">
  <path id="Path_282" data-name="Path 282" d="M61.287,0H6.34A6.34,6.34,0,0,0,0,6.34V61.287a6.34,6.34,0,0,0,6.34,6.34H61.287a6.34,6.34,0,0,0,6.34-6.34V6.34A6.34,6.34,0,0,0,61.287,0ZM58.733,4.623a2.51,2.51,0,1,1-2.51,2.51A2.51,2.51,0,0,1,58.733,4.623Zm-9.312,0a2.51,2.51,0,1,1-2.51,2.51A2.51,2.51,0,0,1,49.421,4.623Zm-9.312,0a2.51,2.51,0,1,1-2.51,2.51A2.51,2.51,0,0,1,40.109,4.623ZM62.343,61.287a1.058,1.058,0,0,1-1.057,1.057H6.34a1.058,1.058,0,0,1-1.057-1.057V13.737h57.06Z" fill="#4c5dd3"/>
  <rect id="Rectangle_38" data-name="Rectangle 38" width="21" height="5" transform="translate(9 25.627)" fill="#4c5dd3"/>
  <rect id="Rectangle_39" data-name="Rectangle 39" width="44" height="4" transform="translate(9 46.627)" fill="#4c5dd3"/>
  <rect id="Rectangle_40" data-name="Rectangle 40" width="16" height="16" transform="translate(37 25.627)" fill="#4c5dd3"/>
  <path id="Path_283" data-name="Path 283" d="M113.573,276.227h2.5V272H96v4.227h17.573Z" transform="translate(-86.32 -236.073)" fill="#4c5dd3"/>
</svg>
