<svg xmlns="http://www.w3.org/2000/svg" xmlns:xlink="http://www.w3.org/1999/xlink" width="49.905" height="96.273" viewBox="0 0 49.905 96.273">
  <defs>
    <linearGradient id="linear-gradient" x1="0.5" y1="0.405" x2="0.5" y2="-0.118" gradientUnits="objectBoundingBox">
      <stop offset="0.21" stop-color="#003efd"/>
      <stop offset="0.24" stop-color="#06f"/>
      <stop offset="0.63" stop-color="#09f"/>
      <stop offset="0.79" stop-color="#6cf"/>
    </linearGradient>
  </defs>
  <g id="Group_3030" data-name="Group 3030" transform="translate(9832.979 470.789)">
    <path id="Path_1" data-name="Path 1" d="M48.9,17.319A24.955,24.955,0,0,0,.353,25.462,26.105,26.105,0,0,0,.508,28.27a24.776,24.776,0,0,0,2.537,8.481,25.076,25.076,0,0,0,6.946,8.414,9.47,9.47,0,0,1,2.688-2.5,9.5,9.5,0,0,1,4.95-1.4,9.417,9.417,0,0,1,7.8,4.131A9.434,9.434,0,0,1,37.1,42.1a9.213,9.213,0,0,1,1.2.648,9.521,9.521,0,0,1,2.477,2.294,25.115,25.115,0,0,0,6.783-8.287A25.018,25.018,0,0,0,48.9,17.319ZM23.839,6.162a.036.036,0,0,1,.036-.036h2.37a.036.036,0,0,1,.036.036V8.249a.036.036,0,0,1-.036.036h-2.37a.036.036,0,0,1-.036-.036ZM7.228,23.085l-2.1-.258A19.537,19.537,0,0,1,12.873,9.669a18.932,18.932,0,0,1,8.938-3.511l.246,2.1a16.838,16.838,0,0,0-7.936,3.117A17.391,17.391,0,0,0,7.228,23.085ZM25.266,37.8c-7.145,0-12.309-5.611-12.309-13.01s5.165-13.01,12.309-13.01,12.373,5.611,12.373,13.01S32.411,37.8,25.266,37.8ZM19.382,86.343a.374.374,0,0,1-.37.37h-2.29a3.094,3.094,0,0,0-6.051.688,1.732,1.732,0,0,0-.008.2,3.1,3.1,0,0,0,6.055.919h2.3A2.184,2.184,0,0,0,21.2,86.339V59H19.386ZM13.756,88.9a1.291,1.291,0,0,1-1.288-1.288v-.02l0-.06a1.287,1.287,0,0,1,2.568,0l0,.079A1.3,1.3,0,0,1,13.756,88.9Zm36.26-14.975a3.094,3.094,0,0,0-6.035-.74h-2.3a.375.375,0,0,1-.37-.374V55.074H39.5V72.808a2.184,2.184,0,0,0,2.183,2.183h2.27a3.1,3.1,0,0,0,6.071-.867A1.762,1.762,0,0,0,50.016,73.921Zm-3.089,1.491a1.291,1.291,0,0,1-1.288-1.288v-.012l0-.068a1.287,1.287,0,0,1,2.568,0l0,.079A1.293,1.293,0,0,1,46.927,75.412Zm-5.081,2.326a3.1,3.1,0,0,0-2.962,2.2H36.621a.374.374,0,0,1-.37-.37V59.01H34.438V79.571a2.184,2.184,0,0,0,2.183,2.183h2.266a3.1,3.1,0,0,0,6.055-.915,1.831,1.831,0,0,0-.008-.207A3.1,3.1,0,0,0,41.845,77.738Zm0,4.382a1.291,1.291,0,0,1-1.288-1.288v-.02l0-.06a1.287,1.287,0,0,1,2.568,0l0,.08A1.293,1.293,0,0,1,41.845,82.12Zm-5.014,2.286a3.092,3.092,0,0,0-2.994,2.31H31.6a.374.374,0,0,1-.37-.37V58.855H29.417V86.347A2.184,2.184,0,0,0,31.6,88.53h2.31a3.1,3.1,0,0,0,6.019-1.022,1.83,1.83,0,0,0-.008-.207A3.094,3.094,0,0,0,36.832,84.407Zm0,4.386A1.29,1.29,0,0,1,35.544,87.5v-.02l0-.06a1.287,1.287,0,0,1,2.568,0l0,.08A1.293,1.293,0,0,1,36.832,88.792Zm-10.62,1.932v-37.7H24.4v37.7a3.1,3.1,0,0,0-2.195,2.76,1.761,1.761,0,0,0-.008.207,3.1,3.1,0,1,0,6.194,0,1.83,1.83,0,0,0-.008-.207A3.09,3.09,0,0,0,26.212,90.725Zm-.918,4.247a1.29,1.29,0,0,1-1.288-1.288v-.02l0-.06a1.287,1.287,0,0,1,2.568,0l0,.08A1.288,1.288,0,0,1,25.294,94.972Zm-18.583-20H8.977a2.184,2.184,0,0,0,2.183-2.183V54H9.347v18.8a.374.374,0,0,1-.37.37H6.671a3.1,3.1,0,0,0-6.031.759,1.764,1.764,0,0,0-.008.207,3.1,3.1,0,0,0,6.079.847Zm-2.982.437a1.291,1.291,0,0,1-1.288-1.288V74.1l0-.06a1.287,1.287,0,0,1,2.568,0l0,.079A1.288,1.288,0,0,1,3.729,75.412Zm7.984,6.338h2.282a2.184,2.184,0,0,0,2.183-2.183V58.931H14.364V79.568a.374.374,0,0,1-.37.37H11.716a3.094,3.094,0,0,0-6.051.692,1.765,1.765,0,0,0-.008.207,3.1,3.1,0,0,0,6.055.915Zm-2.962.37a1.291,1.291,0,0,1-1.288-1.288v-.02l0-.06a1.287,1.287,0,0,1,2.568,0l0,.08A1.288,1.288,0,0,1,8.75,82.12ZM41.7,47.742a9.2,9.2,0,0,0-.922-1.5A9.454,9.454,0,0,0,38.3,43.948a9.756,9.756,0,0,0-1.2-.648,9.434,9.434,0,0,0-11.665,3.3,9.425,9.425,0,0,0-7.8-4.131,9.285,9.285,0,0,0-2.759.414A9.368,9.368,0,0,0,9.995,46.37a9.177,9.177,0,0,0-.8,1.312,9.435,9.435,0,0,0,8.441,13.654,9.3,9.3,0,0,0,1.252-.083,9.156,9.156,0,0,0,1.932-.473A9.446,9.446,0,0,0,25.437,57.2a9.446,9.446,0,0,0,7.8,4.131h.091A9.435,9.435,0,0,0,41.476,56.5v0a9.414,9.414,0,0,0,.227-8.756ZM23.859,52.907a6.312,6.312,0,0,1-4.572,5.082c-.1.028-.2.056-.306.076A6.32,6.32,0,0,1,11.323,51.9a.342.342,0,0,1,0-.064,6.237,6.237,0,0,1,.457-2.3,5.272,5.272,0,0,1,.274-.588,6,6,0,0,1,.517-.815,6.3,6.3,0,0,1,3.713-2.39,6.191,6.191,0,0,1,1.336-.143,6.3,6.3,0,0,1,6.294,5.984c.008.107.008.215.008.322A5.559,5.559,0,0,1,23.859,52.907Zm9.363,5.3h-.008A6.311,6.311,0,0,1,26.908,51.9c0-.115,0-.227.008-.338A5.5,5.5,0,0,1,27,50.839,6.308,6.308,0,0,1,33.214,45.6a6.309,6.309,0,0,1,4.978,2.437,6.031,6.031,0,0,1,.835,1.427s0,0,0,.008a1.092,1.092,0,0,1,.06.143,6.137,6.137,0,0,1,.4,1.686v0a5.865,5.865,0,0,1,.032.6A6.3,6.3,0,0,1,33.222,58.211Z" transform="translate(-9833.332 -471.3)" fill="url(#linear-gradient)"/>
  </g>
</svg>
